<svg width="114" height="113" viewBox="0 0 114 113" fill="none" xmlns="http://www.w3.org/2000/svg">
<path d="M81.4397 6.70992L81.0667 6.93592C77.9208 8.84562 76.0247 12.2966 76.2552 15.933C76.2843 16.4019 76.3485 16.868 76.4473 17.3274C76.8256 18.99 77.6088 20.5334 78.7274 21.8203C79.846 23.1073 81.2652 24.0978 82.8589 24.704C84.7438 25.4069 86.9134 25.608 88.4072 26.9347C90.3531 28.6658 90.4164 31.6083 90.335 34.196C90.2536 36.7837 90.3237 39.7263 92.2763 41.4484C93.5013 42.5287 95.2415 42.8722 96.88 42.7863C101.217 42.5603 105.097 39.5319 107.025 35.6876C108.953 31.8434 109.127 27.3256 108.279 23.1062C107.091 17.2121 103.827 11.6073 98.7874 8.23768C93.7476 4.86802 86.8795 4.01374 81.4397 6.70992Z" fill="#F5F5F5"/>
<path d="M6.86867 38.368L7.17829 38.6776C9.76599 41.2811 13.5763 42.3071 17.0567 41.2223C17.5048 41.0824 17.9421 40.9102 18.3653 40.7071C19.8909 39.9456 21.2048 38.8192 22.1905 37.4278C23.1761 36.0365 23.8029 34.4233 24.0153 32.7315C24.2413 30.7337 23.9271 28.5799 24.8673 26.8126C26.0922 24.5119 28.9353 23.7571 31.4665 23.2237C33.9977 22.6903 36.843 21.9265 38.0567 19.6077C38.816 18.1636 38.7347 16.3917 38.2646 14.821C37.0171 10.6694 33.1615 7.61615 28.976 6.65339C24.7905 5.69063 20.345 6.59237 16.4578 8.41167C11.0045 10.9609 6.33079 15.4583 4.24933 21.1513C2.16787 26.8442 2.96339 33.7192 6.86867 38.368Z" fill="#F5F5F5"/>
<path d="M52.1116 21.6372C55.6489 21.6372 58.5165 18.7696 58.5165 15.2324C58.5165 11.6951 55.6489 8.82751 52.1116 8.82751C48.5743 8.82751 45.7068 11.6951 45.7068 15.2324C45.7068 18.7696 48.5743 21.6372 52.1116 21.6372Z" fill="#F5F5F5"/>
<path d="M106.984 106.098C106.984 106.13 84.6104 106.157 57.0022 106.157C29.3941 106.157 7.01556 106.13 7.01556 106.098C7.01556 106.066 29.3896 106.039 57.0022 106.039C84.6149 106.039 106.984 106.064 106.984 106.098Z" fill="#263238"/>
<path d="M90.8999 66.2542L89.162 65.4768L99.5105 52.4456L101.199 52.9134C101.451 52.983 101.676 53.1271 101.845 53.327L103.527 55.3068C103.642 55.4436 103.699 55.6208 103.685 55.7995C103.671 55.9782 103.586 56.144 103.45 56.2605L91.8333 66.1209C91.7063 66.2292 91.5512 66.2992 91.3859 66.3228C91.2207 66.3464 91.0522 66.3227 90.8999 66.2542Z" fill="#455A64"/>
<path d="M102.636 65.3366L100.756 66.9186C100.653 67.0064 100.529 67.0652 100.396 67.089C100.263 67.1128 100.126 67.1008 99.9987 67.0542L98.584 66.5502C98.4077 66.4845 98.2615 66.3568 98.1727 66.1909L90.4751 51.6794L92.2108 52.1834C92.4345 52.2488 92.6342 52.3784 92.7848 52.5563L102.718 64.2586C102.849 64.4125 102.915 64.6124 102.899 64.8144C102.884 65.0164 102.79 65.2042 102.636 65.3366Z" fill="#455A64"/>
<g opacity="0.3">
<path d="M90.8999 66.2542L89.162 65.4767L99.5105 52.4456L101.199 52.9134C101.451 52.9829 101.676 53.1271 101.845 53.327L103.527 55.3067C103.642 55.4435 103.699 55.6207 103.685 55.7994C103.671 55.9782 103.586 56.1439 103.45 56.2604L91.8333 66.1208C91.7063 66.2291 91.5512 66.2992 91.3859 66.3228C91.2207 66.3464 91.0522 66.3226 90.8999 66.2542Z" fill="black"/>
<path d="M102.636 65.3366L100.756 66.9186C100.653 67.0064 100.529 67.0652 100.396 67.089C100.263 67.1128 100.126 67.1008 99.9987 67.0542L98.584 66.5502C98.4077 66.4845 98.2615 66.3568 98.1727 66.1909L90.4751 51.6794L92.2108 52.1834C92.4345 52.2488 92.6342 52.3784 92.7848 52.5563L102.718 64.2586C102.849 64.4125 102.915 64.6124 102.899 64.8144C102.884 65.0164 102.79 65.2042 102.636 65.3366Z" fill="black"/>
</g>
<path d="M101.512 54.659L99.8041 52.6464C99.6192 52.4285 99.2926 52.4018 99.0746 52.5867L87.3057 62.5745C87.0878 62.7595 87.0611 63.0861 87.246 63.304L88.954 65.3166C89.139 65.5345 89.4656 65.5613 89.6835 65.3763L101.452 55.3885C101.67 55.2036 101.697 54.877 101.512 54.659Z" fill="#455A64"/>
<path d="M88.0544 53.5668L90.1221 51.812C90.2135 51.7344 90.332 51.6963 90.4515 51.7061C90.571 51.7159 90.6817 51.7727 90.7592 51.8641L100.797 63.6916C100.886 63.7963 100.929 63.9319 100.918 64.0687C100.907 64.2055 100.842 64.3323 100.737 64.4211L98.7193 66.1335C98.6146 66.2223 98.479 66.2659 98.3422 66.2547C98.2054 66.2435 98.0786 66.1784 97.9898 66.0738L88.002 54.3049C87.9132 54.2002 87.8696 54.0646 87.8808 53.9278C87.892 53.791 87.957 53.6642 88.0617 53.5754L88.0544 53.5668Z" fill="#455A64"/>
<path d="M91.352 59.7205C90.8083 60.263 90.2373 60.7775 89.6412 61.2618C89.0705 61.7765 88.4738 62.2615 87.8535 62.715C88.3974 62.172 88.9684 61.6568 89.5643 61.1714C90.1352 60.6577 90.7318 60.1735 91.352 59.7205Z" fill="white"/>
<path d="M99.1467 53.0558C99.1693 53.0807 98.306 53.8445 97.2234 54.7621C96.1409 55.6797 95.2459 56.4006 95.2256 56.3757C95.2052 56.3509 96.064 55.5893 97.1488 54.6717C98.2336 53.7541 99.1263 53.0309 99.1467 53.0558Z" fill="white"/>
<path d="M91.7385 57.856C91.7136 57.8764 91.0469 57.065 90.2491 56.048C89.4514 55.031 88.8253 54.1858 88.8502 54.1655C89.3779 54.7423 89.8757 55.3458 90.3418 55.9735C90.8397 56.5764 91.3058 57.2047 91.7385 57.856Z" fill="white"/>
<path d="M97.6958 64.636C97.1538 64.137 96.6392 63.6089 96.1545 63.054C95.64 62.5258 95.1549 61.9698 94.7013 61.3884C95.2416 61.8893 95.756 62.4173 96.2426 62.9704C96.756 63.4996 97.2411 64.0556 97.6958 64.636Z" fill="white"/>
<path d="M8.84848 63.7975L8.48914 62.4596L18.1778 64.3897L26.7364 52.3552L27.7805 54.2988C27.8606 54.4466 27.9026 54.612 27.9026 54.7801C27.9026 54.9483 27.8606 55.1137 27.7805 55.2615L20.3496 68.8645C20.2173 69.1061 20.0381 69.3189 19.8223 69.4902C19.6066 69.6616 19.3588 69.788 19.0934 69.8622C18.8281 69.9363 18.5506 69.9566 18.2773 69.9219C18.004 69.8871 17.7404 69.7981 17.502 69.66L10.0033 65.314C9.72054 65.1496 9.47296 64.9311 9.27479 64.6709C9.07662 64.4106 8.93174 64.1139 8.84848 63.7975Z" fill="#2E8A4B"/>
<g opacity="0.3">
<path d="M8.84848 63.7975L8.48914 62.4596L18.1778 64.3897L26.7364 52.3552L27.7805 54.2988C27.8606 54.4466 27.9026 54.612 27.9026 54.7801C27.9026 54.9483 27.8606 55.1137 27.7805 55.2615L20.3496 68.8645C20.2173 69.1061 20.0381 69.3189 19.8223 69.4902C19.6066 69.6616 19.3588 69.788 19.0934 69.8622C18.8281 69.9363 18.5506 69.9566 18.2773 69.9219C18.004 69.8871 17.7404 69.7981 17.502 69.66L10.0033 65.314C9.72054 65.1496 9.47296 64.9311 9.27479 64.6709C9.07662 64.4106 8.93174 64.1139 8.84848 63.7975Z" fill="black"/>
</g>
<path d="M8.51624 61.8223L9.91292 59.3499C10.0089 59.1792 10.1667 59.0518 10.3537 58.9938C10.5407 58.9358 10.7429 58.9516 10.9186 59.038L16.5234 61.7839C16.7027 61.8711 16.9088 61.8855 17.0984 61.824C17.2881 61.7624 17.4465 61.6298 17.5404 61.4539L23.1 51.0218C23.1493 50.9292 23.217 50.8477 23.299 50.7823C23.381 50.7168 23.4754 50.6689 23.5767 50.6414C23.6779 50.6139 23.7836 50.6073 23.8874 50.6222C23.9913 50.6371 24.0909 50.6731 24.1803 50.728L26.4403 52.1179C26.608 52.2208 26.7298 52.3841 26.7807 52.5741C26.8316 52.7642 26.8076 52.9665 26.7138 53.1394L19.4456 66.4305C19.2108 66.8603 18.816 67.1803 18.3469 67.3212C17.8778 67.4621 17.372 67.4124 16.9393 67.183L8.8236 62.889C8.73174 62.8409 8.65058 62.7746 8.58503 62.6942C8.51947 62.6138 8.47087 62.521 8.44215 62.4213C8.41343 62.3216 8.40519 62.2172 8.41792 62.1142C8.43065 62.0113 8.4641 61.912 8.51624 61.8223Z" fill="#2E8A4B"/>
<path d="M16.1415 62.4167C16.0378 62.3861 15.9372 62.346 15.8409 62.2969L15.0431 61.9353C14.3651 61.6234 13.4476 61.1873 12.4306 60.6991L11.687 60.342L11.3345 60.1725C11.2305 60.1152 11.1159 60.0798 10.9977 60.0686C10.8891 60.0591 10.7797 60.0716 10.676 60.1054C10.5723 60.1392 10.4765 60.1936 10.3943 60.2652C10.2579 60.4062 10.147 60.5699 10.0666 60.7488L9.63044 61.5105C9.58088 61.606 9.52263 61.6968 9.45642 61.7817C9.49142 61.6797 9.53607 61.5813 9.58976 61.4879L9.99204 60.7082L10.1276 60.4505C10.179 60.3528 10.2471 60.2649 10.3288 60.1906C10.4209 60.1094 10.5283 60.0475 10.6448 60.0087C10.7613 59.9699 10.8844 59.9549 11.0068 59.9646C11.1388 59.9753 11.2673 60.013 11.3842 60.0754L11.7368 60.2426L12.478 60.5929C13.495 61.081 14.4149 61.5308 15.077 61.8608L15.868 62.2563C15.9634 62.3023 16.0548 62.356 16.1415 62.4167Z" fill="white"/>
<path d="M18.1958 61.967C18.1664 61.9511 19.3439 59.6233 20.8264 56.769C22.309 53.9146 23.5384 51.6094 23.561 51.6252C23.5836 51.641 22.4129 53.9666 20.9304 56.8232C19.4478 59.6798 18.2229 61.9805 18.1958 61.967Z" fill="white"/>
<path d="M41.5414 30.8752C42.058 26.7158 39.105 22.9252 34.9456 22.4085C30.7862 21.8919 26.9956 24.845 26.479 29.0044C25.9624 33.1637 28.9154 36.9544 33.0748 37.471C37.2342 37.9876 41.0248 35.0345 41.5414 30.8752Z" fill="white"/>
<path d="M41.5982 29.936C41.5982 29.936 41.5982 29.8953 41.5982 29.8139C41.5982 29.7326 41.5981 29.6083 41.5846 29.4523L41.5733 29.1856C41.5733 29.0885 41.5462 28.9822 41.5304 28.867C41.5145 28.7517 41.4942 28.6274 41.4761 28.4963C41.458 28.3653 41.4128 28.2274 41.3812 28.0805C41.2101 27.3638 40.9296 26.6777 40.5495 26.0465C40.0536 25.2052 39.3989 24.4683 38.6217 23.8769L38.294 23.6306C38.1788 23.5537 38.0567 23.4837 37.9369 23.4046C37.8172 23.3255 37.6974 23.2486 37.5663 23.1786L37.1708 22.9865L36.9697 22.8915L36.7572 22.8147L36.3301 22.6565C36.1832 22.6068 36.0318 22.5751 35.8781 22.5345C35.7293 22.4914 35.5785 22.4559 35.4261 22.4282C35.1074 22.3687 34.7849 22.3309 34.4611 22.3152C34.2961 22.3152 34.1311 22.2926 33.9639 22.2949L33.4599 22.3198C33.374 22.3198 33.2881 22.3198 33.2045 22.3356L32.9491 22.374C32.7796 22.4011 32.6079 22.4215 32.4361 22.4576C32.0909 22.5337 31.7512 22.6326 31.4191 22.7537C31.0771 22.8755 30.744 23.0213 30.4224 23.1899C30.262 23.2757 30.106 23.3774 29.9456 23.4724C29.8687 23.5221 29.7851 23.565 29.7196 23.6215L29.4936 23.7888C29.1896 24.0147 28.9005 24.2601 28.628 24.5233L28.2393 24.9504L28.1421 25.0589L28.054 25.1741L27.88 25.4001L27.7037 25.6261L27.55 25.877L27.3963 26.1279L27.3195 26.2567L27.2539 26.39C27.1681 26.5686 27.0799 26.7471 26.994 26.9279C26.9082 27.1087 26.8562 27.3031 26.7861 27.4929C26.2617 29.0562 26.2617 30.7479 26.7861 32.3112C26.8562 32.5011 26.924 32.6886 26.994 32.8762L27.2517 33.4164L27.3172 33.5497L27.3941 33.6763L27.5477 33.9294L27.7037 34.1802L27.8777 34.4062L28.054 34.6322L28.1421 34.7498L28.2393 34.856L28.628 35.2831C28.8999 35.547 29.189 35.7923 29.4936 36.0176L29.7196 36.1871C29.7942 36.2436 29.8778 36.2866 29.9456 36.3363C30.106 36.4289 30.2597 36.5306 30.4224 36.6188C30.744 36.7873 31.0771 36.9331 31.4191 37.055C31.7512 37.176 32.0909 37.2749 32.4361 37.351C32.6079 37.3872 32.7796 37.4053 32.9491 37.4346L33.2045 37.4731C33.2904 37.4844 33.374 37.4731 33.4599 37.4889L33.9639 37.5137C34.1311 37.5137 34.2984 37.5002 34.4611 37.4934C34.7849 37.4777 35.1074 37.44 35.4261 37.3804C35.5785 37.353 35.7294 37.3175 35.8781 37.2742C36.0295 37.2312 36.1809 37.1996 36.3301 37.1521L36.7572 36.9939L36.9697 36.9171L37.1708 36.8199L37.5663 36.6301C37.6974 36.5691 37.8149 36.4832 37.9369 36.4041C38.059 36.325 38.1788 36.2594 38.294 36.1781L38.624 35.9317C39.3999 35.3397 40.0538 34.6029 40.5495 33.7621C40.9292 33.1307 41.2097 32.4447 41.3812 31.7281C41.4199 31.5912 41.4516 31.4524 41.4761 31.3123C41.4942 31.179 41.5145 31.0547 41.5304 30.9394C41.5462 30.8241 41.5643 30.7134 41.5733 30.6207C41.5823 30.5281 41.5733 30.4354 41.5846 30.3563C41.5846 30.1981 41.5959 30.0783 41.5982 29.9947C41.6004 29.9111 41.5982 29.8704 41.5982 29.8704C41.5982 29.8704 41.5982 29.9134 41.5982 29.9947C41.5982 30.0761 41.5869 30.1981 41.5756 30.3541C41.5756 30.4332 41.5755 30.5213 41.5597 30.6207C41.5439 30.7202 41.5304 30.8219 41.5123 30.9371C41.4942 31.0524 41.4739 31.1631 41.4535 31.3055C41.4287 31.4453 41.3955 31.5834 41.3541 31.7191C41.178 32.4288 40.8953 33.1078 40.5156 33.7328C40.0215 34.5864 39.3642 35.3344 38.5811 35.934L38.2556 36.1781C38.1404 36.2527 38.0183 36.3227 37.9008 36.4041C37.7833 36.4854 37.6612 36.5578 37.5302 36.6188L37.1392 36.8064L36.9403 36.9013L36.7301 36.9781L36.3052 37.1318C36.1606 37.1793 36.0092 37.2109 35.8532 37.2516C35.7045 37.2941 35.5536 37.3288 35.4012 37.3555C35.0853 37.4134 34.766 37.4504 34.4453 37.4663C34.2825 37.4663 34.1198 37.4866 33.9526 37.4844L33.4531 37.4572C33.3695 37.4572 33.2859 37.4572 33.2023 37.4414L32.9491 37.403C32.7819 37.3759 32.6101 37.3555 32.4429 37.3216C32.1006 37.2458 31.7638 37.1469 31.4349 37.0256C31.098 36.9038 30.7695 36.7596 30.4518 36.5939C30.2914 36.5058 30.14 36.4063 29.9818 36.3114C29.9049 36.2617 29.8213 36.221 29.7558 36.1645L29.5298 35.9973C29.2282 35.7742 28.942 35.5311 28.6732 35.2696L28.2981 34.8492L28.2009 34.743L28.115 34.6277L27.941 34.4017L27.767 34.1757L27.6155 33.9271L27.4641 33.6763L27.3873 33.552L27.324 33.4186L27.0664 32.8875L26.863 32.327C26.3446 30.7829 26.3446 29.1117 26.863 27.5675L27.0686 27.007C27.1545 26.8307 27.2381 26.6522 27.324 26.4759L27.3895 26.3448L27.4641 26.2183L27.6155 25.9697L27.7692 25.7211L27.941 25.4951L28.115 25.2691L28.2009 25.1538L28.2981 25.0476L28.6823 24.625C28.9509 24.3641 29.2362 24.121 29.5365 23.8972L29.7625 23.7323C29.8349 23.6758 29.9185 23.6328 29.9885 23.5831C30.1467 23.4904 30.2982 23.3887 30.4586 23.3029C30.7763 23.1372 31.1047 22.9929 31.4417 22.8712C31.7706 22.7499 32.1074 22.651 32.4497 22.5751C32.6169 22.5412 32.7887 22.5209 32.9559 22.4938L33.209 22.4554C33.2926 22.4441 33.3763 22.4441 33.4599 22.4373L33.9594 22.4124C34.1266 22.4124 34.2893 22.426 34.452 22.4305C34.7728 22.4465 35.0921 22.4835 35.408 22.5412C35.5606 22.567 35.7115 22.6017 35.86 22.6452C36.0092 22.6859 36.1606 22.7175 36.312 22.765L36.7369 22.9187L36.9448 22.9955L37.146 23.0904L37.5369 23.278C37.668 23.3368 37.7833 23.4226 37.9053 23.4904C38.0274 23.5582 38.1471 23.6328 38.2624 23.7164L38.5878 23.9583C39.3602 24.5436 40.0131 25.2716 40.5111 26.103C40.8904 26.7282 41.1731 27.407 41.3496 28.1167C41.3905 28.2525 41.4237 28.3906 41.449 28.5302C41.4693 28.6636 41.4897 28.7856 41.5077 28.9009C41.5258 29.0161 41.5462 29.1269 41.5552 29.2173C41.5643 29.3077 41.5665 29.4026 41.571 29.484C41.5823 29.6399 41.5891 29.7597 41.5936 29.8433C41.5982 29.9269 41.5982 29.936 41.5982 29.936Z" fill="#263238"/>
<path d="M44.4842 34.7068C44.4842 34.9509 44.4118 35.1894 44.2762 35.3924C44.1406 35.5953 43.9479 35.7534 43.7224 35.8468C43.4969 35.9402 43.2488 35.9647 43.0095 35.9171C42.7701 35.8694 42.5502 35.7519 42.3777 35.5793C42.2051 35.4068 42.0876 35.1869 42.0399 34.9475C41.9923 34.7082 42.0168 34.4601 42.1102 34.2346C42.2036 34.0091 42.3617 33.8164 42.5646 33.6808C42.7676 33.5452 43.0061 33.4728 43.2502 33.4728C43.4123 33.4725 43.5729 33.5043 43.7228 33.5662C43.8726 33.6281 44.0088 33.719 44.1234 33.8336C44.238 33.9482 44.3289 34.0844 44.3908 34.2342C44.4527 34.3841 44.4845 34.5447 44.4842 34.7068Z" fill="white"/>
<path d="M44.4842 34.7068C44.4842 34.7068 44.4842 34.6797 44.4842 34.6277C44.4848 34.5516 44.4765 34.4758 44.4593 34.4017C44.3955 34.1223 44.2355 33.8743 44.0073 33.7011C43.8554 33.5771 43.6766 33.4904 43.4852 33.448C43.2586 33.4045 43.0245 33.4224 42.8072 33.5C42.5673 33.5869 42.3593 33.7445 42.2106 33.952C42.0493 34.171 41.9622 34.4359 41.9622 34.7079C41.9622 34.98 42.0493 35.2449 42.2106 35.4639C42.3593 35.6714 42.5673 35.829 42.8072 35.9159C43.0241 35.9957 43.2588 36.0137 43.4852 35.9679C43.7218 35.9209 43.9399 35.8069 44.1134 35.6394C44.2869 35.4719 44.4086 35.258 44.4638 35.0232C44.481 34.9491 44.4893 34.8732 44.4887 34.7972C44.4887 34.7452 44.4887 34.7181 44.4887 34.7181C44.4887 34.7181 44.4887 34.8288 44.4322 35.0164C44.3719 35.2379 44.2501 35.4378 44.0809 35.593C43.9117 35.7482 43.7021 35.8523 43.4762 35.8933C43.2655 35.9303 43.0487 35.9108 42.8479 35.8368C42.6265 35.7568 42.4343 35.6119 42.2965 35.421C42.1467 35.2172 42.0659 34.971 42.0659 34.7181C42.0659 34.4652 42.1467 34.219 42.2965 34.0152C42.435 33.825 42.6269 33.6803 42.8479 33.5994C43.0487 33.5254 43.2655 33.5059 43.4762 33.5429C43.7024 33.5841 43.9122 33.6885 44.0814 33.8441C44.2506 33.9997 44.3722 34.2001 44.4322 34.422C44.4796 34.5961 44.4751 34.7068 44.4842 34.7068Z" fill="#263238"/>
<path d="M31.514 30.5349V31.5677H30.7004V30.5236L29.6043 28.702H30.4609L31.1389 29.8456L31.8169 28.702H32.6056L31.514 30.5349Z" fill="#263238"/>
<path d="M35.1142 30.9394V31.5677H32.8181V28.702H35.0781V29.3326H33.6294V29.8162H34.9063V30.4241H33.6294V30.9507L35.1142 30.9394Z" fill="#263238"/>
<path d="M35.3628 31.3078L35.6295 30.7089C35.9139 30.8886 36.2423 30.9863 36.5787 30.9914C36.9154 30.9914 37.0465 30.8965 37.0465 30.7654C37.0465 30.3134 35.4125 30.6411 35.4125 29.5744C35.4125 29.0591 35.8329 28.641 36.6872 28.641C37.0501 28.6349 37.4086 28.7212 37.729 28.8918L37.4782 29.4953C37.2356 29.3556 36.9624 29.2779 36.6826 29.2693C36.3414 29.2693 36.2171 29.3845 36.2171 29.5269C36.2171 29.9789 37.8488 29.6376 37.8488 30.6976C37.8488 31.1993 37.4284 31.6264 36.5742 31.6264C36.1484 31.6365 35.7285 31.526 35.3628 31.3078Z" fill="#263238"/>
<path d="M83.6586 42.7893C88.1235 42.2213 91.2826 38.1413 90.7145 33.6764C90.1465 29.2115 86.0666 26.0525 81.6017 26.6205C77.1368 27.1885 73.9777 31.2684 74.5457 35.7333C75.1137 40.1982 79.1937 43.3573 83.6586 42.7893Z" fill="white"/>
<path d="M74.4788 34.7114C74.4788 34.7114 74.4788 34.6662 74.4788 34.578C74.4788 34.4899 74.4788 34.352 74.4946 34.1916L74.5059 33.9046C74.5059 33.8006 74.5353 33.6785 74.5534 33.5633C74.5715 33.448 74.5896 33.3057 74.6122 33.1633C74.6368 33.0107 74.6708 32.8597 74.7139 32.7113C74.8984 31.943 75.1994 31.2075 75.6066 30.5304C76.1393 29.6277 76.8415 28.8365 77.6745 28.2003L78.027 27.9359C78.1513 27.8545 78.2824 27.78 78.4112 27.7099C78.54 27.6398 78.6689 27.5427 78.8112 27.4839L79.2339 27.2805L79.4599 27.1765L79.6859 27.0929L80.1379 26.9234C80.2938 26.8714 80.4588 26.8375 80.6192 26.7923C80.782 26.7456 80.9473 26.7079 81.1142 26.6793C81.4561 26.6156 81.8019 26.5748 82.1493 26.5573C82.3278 26.5573 82.5041 26.5324 82.6849 26.5347L83.2273 26.5618C83.3177 26.5618 83.4081 26.5618 83.5007 26.5799L83.7742 26.6206C83.955 26.65 84.1403 26.6726 84.3256 26.7087C84.6957 26.7924 85.0603 26.8988 85.4172 27.0274C85.7842 27.1586 86.1414 27.3157 86.4862 27.4974C86.6602 27.5901 86.8275 27.6986 86.997 27.8003C87.0828 27.8545 87.171 27.8997 87.2523 27.9608L87.4919 28.1415C87.8198 28.3831 88.1308 28.6466 88.423 28.9303L88.8411 29.3823L88.9451 29.4976L89.04 29.6219L89.2276 29.8727L89.4152 30.1236L89.5824 30.3948L89.7474 30.666L89.8287 30.8016L89.8988 30.9439C89.9915 31.136 90.0841 31.3304 90.179 31.5225C90.274 31.7146 90.3259 31.927 90.405 32.1304C90.9715 33.8083 90.9715 35.6257 90.405 37.3036C90.3305 37.507 90.2581 37.7104 90.179 37.9115L89.9011 38.4901L89.831 38.6325L89.7474 38.7681L89.5824 39.0415L89.4174 39.3105L89.2276 39.5613L89.04 39.8144L88.9451 39.9388L88.8411 40.054L88.423 40.506C88.1305 40.7885 87.8203 41.0519 87.4942 41.2948L87.2523 41.4756C87.171 41.5343 87.0828 41.5818 86.9992 41.6337C86.8275 41.7354 86.6602 41.8462 86.4885 41.9389C86.1422 42.1185 85.7843 42.2748 85.4172 42.4067C85.0603 42.5376 84.6948 42.6441 84.3234 42.7253C84.1403 42.7638 83.955 42.7841 83.7719 42.8135L83.5007 42.8564C83.4081 42.8677 83.3177 42.8677 83.225 42.8722L82.6849 42.8994C82.5041 42.8994 82.3255 42.8835 82.1493 42.879C81.8018 42.8608 81.456 42.8193 81.1142 42.7547C80.947 42.7275 80.7817 42.6897 80.6192 42.6417C80.4565 42.5965 80.2938 42.5626 80.1379 42.5106L79.6859 42.3411L79.4599 42.2598L79.2339 42.1558L78.809 41.9501C78.6689 41.8846 78.5423 41.7942 78.4112 41.7241C78.2801 41.6541 78.1513 41.5705 78.027 41.4869L77.6745 41.2224C76.8403 40.5868 76.1373 39.7955 75.6043 38.8924C75.198 38.2151 74.8977 37.4796 74.7139 36.7115C74.6705 36.5631 74.6365 36.4121 74.6122 36.2595C74.5896 36.1171 74.5715 35.9837 74.5534 35.8617C74.5353 35.7397 74.515 35.6357 74.5059 35.5182C74.4969 35.4007 74.5059 35.3193 74.4946 35.2334C74.4946 35.0639 74.4833 34.9351 74.4788 34.8447C74.4743 34.7543 74.4788 34.7136 74.4788 34.7136C74.4788 34.7136 74.4788 34.7588 74.4901 34.8447C74.5014 34.9306 74.5059 35.0707 74.515 35.2312C74.515 35.317 74.5263 35.412 74.5331 35.5159C74.5398 35.6199 74.5647 35.7419 74.5828 35.8572C74.6009 35.9725 74.6235 36.1126 74.6461 36.2527C74.6687 36.3928 74.7161 36.542 74.7523 36.7047C74.9434 37.4669 75.2482 38.196 75.6563 38.8675C76.1907 39.7605 76.892 40.5424 77.7219 41.1704L78.0722 41.4304C78.1943 41.5117 78.3253 41.5863 78.4542 41.6564C78.5821 41.7383 78.7141 41.8137 78.8497 41.8824L79.27 42.0835L79.496 42.1852L79.722 42.2688L80.174 42.4338C80.33 42.4858 80.4927 42.5197 80.6531 42.5626C80.8143 42.6091 80.9781 42.646 81.1436 42.6734C81.4817 42.7364 81.8238 42.7765 82.1673 42.7931C82.3436 42.7931 82.5199 42.8157 82.6962 42.8135L83.2341 42.7841C83.3222 42.7841 83.4149 42.7841 83.503 42.7683L83.7742 42.7253C83.955 42.6959 84.1381 42.6756 84.3189 42.6372C84.6863 42.5557 85.0479 42.45 85.4014 42.3208C85.7635 42.19 86.1161 42.0345 86.4568 41.8552C86.6286 41.7626 86.7936 41.6541 86.9631 41.5546C87.0444 41.5004 87.1348 41.4552 87.2117 41.3964L87.4512 41.2179C87.7743 40.9773 88.0816 40.7161 88.371 40.4359L88.7824 39.9839L88.8863 39.8709L88.979 39.7466L89.1643 39.4981L89.3519 39.2494L89.5146 38.9828L89.6773 38.7138L89.7587 38.5805L89.8287 38.4381C89.9191 38.2483 90.0118 38.0584 90.1022 37.8663C90.1926 37.6742 90.2491 37.4663 90.3282 37.2674C90.5934 36.4401 90.7336 35.5778 90.744 34.7091C90.734 33.8409 90.593 32.9792 90.3259 32.1531L90.0999 31.5541C90.0073 31.362 89.9169 31.1722 89.8242 30.9824L89.7564 30.84L89.6751 30.7066L89.5101 30.4377L89.3474 30.171L89.162 29.9224L88.9767 29.6738L88.8841 29.5518L88.7801 29.4365L88.3688 28.9845C88.0793 28.7051 87.7721 28.4446 87.449 28.2048L87.2094 28.0263C87.1303 27.9653 87.0422 27.9201 86.9608 27.8681C86.7913 27.7664 86.6263 27.6602 86.4546 27.5653C85.7785 27.2142 85.0599 26.9521 84.3166 26.7855C84.1358 26.7471 83.9527 26.7268 83.7719 26.6952L83.503 26.6545C83.4126 26.6432 83.3222 26.6432 83.2318 26.6364L82.6939 26.6093C82.5176 26.6093 82.3414 26.6228 82.1673 26.6296C81.8229 26.645 81.48 26.6851 81.1413 26.7494C80.9754 26.7748 80.8116 26.8118 80.6509 26.8601C80.4904 26.9031 80.3277 26.937 80.1718 26.9867L79.7198 27.1539L79.4938 27.2353L79.2678 27.337L78.8474 27.5381C78.7073 27.6037 78.583 27.6941 78.4519 27.7641C78.3208 27.8342 78.1943 27.9155 78.07 27.9901L77.7197 28.2523C76.8899 28.8805 76.1887 29.6623 75.654 30.5552C75.2464 31.2262 74.9416 31.9545 74.75 32.7158C74.7139 32.874 74.6619 33.0186 74.6438 33.1678C74.6257 33.3169 74.6009 33.4413 74.5805 33.5656C74.5602 33.6899 74.5421 33.7916 74.5308 33.9046C74.5195 34.0176 74.5172 34.1057 74.5127 34.1893L74.4879 34.5758C74.4856 34.6662 74.4788 34.7114 74.4788 34.7114Z" fill="#263238"/>
<path d="M71.3804 39.8325C71.38 40.0951 71.4575 40.3519 71.6031 40.5704C71.7487 40.7889 71.9558 40.9593 72.1983 41.0599C72.4408 41.1606 72.7078 41.1871 72.9653 41.136C73.2229 41.0849 73.4594 40.9585 73.6451 40.7728C73.8308 40.5871 73.9572 40.3505 74.0083 40.093C74.0594 39.8354 74.0329 39.5685 73.9323 39.326C73.8316 39.0835 73.6612 38.8764 73.4427 38.7308C73.2242 38.5852 72.9674 38.5077 72.7048 38.5081C72.3537 38.5087 72.0172 38.6484 71.769 38.8967C71.5208 39.1449 71.381 39.4814 71.3804 39.8325Z" fill="white"/>
<path d="M71.3804 39.8325C71.377 39.8047 71.377 39.7766 71.3804 39.7489C71.3795 39.6667 71.3886 39.5848 71.4075 39.5048C71.4747 39.2058 71.6441 38.9396 71.8866 38.7522C72.0538 38.6213 72.2498 38.5322 72.4584 38.4923C72.6835 38.4469 72.9163 38.4588 73.1355 38.5271C73.3547 38.5954 73.5532 38.7177 73.7127 38.8829C73.8722 39.0481 73.9875 39.2507 74.048 39.4722C74.1085 39.6937 74.1123 39.9268 74.0589 40.1501C74.0056 40.3734 73.8969 40.5797 73.7429 40.7499C73.5889 40.9202 73.3944 41.0489 73.1775 41.1242C72.9607 41.1995 72.7283 41.219 72.5019 41.1809C72.2755 41.1427 72.0624 41.0482 71.8821 40.906C71.6392 40.719 71.4696 40.4527 71.403 40.1534C71.3841 40.0742 71.375 39.993 71.3759 39.9116C71.3724 39.8831 71.3724 39.8542 71.3759 39.8257C71.3872 39.8257 71.3759 39.9432 71.4369 40.1444C71.5148 40.4275 71.685 40.6764 71.9205 40.8518C72.0926 40.9799 72.2938 41.0631 72.5061 41.0939C72.7184 41.1247 72.9351 41.102 73.1364 41.028C73.3749 40.9407 73.5814 40.7831 73.7285 40.576C73.89 40.3575 73.9772 40.0929 73.9772 39.8212C73.9772 39.5495 73.89 39.2849 73.7285 39.0664C73.5814 38.8593 73.3749 38.7017 73.1364 38.6144C72.9195 38.5353 72.6856 38.515 72.4584 38.5556C72.2626 38.5881 72.077 38.6655 71.916 38.7816C71.6805 38.9569 71.5103 39.2059 71.4324 39.489C71.3872 39.715 71.3917 39.8325 71.3804 39.8325Z" fill="#263238"/>
<path d="M82.251 32.874V36.3182H81.4487L79.9277 34.4831V36.3182H78.974V32.874H79.7763L81.2973 34.7091V32.874H82.251Z" fill="#263238"/>
<path d="M82.764 34.5961C82.764 33.5633 83.5754 32.8039 84.6783 32.8039C85.7811 32.8039 86.5925 33.5633 86.5925 34.5961C86.5925 35.6289 85.7811 36.3883 84.6783 36.3883C83.5754 36.3883 82.764 35.6289 82.764 34.5961ZM85.6094 34.5961C85.5988 34.4146 85.5353 34.2402 85.4268 34.0944C85.3182 33.9486 85.1694 33.8377 84.9986 33.7755C84.8278 33.7132 84.6425 33.7024 84.4656 33.7442C84.2887 33.786 84.1279 33.8787 84.0031 34.0108C83.8782 34.1429 83.7948 34.3087 83.763 34.4877C83.7313 34.6667 83.7526 34.851 83.8244 35.018C83.8962 35.1851 84.0153 35.3274 84.167 35.4275C84.3188 35.5276 84.4965 35.5811 84.6783 35.5814C84.8056 35.583 84.9319 35.5581 85.0492 35.5084C85.1665 35.4588 85.2722 35.3853 85.3597 35.2927C85.4472 35.2001 85.5145 35.0905 85.5575 34.9706C85.6005 34.8506 85.6181 34.7231 85.6094 34.5961Z" fill="#263238"/>
<path d="M70.6804 23.2147C74.2949 21.7924 76.0698 17.7036 74.6447 14.0821C73.2196 10.4607 69.1342 8.6779 65.5197 10.1002C61.9052 11.5226 60.1303 15.6114 61.5554 19.2329C62.9805 22.8543 67.0659 24.6371 70.6804 23.2147Z" fill="white"/>
<path d="M65.2942 23.1108L65.4004 23.1537L65.7123 23.2758L65.9383 23.3662C66.0242 23.3933 66.1214 23.4159 66.2253 23.4453L66.5621 23.5357C66.691 23.5676 66.8215 23.5925 66.9531 23.6103C67.6249 23.7284 68.3108 23.7428 68.9871 23.6532C69.8867 23.5455 70.757 23.2646 71.5499 22.826L71.8821 22.6385C71.9883 22.5684 72.0946 22.4893 72.2008 22.4125C72.307 22.3356 72.4268 22.2656 72.5217 22.1865L72.8313 21.9198L73.1161 21.6508L73.1319 21.6328C73.2291 21.5333 73.3263 21.4294 73.4234 21.3277C73.5206 21.226 73.602 21.1017 73.6924 20.9909C73.7858 20.872 73.8719 20.7475 73.95 20.618C74.1179 20.3693 74.2689 20.1095 74.402 19.8406C74.4676 19.7027 74.5444 19.5671 74.6032 19.4247L74.8292 18.8236L74.854 18.758L74.915 18.532C74.9535 18.3761 75.0009 18.2224 75.0348 18.0642C75.0971 17.7418 75.1386 17.4157 75.1591 17.0879C75.1817 16.7523 75.1817 16.4155 75.1591 16.0799C75.1456 15.9104 75.1162 15.7409 75.0936 15.5714C75.08 15.4856 75.0755 15.3997 75.0552 15.3138L74.9941 15.0607C74.9382 14.7859 74.8627 14.5156 74.7681 14.2516C74.7162 14.1205 74.6619 13.9894 74.6099 13.8561L74.402 13.4403L74.3342 13.3227L74.2009 13.0967L74.0653 12.8707L73.9093 12.6447L73.7511 12.4187L73.672 12.3057L73.5816 12.1995L72.8675 11.4447L72.8155 11.395C71.6795 10.3705 70.2399 9.74514 68.7159 9.61407H68.6503H67.6039H67.4661L67.3282 9.63441L67.057 9.67057L66.7858 9.70899L66.5214 9.77227L66.2592 9.83555L66.1282 9.86719L65.6965 10.0141L65.2987 10.17C65.0398 10.279 64.7884 10.4051 64.5462 10.5475L64.3202 10.6785C64.2456 10.7215 64.1778 10.7757 64.1077 10.8232C63.9676 10.9249 63.8252 11.0198 63.6896 11.1238C63.1735 11.5442 62.7139 12.0296 62.3223 12.5679C62.2297 12.699 62.1483 12.8391 62.0624 12.9747L61.9359 13.1758C61.924 13.1939 61.9134 13.2128 61.9042 13.2323C61.8093 13.4267 61.7144 13.6165 61.6195 13.8064C61.5562 13.9488 61.5087 14.0957 61.4545 14.238C61.348 14.5194 61.2611 14.8079 61.1946 15.1014C61.1585 15.2434 61.1314 15.3876 61.1132 15.533C61.0929 15.6754 61.0635 15.8178 61.0522 15.9602C61.0409 16.1025 61.0341 16.2449 61.0273 16.385V16.7964C61.0273 16.9342 61.0386 17.0698 61.0432 17.2054C61.0477 17.341 61.0771 17.4698 61.0906 17.6009C61.1042 17.732 61.1245 17.8586 61.1471 17.9851L61.2353 18.3558C61.4516 19.2351 61.8353 20.0645 62.3653 20.7988C62.7625 21.3533 63.2418 21.8441 63.7868 22.2543C63.8886 22.3357 63.995 22.4111 64.1055 22.4803L64.4015 22.6656C64.4942 22.7198 64.5778 22.7763 64.6569 22.8193L64.8829 22.9277L65.1857 23.0724L65.2897 23.1198L65.1903 23.0656L64.8919 22.9119L64.6659 22.8012C64.5868 22.756 64.5032 22.6995 64.4128 22.643L64.119 22.4577C64.0106 22.3877 63.9057 22.3122 63.8049 22.2317C63.2724 21.8108 62.8069 21.3117 62.424 20.7514C61.8941 20.0229 61.5103 19.1986 61.294 18.3241C61.2646 18.2021 61.2353 18.08 61.2081 17.9557C61.181 17.8314 61.172 17.7026 61.1539 17.5738C61.1319 17.4436 61.1168 17.3123 61.1087 17.1806C61.1087 17.0495 61.0974 16.9139 61.0929 16.7783C61.0884 16.6427 61.0929 16.4935 61.0929 16.3873V16.367L61.12 15.9489C61.1313 15.8065 61.1607 15.6686 61.181 15.5262C61.2003 15.3825 61.2274 15.2399 61.2624 15.0991C61.3323 14.8063 61.4222 14.5186 61.5313 14.238C61.5856 14.0979 61.633 13.951 61.6963 13.8132C61.789 13.6233 61.8839 13.4335 61.9788 13.2414C61.9788 13.2233 61.9991 13.2052 62.0104 13.1871C62.0511 13.1216 62.0941 13.0561 62.1347 12.9883C62.2206 12.8549 62.302 12.7171 62.3946 12.586C62.5852 12.324 62.7929 12.0749 63.0161 11.8402C63.2443 11.5975 63.4889 11.371 63.7484 11.1622C63.8817 11.0582 64.0241 10.9656 64.162 10.8661C64.232 10.8187 64.2976 10.7622 64.3721 10.7215L64.5981 10.5927C64.8999 10.4218 65.2124 10.2708 65.5338 10.1407L66.0355 9.97115L66.1621 9.92821L66.2909 9.89657L66.5508 9.83555L66.8129 9.77227L67.0819 9.73611L67.3486 9.69769L67.4842 9.67961H67.6198H68.6594H68.7204C70.2263 9.8089 71.6486 10.4272 72.7703 11.4402L72.82 11.4876L73.5274 12.2357L73.6178 12.3396L73.6946 12.4504L73.8528 12.6764L74.0065 12.9024L74.1399 13.1284L74.2732 13.3544L74.3387 13.4696L74.393 13.5917C74.4676 13.7521 74.5399 13.9126 74.619 14.0731C74.7415 14.3983 74.8426 14.7313 74.9218 15.0697L74.9806 15.3206C75.0009 15.4042 75.0054 15.4901 75.019 15.5737C75.0416 15.7432 75.071 15.9104 75.0845 16.0777C75.1082 16.4095 75.1082 16.7425 75.0845 17.0743C75.0655 17.3983 75.0255 17.7206 74.9648 18.0394C74.9309 18.1976 74.8857 18.349 74.8472 18.4914L74.7862 18.7174C74.7815 18.7373 74.7755 18.757 74.7681 18.7761L74.5421 19.3728C74.4834 19.5151 74.4088 19.6485 74.3455 19.7841C74.2119 20.0513 74.0609 20.3095 73.8935 20.557C73.8148 20.6789 73.7288 20.7959 73.6359 20.9073C73.5477 21.0203 73.4641 21.1333 73.3715 21.2418L73.0822 21.5469L72.9398 21.696L72.9262 21.7096L72.4742 22.0961C72.3748 22.1842 72.2595 22.252 72.1556 22.3221C72.0516 22.3921 71.9454 22.4757 71.8392 22.5481L71.5115 22.7356C70.7314 23.1872 69.8709 23.4827 68.978 23.6057C68.3062 23.6991 67.6241 23.6892 66.9553 23.5764C66.8246 23.561 66.6948 23.5384 66.5666 23.5086L66.2299 23.4204C66.1259 23.3933 66.0287 23.373 65.9428 23.3458L65.7168 23.26L65.4004 23.147L65.2942 23.1108Z" fill="#263238"/>
<path d="M62.485 26.1708C62.2403 26.1264 62.0167 26.0036 61.848 25.821C61.6792 25.6384 61.5744 25.4058 61.5494 25.1584C61.5245 24.911 61.5807 24.6621 61.7096 24.4495C61.8384 24.2368 62.033 24.0718 62.2639 23.9795C62.4948 23.8871 62.7495 23.8724 62.9895 23.9375C63.2295 24.0026 63.4418 24.144 63.5943 24.3404C63.7469 24.5368 63.8314 24.7775 63.8352 25.0261C63.8389 25.2748 63.7616 25.5179 63.615 25.7188C63.488 25.8925 63.3147 26.0269 63.1149 26.1068C62.9151 26.1868 62.6968 26.2089 62.485 26.1708Z" fill="white"/>
<path d="M62.2319 26.0917C62.2319 26.0917 62.2545 26.1075 62.2975 26.1256C62.3625 26.1543 62.4308 26.1748 62.5009 26.1866C62.7609 26.2372 63.0305 26.1948 63.2625 26.0668C63.4354 25.9721 63.5816 25.8352 63.6875 25.6688C63.7934 25.5025 63.8555 25.3121 63.8682 25.1154C63.8873 24.8787 63.8328 24.6419 63.7122 24.4374C63.5851 24.2195 63.3911 24.0484 63.1591 23.9494C62.927 23.8505 62.6693 23.829 62.424 23.8882C62.2051 23.9382 62.0051 24.05 61.8476 24.2102C61.6902 24.3704 61.582 24.5724 61.5359 24.7922C61.4973 24.9714 61.5012 25.1571 61.5472 25.3346C61.612 25.591 61.7648 25.8165 61.9788 25.9719C62.0354 26.0145 62.0968 26.0502 62.1619 26.0781C62.2048 26.0985 62.2297 26.1075 62.2297 26.103C62.2297 26.0985 62.1393 26.0578 62.0037 25.947C61.8057 25.7878 61.6671 25.5664 61.6104 25.3188C61.5697 25.1509 61.5697 24.9758 61.6104 24.808C61.655 24.615 61.7511 24.4377 61.8884 24.295C62.0383 24.1356 62.2329 24.0253 62.4466 23.9786C62.6737 23.9284 62.9108 23.9505 63.1246 24.0419C63.3393 24.1342 63.519 24.2925 63.6377 24.4939C63.7502 24.6816 63.803 24.8992 63.7891 25.1176C63.7773 25.3025 63.7202 25.4817 63.6228 25.6393C63.5255 25.797 63.3909 25.9282 63.2309 26.0216C63.0103 26.1472 62.7545 26.1964 62.5031 26.1617C62.3291 26.1278 62.2365 26.0849 62.2319 26.0917Z" fill="#263238"/>
<path d="M66.1055 15.472H67.17C67.17 15.3511 67.1941 15.2315 67.2411 15.1202C67.2881 15.0088 67.3569 14.9081 67.4435 14.8238C67.5301 14.7395 67.6327 14.6734 67.7453 14.6295C67.8578 14.5856 67.9781 14.5646 68.0989 14.568C68.2781 14.561 68.455 14.6102 68.6049 14.7087C68.7548 14.8071 68.8702 14.9499 68.9351 15.1171C68.9912 15.2569 69.0135 15.408 69.0001 15.558C68.9867 15.708 68.9381 15.8528 68.8582 15.9805C68.6774 16.2788 68.2819 16.55 67.5632 16.4325V18.8168H68.6164V17.402C69.0489 17.2753 69.4277 17.0101 69.6948 16.6471C69.9618 16.2841 70.1022 15.8434 70.0944 15.3929C70.0944 13.8357 68.6978 13.4741 68.0989 13.4741C67.6423 13.4832 66.0852 13.5916 66.1055 15.472Z" fill="#263238"/>
<path d="M68.63 19.3117H67.561V20.3106H68.63V19.3117Z" fill="#263238"/>
<path d="M29.2246 78.9282C29.2246 78.9282 27.2946 77.1202 26.5511 76.6343C25.8075 76.1484 24.1442 75.4908 23.5227 75.4297C22.9012 75.3687 19.9925 76.2117 19.9925 76.2117C19.9925 76.2117 15.6985 75.832 14.9776 76.3337C14.2567 76.8355 14.3154 77.3553 14.6183 77.7372C14.9211 78.1191 16.0805 77.9971 17.3642 78.0174C18.6478 78.0378 18.9891 78.1575 18.9891 78.1575L17.1246 80.1441L21.97 81.4888L24.908 81.378L25.9702 82.716L29.2246 78.9282Z" fill="#FFBF9D"/>
<path d="M14.512 74.4421L14.6295 78.7181L14.8352 79.2492L16.946 81.8233L22.0943 81.482L17.9924 79.8842L16.5347 78.7768L15.9697 76.9485C15.9697 76.9485 16.1415 74.128 14.512 74.4421Z" fill="#FFBF9D"/>
<path d="M14.8691 79.3486H13.608C13.608 79.3486 11.9718 76.6569 10.4757 77.5722L10.8192 78.1033C10.8192 78.1033 10.1412 77.7982 9.71631 78.3655L13.8431 81.9815H14.0329L18.4286 81.699L14.8691 79.3486Z" fill="#FFBF9D"/>
<path d="M15.6172 80.1667C15.4993 80.178 15.3808 80.1825 15.2624 80.1803C14.964 80.1832 14.6688 80.2422 14.3923 80.3543L14.3516 80.3746L14.3245 80.3362C14.1956 80.1554 14.0397 79.9633 13.8725 79.7622C13.5402 79.3486 13.2374 78.9757 12.9843 78.6638C12.8547 78.5178 12.7376 78.3614 12.634 78.196C12.7884 78.3186 12.9286 78.4581 13.0521 78.6118C13.2939 78.8808 13.6216 79.2582 13.9696 79.6898C14.1324 79.8932 14.286 80.0853 14.4216 80.2774L14.3516 80.2594C14.6428 80.1435 14.9565 80.0948 15.2691 80.117C15.3873 80.1106 15.5055 80.1275 15.6172 80.1667Z" fill="#FF9A6C"/>
<path d="M24.5351 77.6785C24.0371 77.8477 23.5522 78.0532 23.0842 78.2932C22.6381 78.5721 22.2135 78.8841 21.8141 79.2266C21.8969 79.0939 21.9998 78.975 22.1192 78.874C22.3908 78.6109 22.6946 78.3831 23.0232 78.196C23.3527 78.0086 23.7041 77.8628 24.0696 77.7621C24.2191 77.7089 24.3764 77.6807 24.5351 77.6785Z" fill="#FF9A6C"/>
<path d="M20.4219 76.571C20.2439 76.826 20.0467 77.067 19.8321 77.292C19.6476 77.5434 19.4435 77.78 19.2219 77.9994C19.3488 77.7107 19.5247 77.4462 19.7417 77.2174C19.9297 76.9645 20.1598 76.7459 20.4219 76.571Z" fill="#FF9A6C"/>
<path d="M16.1234 80.7634C16.0881 80.734 16.0556 80.7015 16.0262 80.6662L15.7595 80.3701L15.346 79.8955L15.0883 79.5995C14.9866 79.4904 14.8929 79.3741 14.8081 79.2514C14.6173 78.9605 14.5145 78.6207 14.512 78.2728C14.512 77.909 14.4962 77.5203 14.4894 77.1112C14.4759 76.2908 14.46 75.3891 14.4442 74.4422V74.3902H14.4917L14.6295 74.3721C14.7814 74.3541 14.9354 74.3713 15.0796 74.4222C15.2238 74.4732 15.3543 74.5565 15.4612 74.6659C15.6527 74.8797 15.7919 75.135 15.868 75.4117C16.0006 75.9141 16.0524 76.4343 16.0217 76.953V76.9349C16.2319 77.6265 16.4172 78.2457 16.5754 78.7655L16.5596 78.7452L17.6195 79.5746L17.902 79.8006C17.9359 79.825 17.967 79.853 17.9947 79.8842C17.9947 79.8842 17.9563 79.8661 17.8885 79.8187L17.5947 79.6085L16.5121 78.8085V78.7949C16.3494 78.2774 16.155 77.6649 15.9358 76.9711V76.953C15.961 76.4467 15.9069 75.9396 15.7754 75.4501C15.7085 75.19 15.5816 74.9493 15.4047 74.7472C15.3096 74.6504 15.1934 74.5768 15.0653 74.5321C14.9371 74.4875 14.8004 74.4729 14.6657 74.4896L14.5414 74.5054L14.5889 74.4467C14.6024 75.3936 14.6137 76.2953 14.6228 77.1157C14.6318 77.9361 14.5301 78.6977 14.9007 79.2153C14.9746 79.3327 15.0562 79.4452 15.1448 79.552L15.3957 79.8548C15.5494 80.0402 15.6827 80.2029 15.7934 80.3407L16.042 80.6504C16.0737 80.6846 16.101 80.7225 16.1234 80.7634Z" fill="#FF9A6C"/>
<path d="M14.0419 81.9837C13.9617 81.9913 13.8815 81.9696 13.8159 81.9227C13.6387 81.8154 13.4761 81.6855 13.3323 81.5362C12.862 81.0488 12.4298 80.5259 12.0396 79.9723C11.574 79.326 11.183 78.7338 10.896 78.2977C10.7581 78.0717 10.6497 77.8999 10.5773 77.7733C10.5334 77.7119 10.4991 77.644 10.4756 77.5722C10.5293 77.6251 10.5764 77.6843 10.6158 77.7485L10.9661 78.2502C11.2621 78.6773 11.6667 79.2649 12.1322 79.9023C12.5201 80.4535 12.9397 80.9817 13.3888 81.4843C13.5243 81.6352 13.6758 81.7708 13.8408 81.8888C13.9049 81.9264 13.9722 81.9581 14.0419 81.9837Z" fill="#FF9A6C"/>
<path d="M21.5519 79.2243L19.2806 79.0706L18.6026 77.2106L18.4783 75.9586C18.4518 75.6622 18.3153 75.3866 18.0957 75.1858C17.8761 74.985 17.5894 74.8737 17.2918 74.8738H17.2692L17.3958 77.9406L17.8636 79.8458L19.71 80.9351H21.97L21.5519 79.2243Z" fill="#FFBF9D"/>
<path d="M21.5519 79.2243L19.2806 79.0706L18.6026 77.2106L18.4783 75.9586C18.4518 75.6622 18.3153 75.3866 18.0957 75.1858C17.8761 74.985 17.5894 74.8737 17.2918 74.8738H17.2692L17.3958 77.9406L17.8636 79.8458L19.71 80.9351" fill="#FFBF9D"/>
<path d="M19.71 80.9351C19.6637 80.9173 19.619 80.8954 19.5767 80.8695L19.206 80.6639L17.85 79.8819H17.8342V79.8661C17.6963 79.3192 17.5359 78.6728 17.3573 77.9632V77.9519C17.3167 77.0298 17.2715 75.9879 17.224 74.8851V74.8263H17.2828C17.3031 74.8263 17.328 74.8263 17.3506 74.8263C17.6237 74.836 17.8861 74.9352 18.0973 75.1088C18.3085 75.2824 18.4566 75.5206 18.519 75.7868C18.5456 75.9096 18.563 76.0343 18.571 76.1597L18.6049 76.5213C18.6297 76.7473 18.6501 76.9914 18.6727 77.2151V77.2016C18.9213 77.8954 19.145 78.5237 19.3507 79.0683L19.3122 79.0389L20.9733 79.17L21.4253 79.213C21.4779 79.2154 21.5302 79.223 21.5813 79.2356C21.5287 79.241 21.4757 79.241 21.4231 79.2356L20.9711 79.2152L19.31 79.1226H19.258V79.0977C19.0569 78.5553 18.8263 77.9293 18.58 77.24V77.2264C18.5574 77.0004 18.5325 76.7744 18.5077 76.5326C18.4964 76.4128 18.4828 76.293 18.4715 76.171C18.4633 76.051 18.4467 75.9316 18.4218 75.8139C18.365 75.5727 18.2304 75.3569 18.0389 75.1997C17.8474 75.0425 17.6095 74.9526 17.3619 74.9438H17.2692L17.3257 74.8828C17.3686 75.9834 17.4116 77.0275 17.4477 77.9496C17.6195 78.6615 17.7732 79.3056 17.8997 79.8571L17.8794 79.8299L19.2218 80.6435L19.5834 80.8695C19.6283 80.8858 19.6709 80.9078 19.71 80.9351Z" fill="#FF9A6C"/>
<path d="M70.2029 43.0349C68.2571 35.6153 66.4604 26.9889 55.6101 27.7573C55.6101 27.7573 48.925 29.0432 45.752 33.9768C43.883 36.8787 42.2648 49.39 41.9439 59.2707C41.9303 59.673 42.0976 62.4777 42.0863 62.8709L70.8018 65.262H75.984C75.984 65.262 75.6608 60.0211 74.1014 54.9361C72.5759 49.9934 70.8922 45.652 70.2029 43.0349Z" fill="#263238"/>
<path d="M54.1682 30.5845L54.8462 29.9359L62.1799 32.892C62.6919 32.9206 63.1745 33.1399 63.5326 33.5069C63.8907 33.8738 64.0983 34.3616 64.1145 34.874L64.049 58.7712C64.049 60.3917 63.7348 61.7951 62.7562 63.0856L61.7257 64.4416C59.3775 67.5423 54.5457 67.2869 52.6857 63.8721C52.5737 63.6775 52.4871 63.4694 52.428 63.2528C52.3813 63.0772 52.3443 62.8992 52.3173 62.7195C52.0913 60.7962 52.0913 59.1283 52.0913 59.1283C51.9602 57.0175 51.9173 56.1519 51.9173 56.1723C51.9173 56.1926 47.4244 55.6547 46.2108 49.8895C45.6074 47.0215 45.7204 43.0756 45.8899 39.1929C46.1204 33.8254 49.8494 30.5778 54.1682 30.5845Z" fill="#FFBF9D"/>
<path d="M56.0554 43.0326C56.0636 43.2269 56.1473 43.4102 56.2887 43.5436C56.4302 43.677 56.6181 43.7499 56.8125 43.7468C56.9076 43.7498 57.0025 43.7337 57.0913 43.6994C57.1802 43.6652 57.2612 43.6134 57.3297 43.5472C57.3982 43.4811 57.4527 43.4018 57.49 43.3142C57.5273 43.2266 57.5467 43.1324 57.547 43.0372C57.5388 42.8431 57.4554 42.6599 57.3145 42.5262C57.1737 42.3925 56.9863 42.3188 56.7921 42.3207C56.6966 42.3177 56.6015 42.3339 56.5124 42.3683C56.4233 42.4027 56.342 42.4546 56.2733 42.521C56.2046 42.5873 56.1499 42.6668 56.1125 42.7547C56.075 42.8426 56.0556 42.9371 56.0554 43.0326Z" fill="#263238"/>
<path d="M48.3984 43.2315C48.4055 43.426 48.4885 43.6099 48.6296 43.7438C48.7707 43.8778 48.9587 43.9511 49.1533 43.948C49.2485 43.9507 49.3433 43.9344 49.4321 43.9C49.521 43.8656 49.602 43.8139 49.6706 43.7478C49.7392 43.6818 49.794 43.6027 49.8317 43.5152C49.8693 43.4277 49.8892 43.3336 49.89 43.2383C49.8824 43.0437 49.7989 42.8598 49.6574 42.7259C49.5159 42.592 49.3277 42.5188 49.1329 42.5219C49.0378 42.5189 48.9429 42.535 48.8541 42.5693C48.7652 42.6035 48.6842 42.6553 48.6157 42.7215C48.5472 42.7876 48.4927 42.8669 48.4554 42.9545C48.418 43.0421 48.3987 43.1363 48.3984 43.2315Z" fill="#263238"/>
<path d="M46.6537 40.7342C46.7509 40.8269 47.2933 40.3794 48.0956 40.3432C48.8979 40.3071 49.5059 40.6755 49.5895 40.5692C49.6302 40.524 49.5262 40.3432 49.2618 40.1783C48.9017 39.9558 48.482 39.8493 48.0595 39.8732C47.6424 39.8918 47.2423 40.0439 46.9182 40.3071C46.6809 40.5127 46.604 40.6935 46.6537 40.7342Z" fill="#263238"/>
<path d="M54.609 40.454C54.7152 40.5354 55.2124 40.0359 56.0056 39.9161C56.7989 39.7963 57.443 40.1037 57.5131 39.993C57.5492 39.9432 57.4294 39.7828 57.1469 39.6381C56.7668 39.4539 56.3392 39.3908 55.922 39.4573C55.5084 39.5198 55.1254 39.7121 54.8282 40.0065C54.6157 40.228 54.5592 40.4246 54.609 40.454Z" fill="#263238"/>
<path d="M51.9919 46.6554C51.9919 46.6102 51.4902 46.5492 50.6766 46.4859C50.4709 46.4746 50.2743 46.4452 50.2246 46.3074C50.1958 46.0964 50.2329 45.8817 50.3308 45.6926C50.498 45.1864 50.6743 44.6576 50.8574 44.1106C51.5873 41.8506 52.1049 39.9929 52.0145 39.9635C51.9241 39.9342 51.2574 41.7467 50.5274 44.0089C50.3511 44.5672 50.1839 45.0983 50.0257 45.6068C49.9601 45.8441 49.8404 46.1153 49.9601 46.4158C49.9931 46.4866 50.0418 46.5488 50.1025 46.5978C50.1632 46.6467 50.2344 46.6811 50.3104 46.6983C50.4255 46.7232 50.5431 46.7338 50.6607 46.73C51.4856 46.7232 51.9896 46.7029 51.9919 46.6554Z" fill="#263238"/>
<path d="M51.9128 56.1768C54.6534 56.0823 57.3137 55.2279 59.5968 53.7089C59.5968 53.7089 57.843 57.8311 51.9987 57.5802L51.9128 56.1768Z" fill="#FF9A6C"/>
<path d="M54.4982 48.2872C54.381 48.1524 54.2376 48.0429 54.0768 47.9652C53.9159 47.8875 53.741 47.8433 53.5626 47.8352C53.0586 47.8058 52.7038 47.8691 52.4326 48.2668C52.3797 48.3651 52.3474 48.473 52.3377 48.5842C52.328 48.6953 52.3411 48.8073 52.3761 48.9132C52.4348 49.0058 52.3919 49.0081 52.4823 49.0736C52.8101 49.3033 53.1805 49.4654 53.5716 49.5505C53.9603 49.6386 54.4078 49.5505 54.609 49.2318C54.6884 49.0817 54.7203 48.911 54.7005 48.7423C54.6807 48.5736 54.6102 48.4149 54.4982 48.2872Z" fill="#FF9A6C"/>
<path d="M54.4169 36.7769C54.5208 36.9803 55.2101 36.7769 56.0599 36.7543C56.9096 36.7317 57.617 36.8899 57.6984 36.6798C57.7345 36.5803 57.5854 36.395 57.2825 36.2278C56.8917 36.0243 56.455 35.9255 56.0147 35.9407C55.5796 35.9496 55.1546 36.0736 54.783 36.3001C54.4982 36.4854 54.3717 36.6775 54.4169 36.7769Z" fill="#263238"/>
<path d="M46.769 39.2833C46.9182 39.4573 47.4628 39.2403 48.125 39.1997C48.7872 39.159 49.3567 39.2584 49.481 39.0618C49.533 38.9669 49.4358 38.7883 49.1804 38.6279C48.8414 38.4338 48.4506 38.3494 48.0617 38.3861C47.6717 38.4114 47.2994 38.5584 46.9973 38.8064C46.769 39.0053 46.7012 39.1974 46.769 39.2833Z" fill="#263238"/>
<path d="M63.9676 45.0734C63.9676 45.0734 60.8804 45.8192 56.5096 36.3837C55.018 33.1723 52.1229 29.936 52.1229 29.936L54.8349 29.545C54.8349 29.545 62.937 31.8276 63.0726 31.9293C63.2082 32.031 65.1179 36.1193 65.1179 36.1193L63.9676 45.0734Z" fill="#263238"/>
<path d="M62.9551 44.696C62.9348 44.2621 63.3845 43.2157 63.8072 43.1276C64.9372 42.9016 67.0028 42.8812 67.1678 45.7808C67.3938 49.7426 63.3687 49.1505 63.3552 49.0375C63.3416 48.9245 63.0275 46.1899 62.9551 44.696Z" fill="#FFBF9D"/>
<path d="M64.4807 47.46C64.4965 47.4464 64.5507 47.5052 64.6705 47.5526C64.8391 47.6132 65.0247 47.6059 65.188 47.5323C65.5971 47.356 65.9112 46.6712 65.8909 45.9503C65.8807 45.6098 65.7958 45.2758 65.6423 44.9717C65.5981 44.8502 65.525 44.7412 65.4293 44.6542C65.3337 44.5672 65.2183 44.5048 65.0931 44.4723C65.0124 44.4556 64.9285 44.4678 64.8558 44.5066C64.7832 44.5454 64.7264 44.6084 64.6953 44.6847C64.6479 44.7977 64.6795 44.8768 64.6569 44.8836C64.6343 44.8904 64.5688 44.8226 64.5914 44.6576C64.6077 44.5579 64.658 44.4668 64.7338 44.3999C64.7851 44.3557 64.8447 44.3222 64.9091 44.3012C64.9735 44.2803 65.0414 44.2724 65.1089 44.2779C65.2735 44.3004 65.4296 44.3647 65.5622 44.4649C65.6948 44.565 65.7994 44.6975 65.866 44.8497C66.0532 45.1838 66.1563 45.5584 66.1666 45.9413C66.187 46.7413 65.8208 47.512 65.2626 47.7086C65.158 47.7455 65.0465 47.7586 64.9363 47.7469C64.826 47.7351 64.7197 47.6989 64.6253 47.6408C64.4919 47.5639 64.4581 47.4758 64.4807 47.46Z" fill="#FF9A6C"/>
<path d="M55.009 48.4476C54.9977 48.5493 54.3197 48.5335 53.5174 48.6894C52.7151 48.8453 52.0868 49.0962 52.0371 49.0081C51.9874 48.9199 52.5817 48.5041 53.4518 48.3436C54.3219 48.1832 55.0271 48.364 55.009 48.4476Z" fill="#263238"/>
<path d="M85.9709 79.1497C85.9709 79.1497 89.2886 76.3089 90.2514 76.232C91.2141 76.1552 93.7408 76.6275 93.7408 76.6275C93.7408 76.6275 95.3386 76.6411 96.1319 76.5416C96.9601 76.41 97.8066 76.4516 98.6179 76.6637C98.8575 76.736 99.1581 77.3304 98.4529 77.7372C98.1546 77.9089 95.2528 78.1056 95.2528 78.1056L102.512 80.178L101.569 80.9554C101.442 81.0611 101.283 81.1208 101.117 81.1249L90.674 81.4956L90.1949 82.664L85.9709 79.1497Z" fill="#FFBF9D"/>
<path d="M93.8945 79.1519H97.2845C97.2845 79.1519 98.4733 77.5699 98.9027 76.9168C99.2801 76.3405 99.7321 76.171 100.128 76.3066C100.231 76.3442 100.317 76.4181 100.369 76.5145C100.407 76.5838 100.427 76.6615 100.427 76.7405C100.427 76.8195 100.407 76.8972 100.369 76.9665L98.8778 79.7486L99.6598 79.4864C99.6598 79.4864 101.224 77.9541 101.529 77.5993C101.834 77.2445 102.946 75.7529 103.931 76.84L102.575 78.3587L103.931 77.3959C103.931 77.3959 105.021 76.4603 105.601 77.5745L101.533 81.0006" fill="#FFBF9D"/>
<path d="M90.3644 77.744C90.4076 77.723 90.4531 77.707 90.5 77.6965C90.6314 77.6523 90.7669 77.6213 90.9045 77.6039C91.4169 77.5353 91.9382 77.5895 92.4255 77.7621C92.766 77.8797 93.0938 78.0311 93.4041 78.2141C93.5713 78.3135 93.7408 78.422 93.9126 78.5418L94.1702 78.7248C94.2516 78.7836 94.3533 78.8604 94.4188 78.8966C95.2776 78.9621 96.2607 79.0209 97.289 79.0932L97.2393 79.1136C97.558 78.7361 97.8698 78.3248 98.1727 77.8977C98.2925 77.7304 98.3987 77.5609 98.5139 77.3937C98.6292 77.2265 98.7264 77.0524 98.8484 76.8942C98.9648 76.73 99.0981 76.5785 99.2462 76.4422C99.3216 76.3766 99.4043 76.3198 99.4925 76.2727C99.587 76.2183 99.6957 76.1939 99.8044 76.2027H99.7841C99.8774 76.187 99.973 76.1903 100.065 76.2124C100.157 76.2346 100.244 76.2751 100.32 76.3315C100.387 76.3958 100.439 76.4752 100.47 76.5632C100.501 76.6512 100.51 76.7453 100.498 76.8377V76.849C99.8519 78.0062 99.2891 79.0141 98.8552 79.787C98.8078 79.9299 98.7296 80.0607 98.6261 80.17C98.5226 80.2793 98.3964 80.3646 98.2563 80.4198C98.054 80.5039 97.838 80.5499 97.619 80.5554C97.4842 80.5629 97.3492 80.5629 97.2144 80.5554C97.1673 80.5568 97.1203 80.5522 97.0743 80.5419H97.2144C97.3048 80.5419 97.4404 80.5419 97.6167 80.5261C97.8294 80.5133 98.0381 80.4636 98.2337 80.3792C98.3627 80.3244 98.4785 80.2426 98.5732 80.1393C98.668 80.0359 98.7394 79.9135 98.7829 79.7803L100.392 76.8129V76.8332C100.402 76.7587 100.394 76.6829 100.369 76.6119C100.344 76.541 100.303 76.4767 100.25 76.4242C100.118 76.3329 99.9555 76.2972 99.7976 76.3247H99.7795C99.7 76.3235 99.6217 76.3446 99.5535 76.3857C99.4714 76.427 99.3953 76.4795 99.3275 76.5417C99.1847 76.6685 99.0566 76.8111 98.9456 76.9666C98.7196 77.283 98.5162 77.6446 98.2676 77.97C97.9625 78.4017 97.6484 78.8107 97.3252 79.1927L97.3071 79.2153H97.2777C96.2426 79.1384 95.2799 79.0797 94.394 79.0006C94.2928 78.9471 94.1974 78.8835 94.1092 78.8107L93.8538 78.6277C93.6866 78.5079 93.5193 78.4017 93.3566 78.3C93.0531 78.1177 92.7321 77.9662 92.3984 77.848C91.9222 77.6714 91.412 77.6065 90.9068 77.6581C90.7711 77.6721 90.6366 77.6962 90.5045 77.7304C90.4582 77.7382 90.4113 77.7427 90.3644 77.744Z" fill="#FF9A6C"/>
<path d="M103.938 76.84C103.903 76.9077 103.859 76.9701 103.807 77.0253C103.714 77.1405 103.581 77.3055 103.411 77.5044C103.077 77.9067 102.607 78.4559 102.08 79.057C101.554 79.6582 101.102 80.2277 100.711 80.5848C100.561 80.7295 100.397 80.8597 100.223 80.9735C100.161 81.0193 100.09 81.0517 100.015 81.0684C100.073 81.0199 100.134 80.9753 100.198 80.9351C100.358 80.8088 100.509 80.6713 100.65 80.5238C101.018 80.1576 101.447 79.5768 101.985 78.9824C102.523 78.3881 102.993 77.8389 103.341 77.4502L103.762 76.9982C103.813 76.9379 103.873 76.8847 103.938 76.84Z" fill="#FF9A6C"/>
<path d="M102.078 76.9982C101.958 77.1733 101.82 77.3354 101.667 77.4818C101.402 77.7711 101.029 78.1598 100.614 78.5937C100.272 78.9463 99.9536 79.2717 99.7096 79.5181C99.4402 79.627 99.1587 79.7029 98.8711 79.7441C98.9435 79.7078 99.0192 79.6783 99.0971 79.6559L99.6892 79.4299L99.6711 79.4412C99.9152 79.1791 100.227 78.8514 100.575 78.5011C100.991 78.0717 101.373 77.6875 101.653 77.414C101.783 77.2638 101.925 77.1247 102.078 76.9982Z" fill="#FF9A6C"/>
<path d="M74.723 62.2856C74.723 62.2856 79.5955 63.5421 80.0724 70.1639C80.3458 73.9381 78.3367 86.0585 78.3367 86.0585L85.5325 78.6683L91.9464 83.1296C91.9464 83.1296 83.216 93.79 81.2092 95.4014C79.2023 97.0127 75.984 99.5846 74.9444 99.3744C73.9048 99.1643 73.9003 94.355 73.9003 94.355V67.8L74.723 62.2856Z" fill="#2E8A4B"/>
<path d="M39.6929 63.0969C39.6929 63.0969 35.3583 64.523 35.53 72.998C35.7018 81.473 35.5684 84.3183 35.5684 84.3183L29.0709 77.4411L23.6786 83.394C23.6786 83.394 29.7173 92.3662 33.9412 96.728C37.9234 100.834 41.4625 97.2681 42.6129 94.3798C43.544 92.0407 44.2943 83.1454 44.2943 83.1454L39.6929 63.0969Z" fill="#2E8A4B"/>
<g opacity="0.3">
<path d="M75.1003 77.5406C75.4936 75.0546 75.5975 72.3629 74.4653 70.0826C71.6877 76.9485 71.812 84.8336 72.8064 92.1085L75.0077 98.4026C76.3953 94.1855 75.0777 89.6926 75.1071 85.2946C75.1252 82.7883 74.7094 80.0198 75.1003 77.5406Z" fill="black"/>
</g>
<path d="M38.7912 68.4893C38.7912 68.4893 41.6885 87.9795 42.249 89.6858C42.8095 91.3921 42.8095 96.4229 42.8095 96.4229C42.8095 96.4229 39.7698 102.086 39.5822 106.021L76.21 106.098L73.8302 89.9231C73.7545 88.9019 73.7364 87.8773 73.776 86.854C73.9297 84.0042 74.1489 77.8954 74.967 74.1393C75.9162 69.773 74.6371 62.3014 74.6371 62.3014L63.6964 59.6052C61.1064 63.3274 54.6564 63.3772 52.0981 59.6052L39.7494 63.0969L38.7912 68.4893Z" fill="#2E8A4B"/>
<path d="M74.549 89.1502C74.5754 89.0867 74.6121 89.0279 74.6574 88.9762C74.7343 88.87 74.8495 88.7163 74.9942 88.5242C75.3701 88.0342 75.7907 87.5803 76.2507 87.1682C76.7188 86.7657 77.2406 86.4303 77.8011 86.1715C78.0271 86.0766 78.1943 86.0043 78.3186 85.9636C78.3822 85.9362 78.449 85.9172 78.5175 85.9071C78.5424 85.9546 77.4078 86.3184 76.3276 87.2631C75.8749 87.6707 75.4506 88.1086 75.0575 88.5739C74.9019 88.7779 74.732 88.9705 74.549 89.1502Z" fill="#263238"/>
<path d="M40.6308 88.7366C40.6082 88.7366 40.5246 88.3411 40.2466 87.7467C39.8884 86.9705 39.365 86.2818 38.7132 85.7287C38.0613 85.1756 37.2966 84.7714 36.4724 84.5443C35.8396 84.368 35.4283 84.3499 35.4328 84.3183C35.5281 84.3064 35.6246 84.3064 35.7199 84.3183C35.9806 84.3408 36.2391 84.3847 36.4928 84.4494C37.3391 84.6578 38.1258 85.0593 38.7912 85.6223C39.4532 86.1883 39.9773 86.8979 40.3235 87.697C40.4278 87.9371 40.5131 88.1849 40.5789 88.4383C40.6093 88.535 40.6268 88.6353 40.6308 88.7366Z" fill="#263238"/>
<path d="M40.8659 78.1756C40.8055 78.1551 40.749 78.1245 40.6987 78.0852C40.597 78.022 40.4523 77.9225 40.2783 77.7914C39.8282 77.4502 39.4071 77.0723 39.0195 76.6614C38.6342 76.2508 38.2727 75.8185 37.9369 75.3665C37.787 75.1863 37.6553 74.9918 37.5437 74.7856C37.7067 74.951 37.8578 75.1277 37.9957 75.3145C38.2714 75.6467 38.6511 76.1032 39.1008 76.5801C39.4858 76.9863 39.8948 77.3689 40.3258 77.7259C40.514 77.8657 40.6943 78.0158 40.8659 78.1756Z" fill="#263238"/>
<path d="M66.4333 88.7253C66.4333 88.7253 66.4333 88.7412 66.4039 88.7705L66.309 88.8948C66.2186 89.0011 66.0988 89.1683 65.9225 89.3627C65.4332 89.9218 64.9045 90.4452 64.3405 90.9288C63.5001 91.6499 62.6046 92.3042 61.6624 92.886C60.5121 93.5932 59.3238 94.2368 58.1029 94.8138C56.8057 95.4308 55.5536 95.9799 54.4191 96.4907C53.2846 97.0015 52.2699 97.4693 51.4314 97.8919C50.5929 98.3145 49.924 98.6761 49.4675 98.9383C49.2415 99.0648 49.0652 99.1643 48.9454 99.2411L48.8075 99.318C48.7759 99.3338 48.7601 99.3428 48.7578 99.3406C48.7703 99.3277 48.7848 99.317 48.8008 99.3089L48.9318 99.2208C49.0494 99.1462 49.2189 99.0332 49.4449 98.8976C49.8969 98.6241 50.5568 98.2467 51.393 97.8173C52.2292 97.3879 53.2439 96.9133 54.3762 96.3913C55.5084 95.8692 56.7582 95.3245 58.0509 94.7076C59.2684 94.1318 60.455 93.4929 61.6059 92.7933C62.5446 92.2216 63.4391 91.5802 64.2818 90.8746C64.8506 90.3991 65.3874 89.8864 65.8886 89.3401C66.0694 89.1525 66.196 88.9898 66.2886 88.8881L66.3949 88.7728L66.4333 88.7253Z" fill="#263238"/>
<path d="M39.6658 105.716V105.669C39.6658 105.63 39.6658 105.585 39.6658 105.526C39.6658 105.395 39.6862 105.212 39.6997 104.975C39.7868 104.287 39.9251 103.608 40.1133 102.941C40.8078 100.604 41.7535 98.3499 42.9338 96.2172V96.2466C42.7869 94.1267 42.5677 91.7583 42.3146 89.2677C41.8309 84.5624 41.3247 80.3136 40.9586 77.2355C40.7732 75.7032 40.6218 74.4602 40.5066 73.5946C40.4568 73.1698 40.4184 72.8353 40.389 72.6025L40.3619 72.3449C40.3589 72.3155 40.3589 72.286 40.3619 72.2567C40.3711 72.2846 40.3772 72.3134 40.38 72.3426C40.389 72.4059 40.4026 72.4918 40.4207 72.6002C40.4523 72.8262 40.4998 73.163 40.5585 73.5879C40.6738 74.4534 40.8365 75.6942 41.0399 77.2265C41.4309 80.3001 41.9439 84.5489 42.4343 89.2542C42.6875 91.7402 42.9044 94.1177 43.0423 96.2398V96.2557V96.2692C41.8611 98.3933 40.9059 100.635 40.1924 102.959C39.9951 103.622 39.8441 104.298 39.7404 104.982C39.7201 105.208 39.702 105.4 39.6907 105.528C39.6907 105.587 39.6907 105.635 39.6749 105.671C39.674 105.686 39.671 105.701 39.6658 105.716Z" fill="#263238"/>
<path d="M75.4168 68.9435C75.4202 68.9758 75.4202 69.0084 75.4168 69.0407C75.4168 69.1108 75.4168 69.2034 75.4168 69.3255C75.4168 69.5741 75.4168 69.9425 75.3964 70.4148C75.3716 71.3617 75.2744 72.729 75.1049 74.415C74.9354 76.101 74.6959 78.1011 74.4473 80.3249C74.1987 82.5487 73.9546 84.9963 73.8777 87.5772C73.824 90.0018 73.9912 92.4263 74.3772 94.8205C74.7026 97.0353 75.0868 99.0128 75.3829 100.681C75.6789 102.349 75.9095 103.698 76.036 104.636C76.1038 105.106 76.1423 105.472 76.1694 105.718C76.1694 105.838 76.1897 105.944 76.1965 106.001C76.1995 106.033 76.1995 106.066 76.1965 106.098C76.1871 106.067 76.181 106.035 76.1784 106.003C76.1784 105.933 76.1558 105.84 76.1377 105.723C76.1038 105.474 76.0586 105.11 75.9818 104.643C75.8439 103.707 75.6089 102.358 75.3038 100.694C74.9987 99.0309 74.6032 97.0534 74.271 94.8364C73.8784 92.4359 73.7074 90.0045 73.7602 87.5727C73.8393 84.9873 74.0902 82.5374 74.341 80.3136C74.5919 78.0898 74.8495 76.0897 75.019 74.406C75.1885 72.7223 75.306 71.3595 75.3467 70.4125C75.3761 69.9402 75.3784 69.5741 75.3874 69.3255C75.3874 69.2034 75.3874 69.1108 75.3874 69.0407C75.3942 69.0075 75.404 68.975 75.4168 68.9435Z" fill="#263238"/>
<g opacity="0.3">
<path d="M40.4681 73.12C39.8434 79.3616 40.5671 85.6647 42.5902 91.6023L40.4681 73.12Z" fill="black"/>
</g>
<g opacity="0.3">
<path d="M63.1246 94.7143C60.3493 97.2636 57.565 99.4422 54.1501 100.656C56.7243 100.882 59.321 99.8897 61.3098 98.2422C63.2986 96.5946 64.7156 94.8522 65.6264 92.443L63.1246 94.7143Z" fill="black"/>
</g>
<path d="M59.9629 97.5212C59.9403 97.4986 61.6669 95.9144 63.8184 93.9843C65.97 92.0543 67.7327 90.5107 67.7531 90.5356C67.7734 90.5604 66.049 92.1424 63.8975 94.0725C61.746 96.0025 59.9855 97.5461 59.9629 97.5212Z" fill="#263238"/>
<path d="M66.1011 49.6928C66.1011 49.9732 66.0179 50.2473 65.8621 50.4803C65.7063 50.7134 65.4848 50.895 65.2258 51.0022C64.9667 51.1094 64.6817 51.1373 64.4068 51.0825C64.1318 51.0276 63.8793 50.8924 63.6813 50.694C63.4832 50.4956 63.3484 50.2429 63.294 49.9679C63.2396 49.6929 63.2679 49.4079 63.3755 49.149C63.4831 48.8901 63.6651 48.669 63.8984 48.5135C64.1318 48.3581 64.406 48.2754 64.6863 48.2758C64.8723 48.2758 65.0564 48.3125 65.2282 48.3837C65.4 48.455 65.5561 48.5594 65.6875 48.691C65.8189 48.8226 65.9231 48.9788 65.994 49.1507C66.065 49.3226 66.1014 49.5069 66.1011 49.6928Z" fill="#455A64"/>
<path d="M74.5331 68.3017C74.1158 64.8364 73.6984 61.3711 73.2811 57.9057L64.3202 55.1937C64.1461 61.3771 63.0636 68.3198 61.5087 74.3065C64.8236 75.3796 68.3269 75.7445 71.7917 75.3778C71.9424 73.7054 72.0931 72.033 72.2437 70.3606C72.4667 71.6217 72.6927 72.882 72.9217 74.1416C73.8619 73.615 74.4156 72.5596 74.6032 71.5041C74.7907 70.4487 74.6619 69.382 74.5331 68.3017Z" fill="#263238"/>
<path d="M67.5203 75.4252C67.5203 75.4252 67.5203 75.3823 67.5474 75.2964C67.5745 75.2105 67.5971 75.0704 67.6356 74.9145C67.7147 74.5755 67.8299 74.0828 67.9791 73.4522C68.2729 72.1799 68.7068 70.3425 69.1294 68.0486C69.6451 65.3628 69.9713 62.6441 70.1057 59.9126C70.2779 56.5718 69.9735 53.2235 69.2017 49.9686C68.4379 46.7066 67.0243 43.632 65.0456 40.9286C64.8196 40.6235 64.5936 40.3139 64.3405 40.0246C64.0874 39.7353 63.8636 39.4528 63.6082 39.1929L63.2353 38.7974L62.8557 38.42C62.6071 38.1669 62.3494 37.9341 62.1008 37.699C61.0951 36.7679 60.112 35.9498 59.2329 35.1814C58.3537 34.413 57.5695 33.7056 56.9186 33.0434C56.7537 32.8785 56.6045 32.7112 56.4666 32.5575C56.3288 32.4039 56.1774 32.2479 56.0508 32.1055C55.9242 31.9632 55.7954 31.8117 55.6779 31.6739L55.3592 31.2671C55.1513 31.014 54.9954 30.7699 54.8485 30.5642C54.7016 30.3586 54.5931 30.1778 54.505 30.0286L54.3061 29.6941C54.2609 29.6173 54.2405 29.5766 54.2405 29.5766C54.2405 29.5766 54.2677 29.6128 54.3174 29.6873L54.5253 30.0173C54.6157 30.1619 54.7287 30.3427 54.8779 30.5439C55.027 30.745 55.1852 30.9959 55.3954 31.24L55.7163 31.6422L56.0915 32.0694C56.2203 32.2208 56.3604 32.3722 56.5118 32.5214C56.6633 32.6705 56.8102 32.8423 56.9774 33.0028C57.6283 33.6604 58.417 34.3588 59.2984 35.1249C60.1798 35.891 61.1652 36.7069 62.1777 37.6335C62.4263 37.8595 62.6884 38.1036 62.937 38.3544L63.319 38.7319L63.6941 39.1296C63.9518 39.3895 64.1845 39.6811 64.4309 39.9636C64.6772 40.2461 64.9077 40.5534 65.145 40.8676C67.1322 43.582 68.5505 46.6699 69.3147 49.946C70.0911 53.2125 70.3955 56.5733 70.2187 59.9261C70.0787 62.6586 69.7434 65.3775 69.2153 68.0621C68.7814 70.3583 68.3362 72.1934 68.0288 73.4635C67.8729 74.0963 67.7486 74.5935 67.6627 74.9212C67.6197 75.084 67.5858 75.2083 67.5632 75.2987C67.5406 75.3891 67.5203 75.4252 67.5203 75.4252Z" fill="#455A64"/>
</svg>
