<svg width="16" height="16" viewBox="0 0 16 16" fill="none" xmlns="http://www.w3.org/2000/svg">
    <path d="M14.7836 3.72845L12.2719 1.21678C11.9441 0.908868 11.5146 0.732193 11.065 0.720362C10.6154 0.70853 10.1772 0.862369 9.83361 1.15261L1.58361 9.40261C1.28731 9.70142 1.10282 10.0931 1.06111 10.5118L0.666939 14.3343C0.65459 14.4685 0.672012 14.6039 0.717961 14.7306C0.763911 14.8574 0.837257 14.9725 0.932772 15.0676C1.01843 15.1526 1.12001 15.2198 1.23169 15.2654C1.34338 15.311 1.46297 15.3341 1.58361 15.3334H1.66611L5.48861 14.9851C5.90734 14.9434 6.29897 14.7589 6.59777 14.4626L14.8478 6.21261C15.168 5.87433 15.341 5.42291 15.329 4.95727C15.317 4.49163 15.1208 4.04975 14.7836 3.72845ZM5.32361 13.1518L2.57361 13.4084L2.82111 10.6584L8.00027 5.54345L10.4753 8.01845L5.32361 13.1518ZM11.6669 6.79011L9.21027 4.33345L10.9978 2.50011L13.5003 5.00261L11.6669 6.79011Z" fill="#697A8D"/>
    </svg>