<svg width="256" height="186" viewBox="0 0 256 186" fill="none" xmlns="http://www.w3.org/2000/svg">
<g clip-path="url(#clip0_62_16640)">
<path d="M238.038 68.2953C227.881 55.5289 209.982 49.0324 194.174 53.2786C187.396 55.0995 181.23 58.6698 174.616 61.0275C168.001 63.3852 160.38 64.4189 154.149 61.1945C146.635 57.3061 143.352 48.599 138.494 41.7129C128.381 27.3601 108.998 20.1758 91.9189 24.4339C77.8949 27.9247 66.1702 38.9377 61.2436 52.384V52.3522C54.8174 66.3472 56.133 92.0669 64.2027 105.195C72.2725 118.323 82.8575 133.109 96.9575 139.451C111.058 145.792 125.409 149.653 140.545 152.818C162.831 157.473 189.927 155.883 211.221 147.872C226.537 142.111 239.493 129.869 245.032 114.546C250.57 99.2234 248.199 81.0657 238.038 68.2953Z" fill="#E0E0E0"/>
<path d="M136.126 59.6797L134.759 94.7903L117.076 94.2218C116.868 92.1822 116.636 84.2822 116.636 84.2822C116.636 84.2822 109.254 83.487 108.818 76.2112C108.606 72.6767 108.766 65.3373 108.986 58.7176C109.106 55.1901 110.609 51.8492 113.173 49.4087C115.738 46.9682 119.16 45.6217 122.71 45.6569C124.524 45.6795 126.315 46.0628 127.978 46.7841C129.64 47.5054 131.141 48.5502 132.391 49.857C133.641 51.1637 134.616 52.706 135.257 54.3929C135.899 56.0799 136.194 57.8775 136.126 59.6797Z" fill="#FFBE9D"/>
<path d="M116.628 84.2822C120.014 84.1854 123.295 83.0893 126.053 81.1333C126.053 81.1333 124.054 86.4808 116.704 86.1707L116.628 84.2822Z" fill="#EB996E"/>
<path d="M111.389 63.9259C111.4 64.1973 111.516 64.4539 111.714 64.6411C111.912 64.8282 112.176 64.9311 112.449 64.9278C112.583 64.9321 112.716 64.9098 112.84 64.8623C112.965 64.8148 113.079 64.743 113.175 64.6512C113.272 64.5594 113.349 64.4493 113.402 64.3275C113.455 64.2057 113.483 64.0746 113.485 63.9418C113.474 63.6701 113.358 63.413 113.16 63.2252C112.962 63.0374 112.699 62.9337 112.425 62.9359C112.291 62.9322 112.158 62.955 112.034 63.003C111.909 63.0509 111.795 63.123 111.699 63.2152C111.602 63.3073 111.525 63.4176 111.472 63.5396C111.419 63.6617 111.391 63.793 111.389 63.9259Z" fill="#263238"/>
<path d="M110.738 62.427C110.874 62.5582 111.637 61.938 112.765 61.8863C113.893 61.8346 114.744 62.3594 114.86 62.2163C114.916 62.1527 114.772 61.9141 114.401 61.6676C113.896 61.355 113.307 61.205 112.713 61.2383C112.129 61.2649 111.569 61.4751 111.113 61.8386C110.778 62.1129 110.67 62.3714 110.738 62.427Z" fill="#263238"/>
<path d="M122.062 63.8901C122.072 64.1601 122.186 64.416 122.382 64.6036C122.577 64.7913 122.838 64.8961 123.11 64.896C123.244 64.9002 123.377 64.8778 123.502 64.8301C123.627 64.7823 123.741 64.7102 123.838 64.618C123.934 64.5257 124.011 64.4152 124.064 64.2929C124.117 64.1707 124.145 64.0391 124.146 63.906C124.136 63.6391 124.022 63.3864 123.829 63.2006C123.636 63.0147 123.379 62.9099 123.11 62.9081C122.976 62.9016 122.842 62.9222 122.716 62.9685C122.589 63.0148 122.474 63.086 122.376 63.1776C122.278 63.2693 122.2 63.3797 122.146 63.5021C122.092 63.6245 122.064 63.7565 122.062 63.8901Z" fill="#263238"/>
<path d="M121.818 62.1129C121.954 62.2401 122.718 61.6199 123.846 61.5722C124.974 61.5245 125.845 62.0414 125.941 61.8982C125.997 61.8346 125.853 61.5961 125.481 61.3535C124.978 61.0416 124.39 60.8917 123.798 60.9241C123.214 60.9489 122.653 61.1593 122.198 61.5245C121.858 61.8068 121.75 62.0573 121.818 62.1129Z" fill="#263238"/>
<path d="M118.123 70.6132C118.123 70.5496 117.424 70.4622 116.28 70.3707C115.992 70.3707 115.716 70.3111 115.66 70.1163C115.621 69.8226 115.674 69.5239 115.812 69.2614C116.048 68.5538 116.296 67.8182 116.556 67.0429C117.592 63.8861 118.323 61.2979 118.195 61.2581C118.068 61.2183 117.112 63.743 116.092 66.8839C115.844 67.6605 115.608 68.4027 115.384 69.1104C115.218 69.4634 115.184 69.8638 115.288 70.2395C115.335 70.3384 115.403 70.4255 115.488 70.4943C115.574 70.5632 115.673 70.612 115.78 70.6371C115.942 70.6715 116.107 70.6862 116.272 70.6808C117.416 70.7047 118.123 70.6769 118.123 70.6132Z" fill="#263238"/>
<path d="M121.475 71.2295C121.295 71.2295 121.347 72.4223 120.343 73.3566C119.339 74.2909 118.032 74.1955 118.028 74.3665C118.028 74.442 118.331 74.5891 118.879 74.5772C119.596 74.5533 120.281 74.2787 120.815 73.8019C121.328 73.346 121.641 72.7078 121.686 72.0247C121.71 71.5158 121.559 71.2176 121.475 71.2295Z" fill="#263238"/>
<path d="M121.319 57.7395C121.443 58.0416 122.562 57.8429 123.89 57.9383C125.218 58.0337 126.289 58.3359 126.465 58.0615C126.537 57.9263 126.341 57.6639 125.893 57.3777C125.301 57.0436 124.64 56.8477 123.96 56.805C123.281 56.7623 122.6 56.8739 121.97 57.1312C121.511 57.3419 121.263 57.6003 121.319 57.7395Z" fill="#263238"/>
<path d="M110.998 59.1668C111.209 59.4133 111.969 59.1112 112.905 59.0555C113.841 58.9998 114.632 59.1469 114.804 58.8726C114.876 58.7374 114.74 58.475 114.385 58.2643C113.907 57.9989 113.36 57.8799 112.815 57.9223C112.269 57.9648 111.748 58.1668 111.317 58.5029C111.002 58.7812 110.906 59.0475 110.998 59.1668Z" fill="#263238"/>
<path d="M127.797 52.1733L127.841 52.2012C129.051 53.0624 129.882 54.3537 130.16 55.8072C130.16 55.8589 130.16 55.9066 130.188 55.9543C130.588 58.0178 130.62 60.1369 131.028 62.1964C131.436 64.2559 132.256 66.3353 133.867 67.691C134.531 68.2516 135.671 68.6015 136.162 67.8898C136.323 67.5938 136.398 67.2594 136.378 66.9237C136.53 61.8863 137.694 57.3817 137.438 52.1256C137.406 51.4225 137.207 50.7369 136.855 50.1258C136.504 49.5146 136.012 48.9953 135.419 48.611C134.275 47.8754 132.887 47.124 131.688 47.7562C130.488 48.3883 129.004 50.754 128.089 51.7678" fill="#263238"/>
<path d="M133.823 63.2142C133.943 63.1546 138.786 61.4967 138.862 66.4864C138.938 71.476 133.887 70.5218 133.875 70.3787C133.863 70.2356 133.823 63.2142 133.823 63.2142Z" fill="#FFBE9D"/>
<path d="M135.379 68.4743C135.403 68.4743 135.467 68.5339 135.615 68.5975C135.825 68.6807 136.06 68.6807 136.27 68.5975C136.798 68.3947 137.23 67.5519 137.242 66.6533C137.248 66.2254 137.158 65.8016 136.978 65.4129C136.929 65.2573 136.843 65.1159 136.726 65.0009C136.61 64.8859 136.467 64.8008 136.31 64.7529C136.21 64.7279 136.103 64.7389 136.01 64.7839C135.916 64.829 135.841 64.9052 135.799 64.9994C135.731 65.1425 135.767 65.2419 135.739 65.2499C135.711 65.2578 135.631 65.1664 135.667 64.9596C135.692 64.8361 135.76 64.7252 135.859 64.6455C135.996 64.5399 136.17 64.4915 136.342 64.5103C136.549 64.5475 136.742 64.6369 136.904 64.7699C137.066 64.9029 137.191 65.075 137.266 65.2697C137.486 65.6991 137.597 66.1754 137.59 66.6573C137.59 67.6632 137.07 68.6094 136.35 68.8281C136.217 68.869 136.075 68.8795 135.937 68.8588C135.798 68.8382 135.666 68.7869 135.551 68.7088C135.391 68.5856 135.363 68.4743 135.379 68.4743Z" fill="#EB996E"/>
<path d="M132.443 49.2988C133.891 47.45 130.844 44.2375 128.445 43.1959C126.045 42.1542 122.698 43.0011 120.159 43.5418C118.559 43.8837 116.94 44.4284 115.32 44.1859C114.245 43.9579 113.21 43.572 112.249 43.0408C111.285 42.5105 110.222 42.1792 109.126 42.0667C108.03 42.023 106.847 42.4643 106.327 43.4384C105.807 44.4125 106.243 45.8239 107.307 46.1062C106.011 45.1997 103.908 45.975 103.512 47.5017C103.116 49.0284 104.583 50.7142 106.159 50.5472C105.511 49.9349 104.323 50.6983 104.315 51.5889C104.307 52.4795 105.039 53.207 105.815 53.6523C107.814 54.7854 110.25 54.7576 112.481 54.2726C114.712 53.7875 116.832 52.877 119.051 52.3363C121.271 51.7956 124.998 50.7937 127.049 51.7797C128.569 52.5033 129.448 54.5111 130.392 54.1891C130.837 54.0125 131.233 53.7345 131.55 53.3774C131.867 53.0204 132.095 52.5943 132.216 52.1336C132.44 51.2063 132.512 50.2489 132.427 49.2988" fill="#263238"/>
<path d="M107.586 46.468C107.586 46.468 107.491 46.5117 107.335 46.6231C107.106 46.7867 106.928 47.0114 106.823 47.2711C106.65 47.6783 106.612 48.1294 106.715 48.5593C106.781 48.8417 106.904 49.1078 107.076 49.3415C107.249 49.5752 107.467 49.7717 107.718 49.919C108.337 50.2757 109.039 50.4661 109.754 50.4717C110.578 50.4765 111.397 50.3572 112.185 50.1178C113.869 49.6328 115.536 48.6428 117.296 47.6369C119.055 46.631 120.851 45.7921 122.634 45.5774C123.474 45.4685 124.326 45.5211 125.146 45.7325C125.864 45.9181 126.541 46.2335 127.145 46.6628C128.021 47.2722 128.727 48.0931 129.196 49.0483C129.378 49.3908 129.512 49.7558 129.596 50.1337C129.572 50.1337 129.476 49.7361 129.136 49.0841C128.646 48.1653 127.938 47.3793 127.073 46.794C126.485 46.3857 125.828 46.0866 125.134 45.9114C124.334 45.7121 123.503 45.6675 122.686 45.7802C120.951 45.9989 119.179 46.8338 117.432 47.8317C115.684 48.8297 113.989 49.8196 112.273 50.3126C111.464 50.5547 110.622 50.67 109.778 50.6546C109.034 50.6435 108.306 50.4348 107.67 50.0502C107.396 49.8745 107.158 49.6493 106.967 49.3863C106.755 49.0751 106.626 48.7154 106.593 48.341C106.56 47.9667 106.624 47.5902 106.779 47.2473C106.898 46.9808 107.095 46.7554 107.343 46.5992C107.417 46.5444 107.499 46.5002 107.586 46.468Z" fill="#455A64"/>
<path d="M125.313 43.9473C125.422 43.9287 125.533 43.9287 125.641 43.9473C125.937 43.9673 126.229 44.0193 126.513 44.1024C127.466 44.3693 128.315 44.9167 128.949 45.6724C129.582 46.4282 129.971 47.357 130.064 48.3366C130.093 48.6302 130.093 48.9258 130.064 49.2193C130.06 49.3271 130.037 49.4335 129.996 49.5334C129.956 49.5334 130.024 49.0762 129.92 48.3406C129.794 47.4004 129.403 46.5147 128.793 45.7859C128.182 45.0571 127.377 44.5148 126.469 44.2217C125.773 44.003 125.309 43.9871 125.313 43.9473Z" fill="#455A64"/>
<path d="M137.334 56.7297C137.212 56.7984 137.075 56.8366 136.934 56.841C136.541 56.8746 136.147 56.7901 135.803 56.5985C135.288 56.3217 134.869 55.8961 134.603 55.3779C134.293 54.754 134.062 54.0943 133.915 53.4138C133.772 52.7489 133.548 52.104 133.247 51.4935C132.998 51.0035 132.606 50.5992 132.124 50.3325C131.8 50.1498 131.432 50.0591 131.06 50.0701C130.8 50.0701 130.66 50.1377 130.66 50.1178C130.781 50.0444 130.918 50.0008 131.06 49.9906C131.451 49.9463 131.847 50.0197 132.196 50.2013C132.717 50.465 133.144 50.8813 133.419 51.3941C133.735 52.0184 133.966 52.6815 134.107 53.3661C134.25 54.0305 134.47 54.6763 134.763 55.2904C135.006 55.7854 135.388 56.1997 135.863 56.4832C136.182 56.672 136.547 56.7722 136.918 56.7734C137.182 56.7575 137.326 56.7098 137.334 56.7297Z" fill="#455A64"/>
<path d="M137.07 60.0256C137.07 60.0256 137.03 60.0256 136.946 60.0574C136.828 60.0824 136.707 60.0983 136.586 60.1051C136.138 60.1381 135.688 60.1032 135.251 60.0018C133.784 59.6623 132.499 58.7866 131.652 57.5487C130.823 56.3233 130.316 54.9115 130.176 53.4416C130.161 53.1946 130.123 52.9496 130.06 52.7101C130.011 52.5356 129.909 52.3802 129.768 52.2648C129.644 52.1694 129.493 52.1127 129.336 52.1018C129.418 52.0751 129.506 52.0699 129.591 52.0866C129.676 52.1033 129.755 52.1414 129.82 52.1972C129.982 52.3155 130.104 52.4807 130.168 52.6703C130.245 52.9148 130.296 53.1667 130.32 53.4218C130.5 54.8559 131.015 56.2284 131.824 57.4294C132.644 58.6224 133.867 59.4841 135.271 59.8586C135.861 59.9914 136.466 60.0475 137.07 60.0256Z" fill="#455A64"/>
<path d="M101.988 185.964L158.772 185.598L153.042 151.478L152.046 92.8143L140.705 89.3713L135.107 86.2303L116.684 88.5483L114.313 91.5341C114.313 91.5341 106.251 94.2377 102.764 95.824L102.524 95.9314C100.051 97.0529 97.9556 98.8599 96.4896 101.136L81.122 124.907L58.6483 111.878L50.7305 123.341C50.7305 123.341 78.3227 146.178 83.3253 145.713C88.3279 145.248 90.0634 145.244 91.7909 142.906C93.1146 141.109 98.3171 135.022 100.796 130.955L103.328 159.06L101.988 185.964Z" fill="#EBEBEB"/>
<path d="M119.979 186C119.919 186 119.463 173.5 118.963 158.078C118.463 142.655 118.096 130.147 118.163 130.147C118.231 130.147 118.675 142.644 119.179 158.074C119.683 173.504 120.035 186 119.979 186Z" fill="#263238"/>
<path d="M116.756 88.3177L118.183 130.994L135.091 86.2303L116.756 88.3177Z" fill="#FFBE9D"/>
<path d="M118.311 133.4C118.288 133.358 118.269 133.314 118.255 133.268C118.215 133.173 118.167 133.046 118.108 132.871C117.968 132.521 117.776 132.028 117.528 131.396C117.012 130.124 116.256 128.283 115.208 126.06C114.672 124.951 114.073 123.746 113.361 122.482C112.625 121.147 111.736 119.901 110.714 118.769C110.154 118.196 109.486 117.596 109.25 116.717C109.149 116.281 109.16 115.827 109.282 115.397C109.39 114.968 109.542 114.554 109.682 114.137C110.238 112.455 110.818 110.718 111.405 108.94L111.441 108.829L111.549 108.964L104.751 109.576V109.378L108.378 102.221C109.494 100.042 110.502 98.1221 111.369 96.5397C112.237 94.9573 112.969 93.7089 113.477 92.87C113.737 92.4486 113.945 92.1265 114.089 91.9118L114.253 91.6733C114.293 91.6176 114.313 91.5898 114.317 91.5938L114.269 91.6812L114.117 91.9317C113.981 92.1663 113.785 92.4883 113.537 92.9058C113.037 93.7566 112.337 95.009 111.481 96.5993C110.626 98.1897 109.634 100.114 108.53 102.301L106.795 105.76L105.863 107.612L105.379 108.567L105.127 109.048L104.995 109.286L104.927 109.409L104.887 109.469C104.859 109.513 104.817 109.547 104.767 109.565V109.366L111.565 108.746H111.721L111.673 108.897L111.637 109.004C111.046 110.781 110.466 112.519 109.91 114.2C109.646 115.031 109.262 115.866 109.478 116.669C109.694 117.472 110.326 118.061 110.886 118.633C111.921 119.788 112.816 121.06 113.553 122.422C114.265 123.687 114.856 124.899 115.384 126.001C116.416 128.235 117.156 130.088 117.648 131.372C117.888 132.016 118.072 132.517 118.187 132.859C118.249 133.029 118.293 133.161 118.319 133.257C118.32 133.304 118.317 133.352 118.311 133.4Z" fill="#263238"/>
<path d="M118.255 133.801C118.249 133.755 118.249 133.708 118.255 133.662L118.319 133.265C118.414 132.744 118.554 132.233 118.739 131.738C119.465 129.922 120.386 128.189 121.487 126.569C122.17 125.535 122.95 124.422 123.834 123.253C124.766 122.006 125.768 120.812 126.833 119.675C128.018 118.399 129.314 117.231 130.708 116.184C131.452 115.637 132.225 115.128 133.023 114.662C133.823 114.184 134.663 113.731 135.463 113.202L135.435 113.346C134.345 111.727 132.868 110.403 131.136 109.493L130.992 109.417L131.124 109.322C133.596 107.489 136.477 106.277 139.521 105.788L139.446 105.871L140.313 94.0071C140.425 92.5758 140.513 91.4387 140.577 90.6515C140.609 90.2539 140.633 89.9756 140.653 89.7649L140.677 89.5383C140.672 89.512 140.672 89.485 140.677 89.4587C140.68 89.4852 140.68 89.5118 140.677 89.5383V89.7649C140.677 89.9796 140.649 90.2778 140.629 90.6555C140.581 91.4506 140.509 92.5798 140.421 94.0151C140.225 96.9134 139.953 101.013 139.621 105.887V105.958H139.549C136.535 106.45 133.683 107.655 131.236 109.473V109.302C132.998 110.227 134.501 111.573 135.611 113.218L135.671 113.302L135.583 113.361C134.783 113.894 133.935 114.351 133.131 114.829C132.339 115.289 131.571 115.79 130.832 116.331C129.451 117.37 128.164 118.526 126.985 119.786C125.919 120.922 124.917 122.117 123.986 123.365C123.098 124.522 122.31 125.627 121.623 126.657C120.512 128.258 119.574 129.97 118.823 131.766C118.63 132.254 118.477 132.759 118.367 133.272C118.331 133.439 118.303 133.575 118.283 133.67C118.279 133.715 118.27 133.759 118.255 133.801Z" fill="#263238"/>
<path d="M139.761 120.788H127.821V123.098H139.761V120.788Z" fill="#263238"/>
<path d="M137.066 141.594C137.001 141.623 136.933 141.643 136.862 141.654L136.27 141.781C135.541 141.932 134.802 142.037 134.059 142.095C132.947 142.195 131.827 142.06 130.772 141.697C129.459 141.243 128.371 140.305 127.733 139.077C127.166 137.838 126.883 136.49 126.905 135.129C126.905 133.885 126.945 132.783 126.949 131.845C126.953 130.907 126.981 130.155 127.009 129.631C127.009 129.368 127.037 129.165 127.049 129.03C127.049 128.959 127.059 128.888 127.081 128.82C127.086 128.89 127.086 128.96 127.081 129.03C127.081 129.193 127.081 129.392 127.081 129.635C127.081 130.187 127.081 130.935 127.081 131.845V135.125C127.07 136.456 127.351 137.774 127.905 138.986C128.517 140.168 129.56 141.073 130.82 141.518C131.846 141.877 132.935 142.022 134.019 141.944C134.757 141.899 135.493 141.817 136.222 141.697L136.822 141.61C136.903 141.595 136.984 141.59 137.066 141.594Z" fill="#263238"/>
<path d="M139.226 128.545C139.226 128.601 136.506 128.712 133.155 128.788C129.804 128.863 127.081 128.883 127.081 128.823C127.081 128.764 129.796 128.66 133.151 128.581C136.506 128.501 139.226 128.509 139.226 128.545Z" fill="#263238"/>
<path d="M133.311 128.629V124.689C133.311 124.382 133.434 124.088 133.652 123.871C133.87 123.654 134.166 123.532 134.475 123.532C134.784 123.532 135.079 123.654 135.298 123.871C135.516 124.088 135.639 124.382 135.639 124.689V131.181C135.642 131.233 135.636 131.286 135.619 131.335C135.602 131.385 135.576 131.431 135.541 131.47C135.471 131.55 135.373 131.599 135.267 131.607C135.161 131.614 135.056 131.579 134.976 131.51C134.895 131.44 134.846 131.342 134.839 131.237C134.839 131.189 134.839 131.133 134.839 131.082C134.839 130.092 134.727 128.581 134.727 128.581L133.311 128.629Z" fill="#2E8A4B"/>
<path d="M133.107 135.435C133.004 134.511 132.969 133.581 133.003 132.652C132.969 131.723 133.004 130.793 133.107 129.869C133.211 130.793 133.245 131.723 133.211 132.652C133.245 133.581 133.21 134.511 133.107 135.435Z" fill="#263238"/>
<path d="M135.359 140.592C135.303 140.592 135.255 138.604 135.255 136.163C135.255 133.722 135.303 131.734 135.359 131.734C135.415 131.734 135.463 133.722 135.463 136.163C135.463 138.604 135.419 140.592 135.359 140.592Z" fill="#263238"/>
<path d="M117.056 97.2951L122.61 104.034C126.533 100.098 129.352 96.2097 131.808 94.4921C131.808 94.4921 118.187 131.595 118.167 130.978C118.147 130.362 117.056 97.2951 117.056 97.2951Z" fill="#2E8A4B"/>
<path d="M131.824 94.5081C131.782 94.5642 131.735 94.6161 131.684 94.6631L131.252 95.0607C130.876 95.4146 130.34 95.9394 129.684 96.5914C128.369 97.8915 126.621 99.7721 124.714 101.84C122.806 103.907 121.035 105.776 119.691 107.056C119.019 107.696 118.467 108.201 118.072 108.539L117.616 108.936C117.565 108.985 117.508 109.028 117.448 109.064C117.448 109.064 117.492 109.004 117.588 108.909L118.016 108.511C118.395 108.157 118.931 107.632 119.587 106.98C120.899 105.68 122.646 103.8 124.558 101.732C126.469 99.6647 128.237 97.7961 129.58 96.5159C130.252 95.8757 130.804 95.3708 131.2 95.0329L131.652 94.6353C131.76 94.5438 131.816 94.5001 131.824 94.5081Z" fill="#263238"/>
<path d="M122.574 104.006C122.53 104.042 121.259 102.571 119.735 100.718C118.211 98.8656 117.012 97.3309 117.056 97.2951C117.1 97.2594 118.371 98.7304 119.895 100.587C121.419 102.444 122.618 103.971 122.574 104.006Z" fill="#263238"/>
<path d="M98.9649 110.185C98.9907 110.276 99.0068 110.369 99.0129 110.463C99.0409 110.666 99.0729 110.932 99.1129 111.258C99.1968 111.954 99.3048 112.96 99.4328 114.208C99.6847 116.701 99.9846 120.148 100.297 123.957C100.608 127.766 100.896 131.193 101.096 133.71C101.2 134.938 101.284 135.944 101.344 136.664C101.372 136.998 101.392 137.264 101.408 137.459C101.415 137.553 101.415 137.647 101.408 137.741C101.382 137.65 101.365 137.557 101.356 137.463C101.332 137.26 101.3 136.994 101.256 136.668C101.172 135.972 101.064 134.966 100.94 133.718C100.688 131.225 100.385 127.778 100.073 123.969C99.7607 120.16 99.4768 116.733 99.2728 114.216C99.1689 112.988 99.0849 111.982 99.0209 111.262C98.9969 110.928 98.9769 110.662 98.9609 110.467C98.9525 110.373 98.9538 110.279 98.9649 110.185Z" fill="#263238"/>
<path d="M151.226 92.7269C151.226 92.7269 160.128 92.7269 162.359 109.751C164.59 126.776 169.497 157.998 160.576 163.918C151.654 169.838 110.314 169.421 110.314 169.421V152.929L144.232 149.208C144.232 149.208 144.104 146.138 145.832 146.162L143.904 107.247C143.904 107.247 143.504 93.4664 151.226 92.7269Z" fill="#EBEBEB"/>
<path d="M143.992 120.18C143.992 120.18 143.992 120.339 144.028 120.649C144.064 120.959 144.072 121.444 144.108 122.033C144.172 123.253 144.268 125.034 144.392 127.317C144.628 131.893 144.968 138.469 145.384 146.48V146.564H145.296C145.009 146.571 144.734 146.676 144.516 146.862C144.295 147.072 144.13 147.333 144.036 147.621C143.835 148.234 143.749 148.878 143.78 149.522V149.605H143.7L110.326 153.02L110.418 152.917V169.421L110.318 169.321C124.758 169.476 137.35 168.924 146.248 167.791C148.475 167.508 150.462 167.186 152.194 166.848C153.666 166.56 155.123 166.195 156.557 165.755C157.137 165.56 157.648 165.357 158.088 165.202C158.528 165.047 158.888 164.86 159.172 164.713L159.804 164.356L160.024 164.24C160.024 164.24 159.956 164.288 159.816 164.371L159.188 164.745C158.904 164.896 158.536 165.051 158.108 165.254C157.68 165.457 157.161 165.62 156.577 165.819C155.144 166.272 153.687 166.649 152.214 166.948C150.482 167.298 148.491 167.628 146.268 167.918C137.362 169.067 124.762 169.667 110.314 169.508H110.214V169.409C110.214 164.638 110.214 159.604 110.214 154.424V152.834H110.31L143.684 149.454L143.604 149.546C143.568 148.872 143.661 148.197 143.876 147.558C143.98 147.244 144.16 146.962 144.4 146.735C144.65 146.524 144.964 146.403 145.292 146.393L145.212 146.48C144.812 138.469 144.512 131.893 144.296 127.313C144.192 125.031 144.108 123.249 144.052 122.029C144.028 121.424 144.012 120.963 143.996 120.645C143.98 120.327 143.992 120.18 143.992 120.18Z" fill="#263238"/>
<path d="M150.182 150.496C150.146 150.496 150.014 150.154 149.711 149.637C149.31 148.966 148.798 148.367 148.195 147.868C147.589 147.372 146.904 146.981 146.168 146.711C145.604 146.508 145.228 146.444 145.236 146.409C145.57 146.405 145.901 146.461 146.216 146.572C146.989 146.807 147.707 147.193 148.329 147.707C148.951 148.221 149.464 148.853 149.839 149.565C150.008 149.853 150.125 150.168 150.182 150.496Z" fill="#263238"/>
<path d="M146.196 153.557C145.716 151.984 144.831 150.563 143.628 149.434C143.853 149.538 144.055 149.684 144.224 149.864C144.666 150.261 145.048 150.719 145.36 151.223C145.675 151.725 145.917 152.269 146.08 152.838C146.166 153.067 146.206 153.312 146.196 153.557Z" fill="#263238"/>
<path d="M29.0046 105.187L53.3178 169.461L104.891 170.498L83.6372 105.628L29.0046 105.187Z" fill="#2E8A4B"/>
<g opacity="0.5">
<path d="M61.4795 169.576C61.4795 169.576 49.131 146.003 45.2961 130.275C43.1087 121.381 41.1612 105.267 41.1612 105.267L73.3521 105.549C73.3521 105.549 84.0291 122.442 90.1754 139.324C93.8563 149.395 96.5559 159.795 98.2371 170.379L81.7178 170.017L76.2833 154.265C76.2833 154.265 74.5878 155.175 72.2564 153.999L77.8549 169.934L61.4795 169.576Z" fill="white"/>
</g>
<path d="M79.1225 144.258C78.8226 143.391 77.523 140.33 77.7309 138.803C77.9388 137.276 79.4584 135.622 79.5424 134.091C79.6264 132.561 79.6703 129.15 79.2785 127.488C78.8663 126.018 78.3601 124.576 77.7629 123.17C77.7629 123.17 75.4315 119.5 73.0882 119.417L70.237 119.313C70.237 119.313 68.1736 119.806 69.1733 122.343C70.173 124.879 72.5324 129.233 72.8723 129.984C73.2122 130.736 74.8037 133.638 74.4438 135.499C74.0839 137.36 71.3607 142.552 71.7206 143.816L70.261 143.765C70.261 143.765 68.9134 141.443 67.0219 140.461C65.1305 139.479 61.0716 135.24 60.2238 132.708C59.3761 130.175 58.4243 124.283 57.8525 122.498C57.2807 120.713 56.3969 119.146 54.9133 118.749C53.4298 118.351 51.4423 118.852 51.4423 118.852C51.4423 118.852 48.7831 119.763 49.9707 123.738C51.1584 127.714 51.8262 127.957 53.2338 130.283C54.6414 132.608 54.9973 133.304 56.113 134.314C57.2287 135.324 59.8679 136.441 61.0036 138.87C62.1393 141.3 62.7271 144.119 64.7586 147.593C66.79 151.068 67.5578 152.364 69.1573 152.364C70.7569 152.364 71.2767 150.563 71.3367 149.482C71.3754 148.914 71.3754 148.344 71.3367 147.776L73.2722 147.848C73.2722 147.848 75.4595 151.911 77.7549 152.675C80.0502 153.438 79.8903 151.386 80.0063 150.591C80.1222 149.796 79.4384 145.12 79.1225 144.258ZM67.7857 148.949C67.1779 148.639 66.1182 146.603 65.0665 144.838C64.2667 143.518 64.3507 142.822 64.4346 142.556C64.4481 142.51 64.4683 142.465 64.4946 142.425L64.4626 142.469C64.5426 142.007 65.3224 142.21 65.8942 142.437C66.3141 142.604 68.3136 143.379 68.9654 146.258C69.6172 149.136 68.4095 149.255 67.7977 148.949H67.7857ZM77.8149 149.311C77.415 149.581 76.0674 149.371 74.7277 146.468C73.3881 143.566 74.8957 142.914 75.2116 142.775C75.6395 142.584 76.2993 142.433 76.6992 142.91L76.6392 142.866C76.6929 142.908 76.7437 142.953 76.7912 143.001C77.3633 143.636 77.698 144.448 77.7389 145.299C77.9228 147.029 78.2348 149.041 77.8269 149.311H77.8149Z" fill="white"/>
<path d="M70.9448 142.822C71.4247 142.791 71.0848 140.978 71.0848 140.978C71.1363 140.295 71.1363 139.609 71.0848 138.926C70.9968 138.071 71.4407 137.288 71.7486 136.497C72.0565 135.706 71.7486 133.595 71.3487 132.521C70.9488 131.448 71.2287 131.364 71.2287 131.364C72.4604 130.967 71.3247 128.418 70.4969 126.036C69.6692 123.655 68.8454 123.826 68.8454 123.826C68.8454 123.826 68.2936 123.806 67.9777 125.746C67.6617 127.686 67.1219 128.374 65.9382 128.37H65.3064C64.1067 128.37 63.055 127.535 61.3755 125.524C59.696 123.512 59.1481 123.492 59.1481 123.492C59.1481 123.492 58.1844 123.257 59.0002 125.639C59.8159 128.02 60.4278 130.541 61.9713 131.05C61.9713 131.05 62.2913 131.161 62.6552 132.243C63.0191 133.324 64.1627 135.451 65.0305 136.282C65.8982 137.113 66.902 137.952 67.4058 138.819C67.9097 139.686 68.8494 140.922 68.8494 140.922C68.8494 140.922 69.9971 142.767 70.5089 142.834L70.9448 142.822Z" fill="white"/>
<path d="M55.977 105.847C55.977 105.847 55.3492 106.026 55.8011 107.072C56.253 108.117 56.201 108.734 56.4609 109.016C56.7367 109.299 57.0305 109.565 57.3407 109.811C57.3407 109.811 56.6209 110.058 57.1527 111.175C57.6846 112.292 57.8205 113.393 58.0645 113.882C58.3084 114.371 58.8242 114.53 59.0642 114.813C59.3041 115.095 58.2644 114.781 58.5363 115.751C58.8082 116.721 59.4241 117.429 59.4201 118.323C59.4161 119.218 59.856 120.395 60.7117 120.836C61.5675 121.277 61.4075 121.89 61.4315 122.371C61.4822 123.03 61.6166 123.681 61.8314 124.307C62.1673 125.551 64.0908 127.488 65.2704 127.38C66.4501 127.273 67.5818 125.889 67.2978 125.054C66.815 123.915 66.1685 122.852 65.3784 121.898C64.8785 121.401 64.4547 121.385 64.5466 120.84C64.6386 120.295 65.2544 121.138 65.2264 120.383C65.2496 119.604 65.0469 118.835 64.6426 118.168C64.1667 117.465 64.0228 116.777 63.5669 115.866C63.111 114.956 62.2193 114.789 62.2913 114.586C62.3632 114.383 62.8511 114.471 62.4472 113.564C62.0433 112.658 62.0193 113.274 61.5875 111.886C61.1556 110.499 60.9596 109.668 60.5398 109.791C60.1199 109.914 60.1839 109.298 60.0359 108.332C59.8879 107.366 60.2398 107.724 59.636 106.674C59.0322 105.624 55.977 105.847 55.977 105.847Z" fill="white"/>
<path d="M56.7848 140L57.3167 138.735L56.4569 136.195C56.4569 136.195 57.8965 135.324 59.9 138.214C61.9034 141.105 61.7714 142.477 61.7714 142.477L59.3961 142.393C59.065 143.221 59.0353 144.138 59.3121 144.985C59.796 146.289 60.5118 146.13 61.1476 148.416C61.4799 149.463 61.7167 150.537 61.8554 151.625L69.2613 169.461L65.9543 169.341L57.9565 150.444C57.9565 150.444 57.0488 149.86 55.5572 146.993C54.0656 144.127 52.666 140.401 53.6217 139.395C54.5775 138.389 56.7848 140 56.7848 140Z" fill="white"/>
<path d="M83.1974 140.958L81.7698 139.642L80.878 137.101C80.878 137.101 78.7906 136.103 78.7546 138.918C78.7186 141.733 79.8143 143.152 79.8143 143.152L82.1897 143.236C82.1897 143.236 83.6732 144.604 84.0851 145.9C84.497 147.196 83.6852 146.985 84.597 149.283C85.0204 150.397 85.5256 151.479 86.1085 152.52L90.9552 170.256L94.2662 170.375L89.2757 151.569C89.2757 151.569 89.8035 151.037 89.3116 148.206C88.8198 145.375 87.6801 141.665 85.9926 140.564C85.5691 140.249 85.0371 140.113 84.5132 140.187C83.9892 140.26 83.5161 140.538 83.1974 140.958Z" fill="white"/>
<path d="M29.0046 105.187L83.6372 105.541H83.6972L83.7172 105.601C89.6875 123.802 96.8655 145.693 104.587 169.214L104.987 170.451L105.035 170.59H104.887L53.3018 169.544H53.2378L53.2138 169.484L29.0046 105.187C29.2926 105.954 38.9418 131.348 53.3978 169.429L53.3138 169.369L104.899 170.395L104.799 170.53C104.663 170.132 104.527 169.711 104.399 169.294L83.5652 105.656L83.6452 105.716L29.0046 105.187Z" fill="#263238"/>
<path d="M110.394 154.273H105.223C105.223 154.273 102.576 151.732 101.856 151.375C101.136 151.017 97.6013 149.955 97.6013 149.955L98.9649 153.716C99.1783 153.777 99.388 153.85 99.5928 153.935C100.497 154.285 100.245 155.08 99.5248 155.08H94.3183C94.3183 155.08 88.9838 152.535 88.192 153.001C87.5282 153.398 87.2962 154.094 87.976 155.08C88.6558 156.066 93.3305 158.384 93.8664 158.563L95.3939 159.008L93.9584 159.453L87.1603 157.096C86.7164 157.016 86.1086 156.945 85.9086 157.199C85.8224 157.286 85.7546 157.389 85.7096 157.502C85.6645 157.616 85.643 157.737 85.6463 157.859C85.6497 157.981 85.6779 158.101 85.7291 158.211C85.7804 158.322 85.8537 158.421 85.9446 158.503C86.9133 159.374 87.9407 160.177 89.0197 160.909C89.0197 160.909 87.9361 162.499 88.8318 163.294C89.7275 164.089 92.3348 166.511 92.3348 166.511C92.3348 166.511 92.6067 167.85 93.4145 168.475C94.2223 169.099 103.116 169.099 103.744 169.099C104.371 169.099 107.966 167.047 107.966 167.047L110.318 166.801L110.394 154.273Z" fill="#FFBE9D"/>
<path d="M94.978 163.461C94.6644 163.561 94.3354 163.606 94.0063 163.592C93.6434 163.593 93.2832 163.53 92.9426 163.405C92.5354 163.245 92.1477 163.04 91.7869 162.793C91.0151 162.296 90.3273 161.835 89.8315 161.493C89.5537 161.325 89.2949 161.128 89.0597 160.905C89.3609 161.029 89.6477 161.185 89.9155 161.37C90.4273 161.68 91.1151 162.121 91.9149 162.618C92.2645 162.857 92.6369 163.06 93.0266 163.226C93.345 163.355 93.683 163.429 94.0263 163.445C94.6021 163.473 94.978 163.425 94.978 163.461Z" fill="#EB996E"/>
<path d="M95.3859 166.769C95.4059 166.769 95.194 167.023 94.7141 167.147C94.0854 167.28 93.429 167.171 92.8786 166.84C92.339 166.536 91.8394 166.166 91.391 165.739C91.1911 165.578 91.0195 165.384 90.8832 165.167C90.9312 165.111 91.7469 165.962 92.9786 166.658C93.4889 166.966 94.0911 167.088 94.6821 167.003C94.9232 166.946 95.1587 166.868 95.3859 166.769Z" fill="#EB996E"/>
<path d="M97.9172 159.449C97.4455 159.508 96.9668 159.471 96.5096 159.342C96.0387 159.28 95.5847 159.126 95.174 158.889C95.6407 158.93 96.1025 159.014 96.5536 159.139C97.0167 159.201 97.4731 159.305 97.9172 159.449Z" fill="#EB996E"/>
<path d="M26.9892 116.809C26.7358 116.665 26.5142 116.472 26.3377 116.241C26.1611 116.011 26.0334 115.747 25.962 115.466C25.8907 115.184 25.8772 114.892 25.9225 114.606C25.9678 114.319 26.0708 114.045 26.2254 113.799C26.4147 113.449 26.6898 113.152 27.0252 112.936C27.893 112.479 35.5708 111.048 36.3946 110.948C37.2183 110.849 37.3703 112.407 36.2946 113.183C35.2189 113.958 27.0092 116.817 27.0092 116.817L26.9892 116.809Z" fill="#FFBE9D"/>
<path d="M28.7767 122.343C28.5248 122.199 28.3046 122.006 28.1291 121.776C27.9536 121.546 27.8265 121.283 27.7552 121.003C27.684 120.723 27.6701 120.431 27.7143 120.146C27.7586 119.861 27.8602 119.587 28.0129 119.341C28.201 118.99 28.4764 118.693 28.8127 118.478C29.6805 118.021 37.5183 115.974 38.1821 116.49C38.9819 117.087 39.1578 117.946 38.0821 118.725C37.0064 119.504 28.7967 122.359 28.7967 122.359L28.7767 122.343Z" fill="#FFBE9D"/>
<path d="M30.3363 121.198C29.9742 121.281 29.6349 121.442 29.3425 121.67C29.0502 121.899 28.812 122.188 28.6448 122.518C28.4614 122.873 28.4063 123.28 28.4888 123.671C28.6156 124.256 28.8998 124.796 29.3111 125.233C29.7224 125.67 30.2454 125.987 30.8241 126.152C32.2277 126.589 36.7985 125.567 36.7985 125.567L35.7428 122.637L38.9419 121.595C40.2455 121.079 39.6137 119.051 38.0461 119.445C37.5343 119.572 32.1678 120.745 30.3363 121.198Z" fill="#FFBE9D"/>
<path d="M27.9369 119.421C27.6846 119.277 27.464 119.085 27.2882 118.854C27.1124 118.624 26.985 118.361 26.9137 118.081C26.8424 117.801 26.8287 117.509 26.8732 117.224C26.9178 116.938 27.0198 116.664 27.1732 116.419C27.3624 116.069 27.6375 115.772 27.9729 115.556C28.8407 115.099 35.8227 113.862 36.6345 113.692C37.4463 113.521 38.318 115.011 37.2423 115.787C36.1666 116.562 27.9369 119.421 27.9369 119.421Z" fill="#FFBE9D"/>
<path d="M35.8267 116.634C35.4278 116.769 35.0186 116.873 34.6031 116.944C33.8433 117.111 32.7916 117.341 31.6279 117.556C30.6366 117.711 29.6855 118.058 28.8287 118.578C28.4931 118.825 28.1931 119.117 27.937 119.445C27.937 119.445 27.9689 119.325 28.0849 119.138C28.2564 118.876 28.473 118.646 28.7247 118.459C29.0905 118.184 29.4947 117.965 29.9244 117.806C30.4535 117.615 30.9962 117.464 31.5479 117.353C32.7156 117.123 33.7753 116.932 34.5431 116.801C34.9652 116.707 35.3947 116.652 35.8267 116.634Z" fill="#EB996E"/>
<path d="M34.4791 114.097C34.0976 114.225 33.7056 114.32 33.3074 114.379L30.4562 114.928C29.51 115.084 28.607 115.435 27.805 115.958C27.5097 116.213 27.2417 116.498 27.0052 116.809C27.0052 116.809 27.0372 116.693 27.1452 116.514C27.3009 116.26 27.4982 116.033 27.729 115.842C28.3089 115.333 29.3286 114.968 30.4283 114.729C31.5279 114.491 32.5597 114.355 33.2954 114.236C33.6854 114.157 34.0813 114.11 34.4791 114.097Z" fill="#EB996E"/>
<path d="M35.9347 119.882C35.5784 120.024 35.2105 120.136 34.835 120.216C34.1512 120.399 33.1955 120.641 32.1318 120.816C31.219 120.933 30.3376 121.225 29.5365 121.675C29.2397 121.895 28.9711 122.15 28.7367 122.434C28.7367 122.434 28.7647 122.327 28.8767 122.16C29.0426 121.926 29.2467 121.722 29.4805 121.556C30.2736 121.057 31.1658 120.736 32.0958 120.613C33.1635 120.438 34.0952 120.216 34.807 120.077C35.176 119.977 35.5535 119.912 35.9347 119.882Z" fill="#EB996E"/>
<path d="M36.3666 122.434C35.8376 122.717 35.2782 122.94 34.699 123.098C34.1375 123.318 33.5525 123.475 32.9555 123.563C33.4839 123.28 34.0434 123.059 34.6231 122.903C35.1846 122.682 35.7694 122.525 36.3666 122.434Z" fill="#EB996E"/>
<path d="M199.613 76.5293C200.1 75.8209 200.746 75.2351 201.501 74.8183C202.256 74.4016 203.098 74.1653 203.96 74.1282C204.823 74.0911 205.682 74.2542 206.47 74.6046C207.258 74.955 207.953 75.4831 208.5 76.147C209.047 76.811 209.431 77.5924 209.622 78.4295C209.812 79.2666 209.804 80.1364 209.598 80.9698C209.392 81.8032 208.993 82.5774 208.433 83.231C207.874 83.8847 207.169 84.3998 206.375 84.7355C207.259 85.1675 207.937 85.9291 208.26 86.8549C208.583 87.7806 208.527 88.7958 208.102 89.68C207.677 90.5642 206.918 91.2461 205.991 91.5776C205.063 91.9091 204.041 91.8635 203.148 91.4507C202.712 92.9774 200.992 93.8998 199.401 93.7924C197.809 93.6851 196.373 92.7468 195.286 91.5859C194.154 90.3791 193.339 88.9126 192.916 87.317C192.492 85.7214 192.473 84.0464 192.858 82.4414C193.706 79.2608 196.457 76.5969 199.74 76.0483" fill="#263238"/>
<path d="M202.14 74.0405C202.14 74.0405 202.168 74.0762 202.208 74.1518C202.266 74.2623 202.317 74.3766 202.36 74.4937C202.528 74.9326 202.631 75.3932 202.668 75.8614C202.728 76.5763 202.648 77.2961 202.432 77.9805C202.162 78.8554 201.67 79.6467 201.004 80.2786V80.1474C201.555 80.8956 201.918 81.7639 202.064 82.68C202.26 83.8004 202.112 84.9535 201.639 85.989C201.166 87.0244 200.39 87.8941 199.413 88.4847C198.832 88.8474 198.19 89.102 197.517 89.2361C197.336 89.2726 197.153 89.2965 196.969 89.3077C196.904 89.3138 196.839 89.3138 196.773 89.3077C196.773 89.2838 197.037 89.264 197.501 89.1566C198.151 88.9924 198.77 88.7238 199.333 88.3614C199.981 87.9407 200.538 87.3934 200.967 86.7527C201.397 86.112 201.692 85.3912 201.833 84.6339C201.974 83.8767 201.96 83.0988 201.79 82.3474C201.62 81.596 201.298 80.8868 200.844 80.2627L200.792 80.1911L200.856 80.1315C201.504 79.5281 201.986 78.7698 202.256 77.9288C202.478 77.2658 202.571 76.567 202.532 75.8694C202.488 75.2444 202.356 74.6287 202.14 74.0405Z" fill="#455A64"/>
<path d="M218.131 72.9352C217.943 73.0667 217.746 73.1837 217.54 73.2851C217.14 73.4958 216.588 73.794 215.888 74.1518C214.48 74.8714 212.521 75.8216 210.318 76.7997C208.114 77.7778 206.091 78.5888 204.615 79.1494C203.879 79.4277 203.28 79.6504 202.86 79.7935C202.648 79.877 202.43 79.9448 202.208 79.9963C202.408 79.887 202.617 79.794 202.832 79.718L204.563 79.0142C206.023 78.4179 208.034 77.5829 210.234 76.6287C212.433 75.6745 214.4 74.7243 215.832 74.0405L217.516 73.2453C217.713 73.1265 217.918 73.0229 218.131 72.9352Z" fill="#2E8A4B"/>
<path d="M212.921 67.7825C212.957 67.8262 210.761 69.9136 208.014 72.4422C205.267 74.9708 203.008 76.9945 202.968 76.9508C202.928 76.9071 205.127 74.8356 207.886 72.2911C210.645 69.7466 212.881 67.7427 212.921 67.7825Z" fill="#2E8A4B"/>
<path d="M189.008 59.1708C189.008 54.8928 183.865 54.6821 181.266 55.7516C179.866 53.8432 178.866 52.881 175.647 52.6823C173.284 52.5312 169.681 53.712 167.865 56.0776C166.974 57.2798 166.416 58.6935 166.246 60.1775C166.076 61.6614 166.301 63.1637 166.898 64.5342C167.298 65.4367 167.869 66.3432 167.758 67.3173C167.594 68.7327 166.134 69.5597 165.19 70.6292C164.417 71.5472 163.972 72.6948 163.925 73.8916C163.879 75.0884 164.234 76.2666 164.934 77.241C165.85 78.4338 167.306 79.2965 167.79 80.7278C168.189 81.9206 167.814 83.2366 167.889 84.5009C168.029 86.8268 169.805 88.8743 171.98 89.7132C174.156 90.5521 176.647 90.3652 178.846 89.5701" fill="#263238"/>
<path d="M170.197 104.046L178.263 100.468L178.538 95.1044C178.538 95.1044 172.476 94.2139 171.081 86.3974C170.389 82.509 170.473 76.1119 170.709 70.8916C170.925 66.1802 175.939 61.3933 180.662 61.8068L196.002 64.4269V66.9595L196.142 99.2592L204.075 103.064L186.08 124.2L170.197 104.046Z" fill="#A36957"/>
<path d="M173.576 76.426C173.578 76.6876 173.683 76.938 173.868 77.1238C174.053 77.3095 174.304 77.4158 174.568 77.42C174.696 77.4275 174.825 77.4095 174.947 77.367C175.068 77.3245 175.18 77.2585 175.276 77.1726C175.371 77.0868 175.449 76.9829 175.504 76.867C175.559 76.7511 175.59 76.6255 175.595 76.4976C175.593 76.2356 175.488 75.9847 175.303 75.7983C175.118 75.612 174.867 75.5048 174.604 75.4996C174.475 75.4916 174.345 75.5093 174.223 75.5518C174.101 75.5943 173.989 75.6607 173.893 75.7471C173.797 75.8334 173.72 75.938 173.665 76.0546C173.611 76.1712 173.58 76.2975 173.576 76.426Z" fill="#263238"/>
<path d="M172.164 74.1676C172.292 74.2949 173.048 73.7184 174.136 73.7025C175.223 73.6866 176.031 74.2154 176.135 74.0802C176.195 74.0205 176.063 73.786 175.711 73.5395C175.238 73.2265 174.68 73.0643 174.112 73.0743C173.545 73.0825 172.996 73.2706 172.544 73.611C172.212 73.8695 172.1 74.108 172.164 74.1676Z" fill="#263238"/>
<path d="M183.745 76.426C183.746 76.6883 183.85 76.9397 184.036 77.1263C184.221 77.3129 184.473 77.4198 184.737 77.4239C184.866 77.4314 184.995 77.4133 185.117 77.3706C185.238 77.3279 185.35 77.2615 185.446 77.1752C185.542 77.089 185.619 76.9846 185.674 76.8683C185.729 76.7519 185.759 76.6259 185.764 76.4976C185.761 76.2359 185.656 75.9856 185.471 75.7994C185.286 75.6133 185.036 75.5058 184.773 75.4996C184.644 75.4916 184.514 75.5093 184.392 75.5518C184.27 75.5943 184.158 75.6607 184.062 75.7471C183.966 75.8334 183.889 75.938 183.834 76.0546C183.78 76.1712 183.75 76.2975 183.745 76.426Z" fill="#263238"/>
<path d="M182.865 74.1796C182.993 74.3108 183.753 73.7303 184.841 73.7144C185.928 73.6985 186.736 74.2273 186.84 74.0921C186.896 74.0325 186.764 73.7979 186.412 73.5514C185.938 73.2399 185.381 73.079 184.813 73.0902C184.246 73.0976 183.697 73.2842 183.245 73.623C182.913 73.8854 182.805 74.1239 182.865 74.1796Z" fill="#263238"/>
<path d="M179.062 82.2745C179.062 82.2148 178.387 82.1114 177.287 81.9882C177.007 81.9643 176.743 81.9166 176.695 81.7298C176.666 81.4444 176.726 81.1569 176.867 80.9068C177.115 80.2309 177.375 79.5272 177.667 78.7876C178.754 75.77 179.534 73.293 179.414 73.2493C179.294 73.2056 178.311 75.6348 177.223 78.6326C176.959 79.3761 176.711 80.0877 176.471 80.7636C176.303 81.1012 176.259 81.4867 176.347 81.853C176.389 81.9499 176.453 82.0361 176.533 82.1049C176.613 82.1738 176.708 82.2236 176.811 82.2506C176.965 82.2893 177.124 82.3093 177.283 82.3102C178.375 82.342 179.058 82.3381 179.062 82.2745Z" fill="#263238"/>
<path d="M178.539 95.1124C182.252 95.1033 185.89 94.0696 189.048 92.1265C189.048 92.1265 186.344 97.6529 178.439 97.0605L178.539 95.1124Z" fill="#7C3B29"/>
<path d="M179.566 84.8746C179.769 84.6122 180.036 84.4052 180.342 84.2731C180.648 84.141 180.982 84.0881 181.314 84.1192C181.554 84.1377 181.788 84.2035 182.002 84.3127C182.216 84.4219 182.406 84.5724 182.561 84.7554C182.71 84.9339 182.8 85.1535 182.82 85.3846C182.839 85.6156 182.786 85.847 182.669 86.0475C182.5 86.2477 182.274 86.3926 182.021 86.4635C181.768 86.5344 181.499 86.528 181.25 86.4451C180.733 86.2741 180.254 86.0039 179.842 85.6499C179.719 85.565 179.612 85.4586 179.526 85.3358C179.488 85.2766 179.467 85.2076 179.467 85.1371C179.467 85.0665 179.488 84.9975 179.526 84.9383" fill="#7C3B29"/>
<path d="M182.293 82.9662C182.118 82.9662 182.134 84.1351 181.138 84.986C180.142 85.8368 178.882 85.7294 178.874 85.8964C178.874 85.968 179.158 86.1191 179.674 86.123C180.367 86.1209 181.037 85.876 181.566 85.4312C182.073 85.0034 182.393 84.3959 182.457 83.7375C182.493 83.2485 182.357 82.9583 182.293 82.9662Z" fill="#263238"/>
<path d="M182.509 69.9453C182.621 70.2356 183.709 70.0765 184.985 70.2077C186.26 70.3389 187.304 70.6689 187.468 70.3986C187.544 70.2713 187.36 70.001 186.936 69.7227C186.374 69.3829 185.742 69.1749 185.087 69.1143C184.433 69.0536 183.772 69.142 183.157 69.3728C182.693 69.5716 182.461 69.8062 182.509 69.9453Z" fill="#263238"/>
<path d="M172.508 71.0308C172.704 71.2693 173.452 71.0029 174.352 70.9751C175.251 70.9473 176.019 71.1103 176.191 70.8519C176.267 70.7246 176.139 70.4781 175.791 70.2515C175.337 69.9818 174.813 69.8518 174.285 69.8779C173.757 69.9041 173.249 70.0853 172.824 70.3986C172.524 70.6571 172.424 70.9115 172.508 71.0308Z" fill="#263238"/>
<path d="M168.629 61.3177C169.829 64.1008 172.584 68.2278 175.599 68.5935C177.111 68.7557 178.639 68.531 180.039 67.941C181.439 67.3509 182.663 66.415 183.597 65.222C184.053 67.4564 186.548 68.6412 188.796 69.011C190.395 69.2734 192.083 69.2893 193.594 68.689C195.106 68.0886 196.393 66.7845 196.629 65.1942C196.865 63.6039 194.594 59.6837 192.998 59.3895" fill="#263238"/>
<path d="M189.363 66.884C188.836 68.0573 188.796 69.3902 189.252 70.5927C189.708 71.7953 190.623 72.77 191.799 73.3049C190.687 74.6766 190.487 76.6208 190.911 78.3344C191.335 80.048 192.307 81.5787 193.35 83.006C193.35 83.006 190.639 86.9063 196.098 89.7649C196.098 89.7649 199.928 88.5722 198.217 82.843C198.081 82.4328 198.106 81.9865 198.289 81.5946C198.527 81.2622 198.856 81.0043 199.237 80.8511C200.676 80.0542 201.742 78.7266 202.205 77.1548C202.668 75.583 202.491 73.8932 201.712 72.4501C201.471 72.0835 201.292 71.6808 201.18 71.2574C201.072 70.6133 200.576 68.9315 200.78 68.3153C201.952 65.0988 200.444 61.1031 196.649 59.1192C193.606 57.5288 189.795 57.2624 187.452 59.7791" fill="#263238"/>
<path d="M210.553 129.428L215.752 109.211L201.168 101.231L187.092 122.804L174.34 101.828L161.203 107.74C160.34 108.13 159.646 108.816 159.248 109.672L147.363 141.63L163.423 146.798L165.262 139.391L167.378 152.182L161.267 185.746L213.705 185.555L204.411 151.096L205.703 143.411L210.553 129.428Z" fill="#2E8A4B"/>
<g opacity="0.3">
<path d="M166.53 155.633C170.129 156.237 173.368 153.068 177.015 153.04C180.378 153.016 183.169 155.637 186.444 156.396C187.888 156.73 189.463 156.718 190.711 157.505C191.671 158.11 192.311 159.096 192.966 160.014C196.169 164.361 200.84 167.414 206.123 168.614C206.922 168.793 208.714 169.409 209.206 168.737L208.686 166.677L208.23 160.431L190.659 147.709L170.605 148.687L166.53 155.633Z" fill="black"/>
</g>
<path d="M205.047 126.374H194.198V128.16H205.047V126.374Z" fill="#263238"/>
<path d="M205.783 148.186C210.182 149.736 214.98 149.502 219.571 148.83C220.663 148.667 221.802 148.46 222.662 147.772C222.95 147.546 223.646 146.977 223.634 146.826C223.602 146.409 222.834 145.852 222.398 145.506C220.728 144.223 218.8 143.311 216.745 142.831C214.69 142.35 212.556 142.314 210.485 142.723C209.382 142.921 208.326 143.325 207.374 143.916C206.443 144.536 205.859 144.878 205.539 145.947" fill="#2E8A4B"/>
<g opacity="0.3">
<path d="M205.783 148.186C210.182 149.736 214.98 149.502 219.571 148.83C220.663 148.667 221.802 148.46 222.662 147.772C222.95 147.546 223.646 146.977 223.634 146.826C223.602 146.409 222.834 145.852 222.398 145.506C220.728 144.223 218.8 143.311 216.745 142.831C214.69 142.35 212.556 142.314 210.485 142.723C209.382 142.921 208.326 143.325 207.374 143.916C206.443 144.536 205.859 144.878 205.539 145.947" fill="black"/>
</g>
<path d="M223.634 146.826C223.634 146.826 219.027 119.508 218.743 117.071C218.027 111.028 215.74 109.095 215.74 109.095L205.047 141.63L205.787 148.186C205.787 148.186 209.166 143.129 223.634 146.826Z" fill="#2E8A4B"/>
<path d="M217.739 124.887C217.69 125.118 217.623 125.343 217.539 125.563C217.404 125.997 217.176 126.613 216.88 127.368C216.094 129.333 215.158 131.235 214.08 133.058C212.998 134.876 211.77 136.604 210.409 138.226C209.886 138.847 209.446 139.34 209.13 139.666C208.973 139.841 208.804 140.005 208.626 140.159C208.759 139.964 208.907 139.781 209.07 139.61C209.366 139.268 209.79 138.763 210.298 138.131C211.616 136.484 212.818 134.749 213.897 132.939C214.969 131.129 215.92 129.251 216.744 127.317C217.056 126.569 217.304 125.961 217.463 125.539C217.539 125.316 217.631 125.098 217.739 124.887Z" fill="#263238"/>
<path d="M167.31 151.502C167.297 151.474 167.289 151.445 167.286 151.414C167.286 151.343 167.258 151.255 167.238 151.148C167.202 150.897 167.146 150.559 167.078 150.13C166.926 149.228 166.714 147.955 166.45 146.393C165.898 143.22 165.098 138.886 164.227 134.076C163.355 129.265 162.555 124.931 161.975 121.75L161.315 118.013C161.251 117.588 161.195 117.246 161.155 116.995L161.127 116.729C161.121 116.699 161.121 116.668 161.127 116.638C161.14 116.665 161.148 116.695 161.151 116.725C161.151 116.797 161.183 116.884 161.203 116.987C161.251 117.238 161.315 117.576 161.399 118.001C161.575 118.9 161.819 120.164 162.123 121.723C162.727 124.868 163.555 129.217 164.438 134.024C165.322 138.831 166.086 143.188 166.598 146.349C166.854 147.939 167.042 149.212 167.162 150.098C167.214 150.532 167.254 150.874 167.286 151.124C167.286 151.231 167.286 151.319 167.31 151.39C167.315 151.427 167.315 151.465 167.31 151.502Z" fill="#263238"/>
<path d="M211.345 118.57C211.337 118.673 211.318 118.776 211.289 118.876C211.241 119.095 211.177 119.385 211.093 119.747C210.913 120.522 210.661 121.611 210.35 122.927C209.714 125.627 208.834 129.352 207.902 133.479C206.97 137.606 206.159 141.347 205.623 144.067C205.359 145.427 205.143 146.528 205.011 147.291C204.947 147.657 204.891 147.947 204.851 148.17C204.839 148.273 204.816 148.374 204.783 148.472C204.783 148.368 204.793 148.264 204.811 148.162C204.843 147.939 204.883 147.645 204.931 147.279C205.039 146.508 205.231 145.403 205.479 144.039C205.979 141.312 206.763 137.562 207.698 133.432C208.634 129.301 209.534 125.583 210.206 122.892C210.541 121.564 210.817 120.482 211.005 119.711C211.101 119.353 211.181 119.067 211.237 118.848C211.264 118.752 211.3 118.659 211.345 118.57Z" fill="#263238"/>
<path d="M170.961 103.227C170.994 103.265 171.024 103.306 171.049 103.35L171.297 103.748C171.516 104.09 171.828 104.583 172.228 105.215L175.619 110.618L186.816 128.657H186.644L187.172 127.913C187.744 127.118 188.304 126.323 188.832 125.591V125.726L178.499 108.69C177.203 106.539 176.159 104.802 175.435 103.593L174.616 102.213L174.408 101.851C174.38 101.812 174.357 101.769 174.34 101.724C174.371 101.76 174.399 101.799 174.424 101.84L174.648 102.193C174.848 102.511 175.135 102.989 175.499 103.557C176.239 104.75 177.303 106.479 178.618 108.618L189.016 125.619L189.048 125.675L189.012 125.73C188.48 126.47 187.92 127.257 187.352 128.052L186.82 128.796L186.728 128.923L186.648 128.792L175.495 110.702C174.088 108.4 172.948 106.539 172.156 105.239C171.756 104.603 171.468 104.102 171.257 103.752L171.029 103.354C171.002 103.314 170.979 103.272 170.961 103.227Z" fill="#263238"/>
<path d="M201.156 101.112C201.143 101.153 201.122 101.192 201.096 101.227L200.892 101.553L200.092 102.802L197.133 107.394L187.16 122.741V122.629C187.6 123.345 188.068 124.108 188.544 124.876L188.992 125.603H188.816C190.951 122.422 192.918 119.377 194.722 116.614C196.525 113.851 198.169 111.382 199.601 109.346C201.032 107.31 202.228 105.696 203.068 104.575L204.047 103.315L204.307 102.989C204.335 102.952 204.366 102.917 204.399 102.885C204.379 102.928 204.353 102.968 204.323 103.005L204.079 103.338C203.855 103.641 203.539 104.074 203.132 104.623C202.332 105.74 201.132 107.366 199.72 109.394C198.309 111.421 196.669 113.91 194.882 116.681C193.094 119.453 191.135 122.546 188.999 125.726L188.908 125.862L188.824 125.722L188.376 124.995L186.996 122.749L186.96 122.697L186.996 122.641L197.025 107.33L200.036 102.774L200.86 101.545L201.076 101.231L201.156 101.112Z" fill="#263238"/>
<path d="M172.52 139.356C171.728 139.016 170.838 138.979 170.02 139.252C169.202 139.525 168.515 140.088 168.089 140.835C167.767 141.471 167.64 142.187 167.726 142.894C167.811 143.602 168.105 144.268 168.569 144.81C169.517 145.812 171.812 146.496 172.88 145.287L172.52 139.356Z" fill="#EBEBEB"/>
<path d="M172.52 139.356C172.548 139.495 172.565 139.635 172.572 139.777C172.596 140.087 172.632 140.493 172.672 140.99C172.748 142.075 172.852 143.558 172.972 145.299V145.339L172.948 145.367C172.71 145.614 172.417 145.804 172.093 145.921C171.77 146.038 171.423 146.08 171.081 146.043C170.35 145.995 169.645 145.757 169.037 145.351C168.447 144.964 168.008 144.387 167.794 143.717C167.594 143.101 167.549 142.446 167.662 141.809C167.76 141.229 168.016 140.688 168.401 140.242C168.734 139.861 169.142 139.554 169.601 139.34C170.271 139.029 171.024 138.942 171.748 139.089C172.011 139.139 172.265 139.229 172.5 139.356C172.48 139.356 172.236 139.256 171.736 139.169C171.031 139.056 170.307 139.163 169.665 139.475C169.189 139.691 168.774 140.019 168.455 140.431C168.136 140.844 167.924 141.328 167.838 141.84C167.732 142.447 167.779 143.069 167.973 143.653C168.175 144.279 168.586 144.818 169.137 145.18C169.715 145.564 170.383 145.791 171.077 145.84C171.389 145.877 171.705 145.842 172.002 145.739C172.298 145.636 172.567 145.466 172.788 145.244L172.764 145.311C172.676 143.586 172.604 142.131 172.548 141.041C172.528 140.536 172.512 140.123 172.5 139.809C172.497 139.657 172.503 139.506 172.52 139.356Z" fill="#263238"/>
<path d="M169.661 139.355C169.661 139.355 170.801 116.001 171.388 112.654C171.976 109.306 173.488 103.907 175.867 100.619C178.143 97.4899 178.367 97.2712 178.367 97.2712L178.215 100.186C176.056 103.958 174.515 108.047 173.648 112.3C172.38 118.916 171.508 139.336 171.508 139.336L169.661 139.355Z" fill="#263238"/>
<path d="M203.044 143.53C202.376 143.523 201.716 143.388 201.1 143.133L201.404 142.397C202.219 142.752 203.13 142.824 203.991 142.6C204.416 142.475 204.807 142.257 205.134 141.961C205.462 141.665 205.718 141.299 205.883 140.89C206.143 140.083 206.157 139.217 205.923 138.401C205.762 137.797 205.562 137.204 205.327 136.624C205.227 136.366 205.127 136.107 205.031 135.829C203.351 131.134 203.643 125.889 203.899 121.242L204.699 121.285C204.447 125.846 204.163 131.018 205.791 135.563C205.883 135.821 205.979 136.072 206.075 136.326C206.325 136.936 206.536 137.562 206.706 138.199C206.984 139.171 206.959 140.203 206.635 141.161C206.43 141.683 206.107 142.152 205.691 142.531C205.275 142.911 204.777 143.19 204.235 143.347C203.849 143.466 203.448 143.528 203.044 143.53Z" fill="#E0E0E0"/>
<path d="M202.968 143.88C201.632 143.88 200.464 143.256 199.449 142.007C198.129 140.393 197.917 136.39 197.733 132.863C197.669 131.599 197.605 130.406 197.493 129.539C197.093 126.486 195.338 122.383 195.322 122.347L196.054 122.033C196.13 122.204 197.877 126.271 198.285 129.44C198.401 130.334 198.465 131.543 198.533 132.819C198.701 136.064 198.913 140.103 200.068 141.514C201.812 143.649 203.927 143.63 206.926 141.447L207.398 142.091C205.747 143.28 204.287 143.88 202.968 143.88Z" fill="#EBEBEB"/>
<path d="M205.787 142.127C205.936 141.718 206.142 141.333 206.399 140.982C206.643 140.639 207.014 140.406 207.43 140.334C207.638 140.309 207.849 140.35 208.033 140.45C208.216 140.551 208.364 140.706 208.454 140.894C208.533 141.091 208.557 141.306 208.525 141.515C208.493 141.725 208.405 141.922 208.27 142.087C208.009 142.39 207.647 142.591 207.25 142.652C206.864 142.701 206.473 142.701 206.087 142.652" fill="#263238"/>
<path d="M197.805 107.477C200.937 111.474 202.815 116.301 203.204 121.353H204.867C204.523 115.562 202.238 110.053 198.377 105.704C198.797 104.384 199.103 103.032 199.293 101.661C199.661 98.5554 196.233 96.6749 196.233 96.6749V99.0286C196.666 99.2725 197.025 99.6281 197.271 100.058C197.517 100.487 197.642 100.975 197.633 101.47C197.557 103.144 196.293 106.702 195.058 109.771C194.017 112.289 193.552 115.005 193.694 117.723C193.81 121.202 195.178 122.78 195.178 122.78L196.829 122.084C196.829 122.084 195.842 120.856 195.414 117.496C195.086 114.928 195.85 112.92 196.513 111.063C196.849 110.141 197.333 108.869 197.805 107.477Z" fill="#263238"/>
<path d="M150.011 142.385L148.011 149.967C147.675 151.171 147.66 152.44 147.966 153.652C148.272 154.863 148.89 155.975 149.759 156.877C149.867 156.984 149.979 157.092 150.091 157.191C151.135 158.12 152.419 158.741 153.798 158.985C155.178 159.229 156.598 159.085 157.9 158.571L178.61 150.377L175.551 141.093L159.872 145.534L150.011 142.385Z" fill="#A36957"/>
<path d="M167.014 129.75L170.769 149.629C170.847 150.049 171.075 150.427 171.411 150.693C171.746 150.96 172.167 151.097 172.596 151.08L201.284 149.979C201.758 149.96 202.204 149.756 202.527 149.412C202.85 149.067 203.023 148.609 203.008 148.138L202.352 129.356C202.336 128.895 202.14 128.457 201.806 128.137C201.472 127.816 201.025 127.637 200.56 127.639H168.773C168.51 127.638 168.249 127.696 168.011 127.807C167.772 127.918 167.561 128.08 167.393 128.282C167.225 128.484 167.104 128.72 167.038 128.974C166.973 129.228 166.964 129.493 167.014 129.75Z" fill="#455A64"/>
<path d="M198.357 137.845C197.82 137.844 197.295 138.004 196.851 138.305C196.407 138.606 196.065 139.033 195.87 139.53C195.47 140.608 194.846 141.864 194.174 142.226C192.93 142.902 190.779 143.443 189.651 142.89C188.524 142.337 183.997 138.294 183.205 138.743C182.413 139.193 181.734 140.202 182.525 141.105C183.317 142.007 187.492 144.703 186.692 145.606C185.892 146.508 177.095 142.544 175.723 142.894C174.352 143.244 173.576 144.087 174.368 144.616C175.159 145.144 181.166 147.399 181.49 148.194C181.49 148.194 172.444 145.832 172.104 146.397C171.764 146.961 171.201 147.856 172.104 148.194C173.008 148.532 180.814 150.555 181.49 150.893C182.612 151.358 183.783 151.696 184.981 151.903C185.225 151.903 186.98 152.496 188.624 153.052C190.455 153.685 192.455 153.633 194.25 152.905L195.166 152.531C195.859 152.249 196.447 151.758 196.846 151.127C197.246 150.496 197.437 149.757 197.393 149.013L197.209 145.947L198.197 143.415L198.357 137.845Z" fill="#A36957"/>
<path d="M191.111 153.482C191.111 153.482 207.618 168.339 213.177 168.383C219.035 168.427 222.334 162.384 221.71 158.626C221.374 156.639 220.511 146.146 220.511 146.146C216.588 145.081 210.725 144.604 206.547 147.367L208.07 153.482L197.049 148.186L191.111 153.482Z" fill="#A36957"/>
<path d="M223.634 146.826C223.57 146.823 223.507 146.812 223.446 146.794L222.91 146.667C222.45 146.556 221.782 146.393 220.955 146.206C218.807 145.691 216.605 145.438 214.396 145.45C213.188 145.488 211.985 145.621 210.797 145.848C209.822 146.017 208.87 146.296 207.958 146.679C207.346 146.943 206.775 147.293 206.263 147.717C205.907 148.023 205.735 148.222 205.719 148.21C205.748 148.153 205.786 148.101 205.831 148.055C205.949 147.914 206.076 147.782 206.211 147.657C206.711 147.202 207.281 146.827 207.898 146.548C208.813 146.137 209.774 145.839 210.761 145.661C211.963 145.418 213.183 145.275 214.408 145.236C216.633 145.218 218.85 145.494 221.002 146.055C221.83 146.262 222.494 146.452 222.95 146.584L223.47 146.747C223.574 146.798 223.638 146.818 223.634 146.826Z" fill="#263238"/>
<path d="M271.788 185.642C271.788 185.698 213.633 185.746 141.913 185.746C70.193 185.746 12.0215 185.698 12.0215 185.642C12.0215 185.587 70.165 185.539 141.913 185.539C213.661 185.539 271.788 185.587 271.788 185.642Z" fill="#263238"/>
<path d="M237.078 167.819C237.922 169.011 239.537 168.594 240.277 167.866C241.017 167.139 241.329 166.089 241.609 165.083C242.253 162.801 242.896 160.404 242.388 158.09C242.267 157.387 241.951 156.732 241.477 156.197C241.237 155.933 240.932 155.736 240.591 155.626C240.251 155.516 239.888 155.496 239.537 155.569C238.737 155.792 238.226 156.591 237.866 157.346C236.806 159.584 236.26 162.029 236.266 164.503C236.266 165.652 236.418 166.86 237.066 167.803" fill="#2E8A4B"/>
<g opacity="0.2">
<path d="M237.078 167.819C237.922 169.011 239.537 168.594 240.277 167.866C241.017 167.139 241.329 166.089 241.609 165.083C242.253 162.801 242.896 160.404 242.388 158.09C242.267 157.387 241.951 156.732 241.477 156.197C241.237 155.933 240.932 155.736 240.591 155.626C240.251 155.516 239.888 155.496 239.537 155.569C238.737 155.792 238.226 156.591 237.866 157.346C236.806 159.584 236.26 162.029 236.266 164.503C236.266 165.652 236.418 166.86 237.066 167.803" fill="black"/>
</g>
<path d="M240.253 173.782C241.644 173.122 243.21 172.92 244.724 173.206C245.551 173.273 246.333 173.613 246.943 174.172C247.499 174.772 247.611 175.838 246.983 176.363C246.576 176.641 246.084 176.771 245.591 176.728C244.392 176.728 243.092 176.526 242.152 177.241C241.617 177.639 241.265 178.323 240.621 178.525C240.299 178.601 239.961 178.571 239.657 178.44C239.354 178.309 239.101 178.084 238.937 177.798C238.625 177.21 238.552 176.525 238.733 175.886C238.806 175.442 238.981 175.021 239.245 174.656C239.508 174.291 239.853 173.992 240.253 173.782Z" fill="#2E8A4B"/>
<path d="M234.815 169.532C235.24 168.972 235.522 168.317 235.634 167.624C235.746 166.931 235.686 166.221 235.458 165.556C234.988 164.23 234.157 163.059 233.059 162.173C231.817 161.094 230.376 160.263 228.816 159.728C228.212 159.493 227.565 159.388 226.917 159.422C226.59 159.442 226.274 159.541 225.995 159.711C225.716 159.88 225.483 160.116 225.317 160.396C224.881 161.239 225.317 162.256 225.781 163.087C226.603 164.551 227.539 165.948 228.58 167.266C229.416 168.324 230.38 169.369 231.647 169.838C232.915 170.308 234.235 170.236 234.899 169.365" fill="#2E8A4B"/>
<path d="M237.17 185.65C237.213 185.473 237.238 185.292 237.242 185.109C237.278 184.712 237.322 184.231 237.374 183.646C237.441 182.923 237.547 182.204 237.69 181.491C237.876 180.626 238.131 179.776 238.454 178.951C238.77 178.125 239.204 177.349 239.741 176.645C240.177 176.071 240.735 175.601 241.377 175.269C241.812 175.051 242.279 174.902 242.76 174.828C242.941 174.819 243.121 174.792 243.296 174.748C243.115 174.729 242.933 174.729 242.752 174.748C242.249 174.791 241.759 174.926 241.305 175.146C240.63 175.467 240.039 175.941 239.581 176.53C239.022 177.244 238.572 178.038 238.246 178.883C237.919 179.722 237.665 180.586 237.486 181.468C237.353 182.188 237.264 182.915 237.218 183.646C237.174 184.271 237.162 184.775 237.154 185.121C237.141 185.298 237.146 185.475 237.17 185.65Z" fill="#263238"/>
<path d="M237.262 184.521C237.272 184.438 237.272 184.354 237.262 184.271C237.262 184.084 237.262 183.849 237.262 183.559C237.262 182.939 237.262 182.044 237.262 180.939C237.302 178.728 237.47 175.675 237.814 172.319C238.158 168.964 238.614 165.958 239.061 163.775C239.165 163.23 239.265 162.741 239.365 162.312C239.465 161.883 239.537 161.517 239.613 161.215C239.689 160.913 239.733 160.702 239.777 160.519C239.808 160.513 239.835 160.497 239.854 160.472C239.873 160.448 239.881 160.417 239.879 160.387C239.876 160.356 239.862 160.327 239.839 160.307C239.816 160.286 239.786 160.274 239.755 160.274C239.724 160.274 239.694 160.286 239.672 160.307C239.649 160.327 239.635 160.356 239.632 160.387C239.629 160.417 239.638 160.448 239.657 160.472C239.675 160.497 239.703 160.513 239.733 160.519C239.677 160.698 239.613 160.917 239.529 161.203C239.445 161.489 239.349 161.867 239.241 162.296C239.133 162.726 239.021 163.211 238.905 163.755C238.315 166.582 237.875 169.438 237.59 172.311C237.246 175.675 237.102 178.732 237.106 180.951C237.106 182.06 237.134 182.939 237.166 183.575C237.166 183.861 237.202 184.1 237.214 184.287C237.222 184.366 237.238 184.445 237.262 184.521Z" fill="#263238"/>
<path d="M237.23 178.605C237.25 178.358 237.25 178.109 237.23 177.862C237.198 177.384 237.126 176.693 236.982 175.846C236.593 173.647 235.938 171.503 235.031 169.461C234.158 167.389 232.912 165.494 231.356 163.867C231.087 163.582 230.8 163.317 230.496 163.071C230.364 162.96 230.248 162.853 230.132 162.765L229.796 162.543C229.596 162.394 229.385 162.261 229.164 162.145C229.894 162.707 230.589 163.314 231.244 163.962C232.754 165.6 233.971 167.482 234.843 169.528C235.341 170.644 235.764 171.792 236.11 172.963C236.402 173.919 236.645 174.889 236.838 175.87C236.998 176.705 237.094 177.388 237.15 177.858C237.159 178.108 237.185 178.358 237.23 178.605Z" fill="#263238"/>
<path d="M219.731 32.1431H219.631C218.723 32.1431 217.987 32.8747 217.987 33.7771V49.7719C217.987 50.6744 218.723 51.406 219.631 51.406H219.731C220.639 51.406 221.374 50.6744 221.374 49.7719V33.7771C221.374 32.8747 220.639 32.1431 219.731 32.1431Z" fill="#E0E0E0"/>
<path d="M219.731 37.9001H219.631C218.723 37.9001 217.987 38.6317 217.987 39.5342V49.7719C217.987 50.6744 218.723 51.406 219.631 51.406H219.731C220.639 51.406 221.374 50.6744 221.374 49.7719V39.5342C221.374 38.6317 220.639 37.9001 219.731 37.9001Z" fill="#2E8A4B"/>
<path d="M225.277 32.1431H225.177C224.27 32.1431 223.534 32.8747 223.534 33.7771V49.7719C223.534 50.6744 224.27 51.406 225.177 51.406H225.277C226.185 51.406 226.921 50.6744 226.921 49.7719V33.7771C226.921 32.8747 226.185 32.1431 225.277 32.1431Z" fill="#E0E0E0"/>
<path d="M225.277 40.8859H225.177C224.27 40.8859 223.534 41.6175 223.534 42.52V49.7719C223.534 50.6744 224.27 51.406 225.177 51.406H225.277C226.185 51.406 226.921 50.6744 226.921 49.7719V42.52C226.921 41.6175 226.185 40.8859 225.277 40.8859Z" fill="#2E8A4B"/>
<path d="M231.552 32.1431H231.452C230.544 32.1431 229.808 32.8747 229.808 33.7771V49.7719C229.808 50.6744 230.544 51.406 231.452 51.406H231.552C232.459 51.406 233.195 50.6744 233.195 49.7719V33.7771C233.195 32.8747 232.459 32.1431 231.552 32.1431Z" fill="#E0E0E0"/>
<path d="M231.552 35.6259H231.452C230.544 35.6259 229.808 36.3575 229.808 37.2599V49.7759C229.808 50.6783 230.544 51.4099 231.452 51.4099H231.552C232.459 51.4099 233.195 50.6783 233.195 49.7759V37.2599C233.195 36.3575 232.459 35.6259 231.552 35.6259Z" fill="#2E8A4B"/>
<path d="M219.731 51.4099C219.731 51.4099 219.883 51.4099 220.155 51.3304C220.55 51.2182 220.886 50.9591 221.095 50.6068C221.247 50.3577 221.326 50.0712 221.322 49.7798C221.322 49.4498 221.322 49.096 221.322 48.7143C221.322 47.9509 221.322 47.0802 221.322 46.1221C221.322 44.1978 221.322 41.9116 221.322 39.3631C221.322 38.0948 221.322 36.7629 221.322 35.3873V34.3456C221.347 34.0035 221.324 33.6597 221.254 33.3238C221.149 32.9969 220.938 32.7139 220.653 32.519C220.369 32.3241 220.028 32.2282 219.683 32.2464C219.34 32.2485 219.007 32.3641 218.737 32.575C218.467 32.7859 218.275 33.0801 218.191 33.4113C218.141 33.7534 218.125 34.0997 218.143 34.445V35.4748C218.143 36.8544 218.143 38.1863 218.143 39.4506C218.143 41.9872 218.143 44.2733 218.143 46.2095C218.143 47.1677 218.143 48.0344 218.143 48.8018C218.143 49.1994 218.143 49.5413 218.143 49.8633C218.16 50.1486 218.256 50.4237 218.419 50.6585C218.652 50.9951 219.003 51.2332 219.403 51.3264C219.679 51.3821 219.831 51.3702 219.831 51.3821C219.687 51.4066 219.539 51.4066 219.395 51.3821C218.975 51.3021 218.602 51.0661 218.351 50.7221C218.17 50.4715 218.063 50.1753 218.043 49.8673C218.043 49.5333 218.043 49.1835 218.043 48.8018C218.043 48.0344 218.043 47.1677 218.043 46.2095C218.043 44.2852 218.043 41.9991 218.019 39.4506C218.019 38.1783 218.019 36.8464 218.019 35.4748C218.019 35.1289 218.019 34.779 218.019 34.4291V33.9162C218.013 33.7293 218.031 33.5423 218.071 33.3596C218.167 32.984 218.385 32.6505 218.692 32.4116C218.999 32.1727 219.377 32.0419 219.767 32.0396C220.158 32.0249 220.543 32.135 220.867 32.3537C221.182 32.5763 221.416 32.8943 221.534 33.2602C221.586 33.4413 221.613 33.6285 221.614 33.8168V34.3456C221.614 34.6995 221.614 35.0454 221.614 35.3913C221.614 36.7749 221.614 38.1068 221.614 39.3671C221.614 41.9037 221.614 44.1898 221.59 46.126C221.59 47.0842 221.59 47.9549 221.59 48.7183C221.59 49.1159 221.59 49.4538 221.59 49.7838C221.586 50.0905 221.497 50.3902 221.334 50.6505C221.204 50.8495 221.032 51.0177 220.83 51.1434C220.627 51.269 220.4 51.3492 220.163 51.3781C220.022 51.4134 219.876 51.4241 219.731 51.4099Z" fill="#263238"/>
<path d="M225.273 51.4099C225.273 51.4099 225.425 51.4099 225.697 51.3304C226.037 51.2366 226.336 51.0337 226.548 50.7533C226.76 50.4728 226.873 50.1306 226.869 49.7798C226.869 49.4498 226.869 49.096 226.869 48.7143C226.869 47.951 226.869 47.0802 226.869 46.1221C226.869 44.1978 226.869 41.9117 226.869 39.3631C226.869 38.0948 226.869 36.7629 226.869 35.3873V34.3456C226.892 34.0034 226.868 33.6595 226.797 33.3238C226.689 32.9991 226.478 32.7177 226.196 32.5215C225.915 32.3252 225.577 32.2245 225.233 32.2343C224.889 32.2441 224.557 32.364 224.287 32.576C224.017 32.788 223.823 33.0809 223.734 33.4113C223.685 33.7536 223.67 34.0999 223.69 34.445C223.69 34.7949 223.69 35.1448 223.69 35.4907C223.69 36.8703 223.69 38.2022 223.69 39.4665C223.69 42.0031 223.69 44.2892 223.666 46.2254C223.666 47.1836 223.666 48.0503 223.666 48.8177C223.666 49.2153 223.666 49.5572 223.666 49.8792C223.686 50.1637 223.781 50.4379 223.942 50.6744C224.176 51.0115 224.528 51.2497 224.929 51.3423C225.201 51.398 225.357 51.3861 225.353 51.398C225.209 51.4226 225.062 51.4226 224.917 51.398C224.556 51.3293 224.228 51.1434 223.984 50.8692C223.74 50.5951 223.594 50.2484 223.57 49.8832C223.57 49.5492 223.57 49.1994 223.57 48.8177C223.57 48.0503 223.57 47.1836 223.57 46.2254C223.57 44.3011 223.57 42.015 223.55 39.4665C223.55 38.1942 223.55 36.8623 223.55 35.4907V33.9003C223.542 33.7133 223.559 33.5261 223.602 33.3437C223.697 32.9677 223.915 32.6339 224.222 32.3949C224.529 32.1559 224.907 32.0253 225.297 32.0237C225.687 32.0084 226.071 32.1186 226.393 32.3378C226.711 32.559 226.946 32.8774 227.065 33.2443C227.118 33.4251 227.143 33.6127 227.141 33.8009V35.3913C227.141 36.7749 227.141 38.1068 227.141 39.3671C227.141 41.9037 227.141 44.1898 227.121 46.126C227.121 47.0842 227.121 47.9549 227.121 48.7183C227.121 49.1159 227.121 49.4538 227.121 49.7838C227.117 50.0911 227.027 50.3913 226.861 50.6505C226.636 51.0128 226.277 51.2727 225.861 51.3741C225.671 51.4311 225.469 51.4433 225.273 51.4099Z" fill="#263238"/>
<path d="M231.548 51.4099C231.548 51.4099 231.699 51.4099 231.971 51.3304C232.311 51.2366 232.611 51.0337 232.822 50.7532C233.034 50.4728 233.147 50.1306 233.143 49.7798C233.143 49.4498 233.143 49.096 233.143 48.7143C233.143 47.951 233.143 47.0802 233.143 46.1221C233.143 44.1978 233.143 41.9117 233.119 39.3631C233.119 38.0948 233.119 36.7629 233.119 35.3873V34.3456C233.142 34.0034 233.118 33.6595 233.047 33.3238C232.939 32.9991 232.728 32.7177 232.446 32.5215C232.165 32.3252 231.827 32.2245 231.483 32.2343C231.139 32.2441 230.807 32.364 230.537 32.576C230.267 32.788 230.073 33.0809 229.984 33.4113C229.935 33.7536 229.919 34.0997 229.936 34.445V35.4748C229.936 36.8544 229.936 38.1863 229.936 39.4506C229.936 41.9872 229.936 44.2733 229.912 46.2095C229.912 47.1677 229.912 48.0344 229.912 48.8018C229.912 49.1994 229.912 49.5413 229.912 49.8633C229.931 50.1482 230.026 50.4229 230.188 50.6585C230.421 50.9945 230.772 51.2325 231.172 51.3264C231.448 51.3821 231.6 51.3702 231.6 51.3821C231.455 51.4067 231.308 51.4067 231.164 51.3821C230.802 51.3134 230.474 51.1274 230.23 50.8533C229.986 50.5792 229.84 50.2324 229.816 49.8673C229.816 49.5333 229.816 49.1835 229.816 48.8018C229.816 48.0344 229.816 47.1677 229.816 46.2095C229.816 44.2852 229.816 41.9991 229.816 39.4506C229.816 38.1783 229.816 36.8464 229.816 35.4748V33.8844C229.808 33.6974 229.826 33.5102 229.868 33.3278C229.963 32.9518 230.181 32.618 230.488 32.379C230.795 32.14 231.174 32.0094 231.564 32.0078C231.952 31.9895 232.336 32.0992 232.656 32.3199C232.975 32.5405 233.213 32.8599 233.331 33.2284C233.384 33.4092 233.409 33.5968 233.407 33.785V35.3754C233.407 36.759 233.407 38.0909 233.407 39.3512C233.407 41.8878 233.407 44.1739 233.407 46.1101C233.407 47.0683 233.407 47.939 233.407 48.7024C233.407 49.1 233.407 49.4379 233.407 49.7679C233.403 50.0752 233.313 50.3754 233.147 50.6346C232.922 50.9969 232.563 51.2568 232.147 51.3582C231.954 51.4224 231.749 51.4401 231.548 51.4099Z" fill="#263238"/>
<path d="M225.593 19.6828C225.714 19.6731 225.836 19.6731 225.957 19.6828L227.033 19.7106C227.269 19.7106 227.537 19.7106 227.833 19.7464L228.78 19.8815L229.888 20.0366L231.124 20.3427C233.253 20.877 235.279 21.7554 237.122 22.9429C239.851 24.6662 242.146 26.9881 243.832 29.7304C245.518 32.4727 246.549 35.5625 246.847 38.7628C246.93 39.7213 246.949 40.6843 246.903 41.6453C246.871 42.1343 246.879 42.6273 246.807 43.1203C246.735 43.6133 246.659 44.1063 246.583 44.6073C246.209 46.6502 245.536 48.6274 244.584 50.4756C243.558 52.4126 242.252 54.1901 240.709 55.7516C239.075 57.3539 237.201 58.6951 235.155 59.7274C233.037 60.8064 230.746 61.5063 228.384 61.7948C227.786 61.8853 227.182 61.9358 226.577 61.9459C225.97 61.9924 225.361 62.003 224.753 61.9777C220.854 61.828 217.071 60.6164 213.817 58.475L214.036 58.4989L206.623 61.4569L206.187 61.6318L206.311 61.1786L208.49 53.2985L208.526 53.4893C206.514 50.8382 205.159 47.7531 204.571 44.484C204.287 42.956 204.192 41.3992 204.287 39.8482C204.301 39.1059 204.371 38.3657 204.495 37.6337C204.555 37.2719 204.611 36.9101 204.667 36.5522C204.723 36.1944 204.839 35.8565 204.923 35.5106C206.17 30.6762 209.1 26.4376 213.193 23.5473C214.706 22.4658 216.363 21.5975 218.115 20.967L219.223 20.5694L220.283 20.2871L221.242 20.0485C221.554 19.9889 221.85 19.9571 222.13 19.9173C222.69 19.8458 223.182 19.7503 223.614 19.7265L224.705 19.6907H225.369C225.445 19.6845 225.521 19.6845 225.597 19.6907C225.523 19.7122 225.446 19.7229 225.369 19.7225L224.709 19.7742L223.626 19.8458C223.198 19.8815 222.71 19.9889 222.154 20.0684C218.132 20.761 214.399 22.5987 211.406 25.3587C208.414 28.1187 206.291 31.6824 205.295 35.6179C205.215 35.9598 205.111 36.2978 205.047 36.6437C204.983 36.9896 204.939 37.3474 204.887 37.7052C204.767 38.4242 204.701 39.1512 204.691 39.88C204.607 41.3947 204.708 42.9139 204.991 44.4045C205.58 47.6034 206.917 50.6199 208.894 53.211L208.958 53.3024L208.93 53.4058C208.231 55.953 207.51 58.5824 206.767 61.2939L206.455 61.0156C208.87 60.0481 211.34 59.0595 213.865 58.0496L213.98 58.0019L214.084 58.0695C217.268 60.1593 220.966 61.3431 224.777 61.4927C225.372 61.5159 225.968 61.5053 226.561 61.4609C227.151 61.4519 227.741 61.4027 228.324 61.3138C230.634 61.0354 232.875 60.3544 234.947 59.302C236.949 58.2958 238.785 56.9898 240.389 55.4295C241.895 53.8968 243.17 52.156 244.176 50.2609C245.121 48.4534 245.795 46.5177 246.175 44.5158C246.25 44.0255 246.326 43.5404 246.403 43.0607C246.475 42.5796 246.467 42.0946 246.503 41.6175C246.55 40.6738 246.534 39.7282 246.455 38.7867C246.175 35.6351 245.175 32.5887 243.532 29.8791C241.889 27.1695 239.646 24.868 236.974 23.1497C235.165 21.9625 233.174 21.0737 231.08 20.5177L229.86 20.1956L228.764 20.0167L227.821 19.8617C227.533 19.8299 227.269 19.8219 227.021 19.806L225.949 19.7265C225.829 19.7224 225.71 19.7078 225.593 19.6828Z" fill="#263238"/>
</g>
<defs>
<clipPath id="clip0_62_16640">
<rect width="256" height="186" fill="white"/>
</clipPath>
</defs>
</svg>
