<svg width="256" height="169" viewBox="0 0 256 169" fill="none" xmlns="http://www.w3.org/2000/svg">
<g clip-path="url(#clip0_108_8079)">
<path d="M209.815 14.1205L208.963 14.4082C201.794 16.8333 196.441 22.9267 195.267 30.3592C195.116 31.315 195.036 32.2808 195.026 33.2486C195.039 36.7686 195.919 40.2308 197.586 43.3276C199.254 46.4243 201.658 49.0596 204.585 50.9991C208.053 53.263 212.316 54.6367 214.721 57.9904C217.848 62.357 216.633 68.3123 215.325 73.4847C214.017 78.6572 212.817 84.6124 215.964 88.9714C217.933 91.6957 221.271 93.173 224.601 93.7371C233.395 95.2259 242.552 90.8861 248.149 84.0138C253.747 77.1415 256.129 68.0974 256.316 59.2413C256.58 46.832 252.546 34.0735 243.947 25.0141C235.348 15.9546 221.943 11.1275 209.815 14.1205Z" fill="#F5F5F5"/>
<path d="M101.168 84.3941C110.856 84.3941 118.71 76.5122 118.71 66.7893C118.71 57.0665 110.856 49.1846 101.168 49.1846C91.4797 49.1846 83.6258 57.0665 83.6258 66.7893C83.6258 76.5122 91.4797 84.3941 101.168 84.3941Z" fill="#F5F5F5"/>
<path d="M21.0013 74.0872C21.6322 75.3841 23.2419 75.2652 24.4424 75.2383C25.5895 75.2114 26.7365 75.1731 27.8836 75.1309C30.0884 75.0516 32.2958 74.962 34.5058 74.8623L35.9319 74.797C36.2111 74.797 36.2149 74.3481 35.9319 74.3596C32.445 74.5208 28.9541 74.6704 25.4633 74.774C24.9089 74.774 24.3545 74.8085 23.8001 74.8162C22.9054 74.8354 21.8157 74.7932 21.3684 73.8684C21.246 73.6152 20.8675 73.8378 20.986 74.091L21.0013 74.0872Z" fill="#263238"/>
<path d="M22.8098 74.9504C23.0287 73.5893 23.6463 72.3243 24.5839 71.3166C24.7751 71.1094 24.4692 70.7986 24.278 71.0058C23.2832 72.0686 22.6257 73.4042 22.3892 74.843C22.3434 75.1192 22.7716 75.2267 22.8098 74.9581V74.9504Z" fill="#263238"/>
<path d="M33.7526 71.5704C33.9061 72.5301 33.8592 73.5114 33.6149 74.4521C33.6072 74.4798 33.6049 74.5088 33.6083 74.5374C33.6116 74.566 33.6206 74.5936 33.6346 74.6187C33.6487 74.6438 33.6675 74.6659 33.69 74.6838C33.7125 74.7016 33.7384 74.7148 33.766 74.7226C33.7936 74.7304 33.8225 74.7327 33.851 74.7293C33.8794 74.7259 33.907 74.7169 33.932 74.7028C33.9571 74.6888 33.9791 74.6699 33.9968 74.6473C34.0146 74.6246 34.0277 74.5987 34.0355 74.571C34.2969 73.5534 34.3438 72.4922 34.1732 71.4553C34.1311 71.179 33.7105 71.2941 33.7526 71.5704Z" fill="#263238"/>
<path d="M29.9176 72.0275C30.56 72.438 30.6823 73.286 30.7664 73.9882C30.8735 74.8639 30.9157 75.7463 30.8926 76.6282C30.8926 76.6862 30.9156 76.7418 30.9565 76.7828C30.9973 76.8239 31.0528 76.8469 31.1106 76.8469C31.1684 76.8469 31.2238 76.8239 31.2647 76.7828C31.3055 76.7418 31.3285 76.6862 31.3285 76.6282C31.3509 75.6401 31.2921 74.6519 31.1526 73.6736C31.0456 72.9062 30.8162 72.085 30.1203 71.6361C29.8832 71.4864 29.6653 71.8625 29.9023 72.0198L29.9176 72.0275Z" fill="#263238"/>
<path d="M40.4245 71.6664C40.8743 72.2092 41.1419 72.8806 41.1892 73.585C41.3065 74.4239 41.3627 75.2703 41.3574 76.1175C41.3574 76.1755 41.3804 76.2311 41.4213 76.2721C41.4621 76.3132 41.5176 76.3362 41.5754 76.3362C41.6332 76.3362 41.6886 76.3132 41.7295 76.2721C41.7703 76.2311 41.7933 76.1755 41.7933 76.1175C41.7974 75.2082 41.7322 74.3 41.5983 73.4008C41.5217 72.6491 41.2144 71.9399 40.7189 71.3709C40.5201 71.1714 40.2104 71.4822 40.4092 71.6779L40.4245 71.6664Z" fill="#263238"/>
<path d="M27.9983 76.0836C28.5336 77.1388 29.7762 77.2348 30.82 77.1542C32.25 77.0659 33.6761 76.9585 35.1061 76.8587L43.7051 76.2716C43.9842 76.2525 43.9842 75.815 43.7051 75.8342L35.7943 76.3599L31.837 76.6323C30.7359 76.7091 28.9962 77.0659 28.373 75.8649C28.243 75.6155 27.8683 75.8342 27.9906 76.0836H27.9983Z" fill="#263238"/>
<path d="M62.4247 61.7319C62.4247 61.7319 62.4247 61.4019 62.3482 60.8148C62.2736 59.9831 62.0764 59.1672 61.7632 58.3936C61.568 57.86 61.2275 57.392 60.7806 57.0429C60.6575 56.9563 60.5173 56.8975 60.3695 56.8703C60.2217 56.8432 60.0697 56.8484 59.9241 56.8856C59.6185 56.9901 59.3517 57.1855 59.1594 57.4458C58.7352 58.0309 58.4382 58.6989 58.2877 59.4066C57.941 60.9372 57.941 62.5265 58.2877 64.0572C58.439 64.7658 58.7359 65.4349 59.1594 66.0218C59.3528 66.2811 59.6191 66.4762 59.9241 66.582C60.0699 66.6197 60.2222 66.6248 60.3702 66.5969C60.5182 66.5691 60.6583 66.509 60.7806 66.4208C61.2281 66.0739 61.5688 65.607 61.7632 65.074C62.0754 64.3001 62.2725 63.4843 62.3482 62.6528C62.4094 62.0619 62.4055 61.7319 62.4247 61.7319C62.432 61.8123 62.432 61.8932 62.4247 61.9736C62.4363 62.2011 62.4363 62.4291 62.4247 62.6566C62.379 63.5025 62.1983 64.3355 61.8894 65.1239C61.6902 65.6858 61.3362 66.1795 60.8685 66.5475C60.7289 66.6485 60.5689 66.7176 60.3998 66.7501C60.2307 66.7826 60.0566 66.7776 59.8897 66.7355C59.5461 66.628 59.2442 66.4161 59.0256 66.1292C58.5799 65.5255 58.2671 64.8336 58.108 64.0994C57.746 62.5419 57.746 60.9218 58.108 59.3644C58.2679 58.6316 58.5807 57.9411 59.0256 57.3384C59.2442 57.0514 59.5461 56.8396 59.8897 56.7321C60.0564 56.6894 60.2303 56.6838 60.3994 56.7156C60.5684 56.7474 60.7285 56.8159 60.8685 56.9163C61.3365 57.2856 61.6905 57.7805 61.8894 58.3437C62.1982 59.1307 62.379 59.9625 62.4247 60.8071C62.4363 61.0359 62.4363 61.2652 62.4247 61.494C62.4322 61.5731 62.4322 61.6527 62.4247 61.7319V61.7319Z" fill="#263238"/>
<path d="M20.466 68.1738C20.2443 66.4317 21.2881 65.0619 23.1424 64.6244C23.1424 64.6244 24.7903 58.3968 29.4932 57.9594C34.1961 57.5219 40.7915 58.2011 42.1986 59.1105C43.6056 60.0199 45.2994 63.0512 46.5611 63.2469C47.8229 63.4426 55.4813 64.3635 55.8674 64.3635C56.1351 64.3635 57.4695 62.1035 58.2839 60.6799C58.4653 60.3617 58.7519 60.1172 59.0942 59.9889C59.4364 59.8607 59.8125 59.8567 60.1574 59.9777H60.1841L58.5706 66.7656L47.7617 67.3488C47.7617 67.3488 43.8809 71.7769 41.0209 71.7769C38.161 71.7769 28.4647 72.1184 26.7671 71.7769C25.0695 71.4354 20.7566 70.4607 20.466 68.1738Z" fill="#2E8A4B"/>
<path d="M40.673 61.9961H39.9351C39.1284 61.9961 38.4745 62.6523 38.4745 63.4619V64.9737C38.4745 65.7832 39.1284 66.4395 39.9351 66.4395H40.673C41.4797 66.4395 42.1336 65.7832 42.1336 64.9737V63.4619C42.1336 62.6523 41.4797 61.9961 40.673 61.9961Z" fill="white"/>
<path d="M36.7693 55.8609C35.6934 56.118 34.5723 56.118 33.4964 55.8609V54.1035H36.7693V55.8609Z" fill="#263238"/>
<path d="M36.0467 54.8857H34.2191V57.0767H36.0467V54.8857Z" fill="#263238"/>
<path d="M36.0849 70.0703C36.0849 70.0703 36.1996 69.8017 36.3793 69.3029C36.6234 68.6048 36.8138 67.889 36.949 67.1618C37.1528 66.0847 37.2666 64.9924 37.2893 63.8964C37.3053 63.2563 37.2861 62.6158 37.2319 61.9778C37.217 61.8264 37.154 61.6838 37.0522 61.5711C36.937 61.4711 36.7875 61.4202 36.6355 61.4291H34.5211C34.4469 61.4268 34.3733 61.4427 34.3067 61.4754C34.24 61.5082 34.1824 61.5569 34.1388 61.6171C34.0968 61.676 34.0705 61.7447 34.0623 61.8166L34.0393 62.0661C33.9858 62.7414 33.9208 63.3899 33.8482 64.0076C33.7194 65.1047 33.5292 66.1936 33.2785 67.2692C33.1097 67.9937 32.8977 68.7074 32.6438 69.4065C32.5558 69.6559 32.4794 69.8439 32.4258 69.9705C32.399 70.0362 32.3684 70.1003 32.3341 70.1624C32.3423 70.092 32.3617 70.0233 32.3914 69.959C32.4373 69.8094 32.5023 69.6175 32.5788 69.3835C32.7394 68.8846 32.9611 68.1556 33.1523 67.2385C33.3852 66.1653 33.5613 65.0804 33.6799 63.9885C33.7526 63.3745 33.8099 62.726 33.8635 62.0507L33.8864 61.7936C33.897 61.6942 33.9325 61.5992 33.9896 61.5173C34.048 61.4335 34.1259 61.3653 34.2165 61.3185C34.3071 61.2717 34.4077 61.2477 34.5096 61.2487H36.6278C36.8255 61.2403 37.0187 61.3091 37.1669 61.4406C37.2931 61.583 37.372 61.7614 37.3925 61.9509C37.4465 62.6043 37.4631 63.2603 37.4422 63.9156C37.4114 65.0208 37.2834 66.1212 37.0599 67.204C36.9168 67.9355 36.7069 68.6522 36.4328 69.3451C36.3588 69.5338 36.2746 69.7182 36.1805 69.8976C36.1545 69.9583 36.1225 70.0162 36.0849 70.0703Z" fill="#263238"/>
<path d="M28.3768 59.5762C26.2815 59.5762 25.7806 59.8678 25.7347 59.8985C24.5272 61.2615 23.6353 62.8759 23.1233 64.6258C24.4654 64.0541 26.5109 64.8484 27.6541 65.7117C28.7973 66.5751 29.4053 67.143 31.0494 67.0356C32.6935 66.9281 32.5137 65.2436 32.8693 62.6612C33.2249 60.0788 30.5905 59.5762 28.3768 59.5762Z" fill="#E0E0E0"/>
<g opacity="0.3">
<path d="M41.3957 69.8548C41.3957 69.8548 32.7814 70.2385 30.1738 70.1733C27.5662 70.1081 24.8477 67.8442 23.2457 67.2609C22.3691 66.9071 21.3994 66.8598 20.4928 67.1266C20.4946 67.1381 20.4946 67.1497 20.4928 67.1612L20.4469 67.5449C20.4388 67.7525 20.4478 67.9604 20.4737 68.1665C20.7643 70.4688 25.0618 71.4319 26.7747 71.7695C28.4877 72.1072 38.1687 71.7695 41.0286 71.7695C43.0512 71.7695 45.5785 69.5594 46.89 68.2624C45.265 68.6845 41.3957 69.8548 41.3957 69.8548Z" fill="white"/>
</g>
<path d="M41.2848 69.8359C41.1481 69.8684 41.0084 69.8864 40.868 69.8896C40.5966 69.9165 40.2066 69.9433 39.721 69.974C38.7537 70.0354 37.4269 70.1045 35.9472 70.1582C34.4675 70.2119 33.1332 70.2465 32.1658 70.2503C31.6841 70.2503 31.2903 70.2503 31.0188 70.2503C30.8778 70.2532 30.7369 70.2416 30.5982 70.2158C30.7365 70.1871 30.8776 70.1742 31.0188 70.1774L32.1658 70.1313L35.9396 69.9894L39.7133 69.8551L40.8604 69.832C41.0016 69.8191 41.1438 69.8204 41.2848 69.8359Z" fill="#263238"/>
<path d="M50.8358 65.2627H48.5915V66.1184H50.8358V65.2627Z" fill="white"/>
<path d="M49.2911 64.6366V66.7432H50.1361V64.6366H49.2911Z" fill="white"/>
<path d="M31.535 57.841C31.535 57.841 32.1697 56.9162 32.9191 56.8165C33.6685 56.7167 37.4843 56.7129 38.769 57.3268C39.5794 57.7296 40.3172 58.2652 40.9522 58.9115L31.535 57.841Z" fill="#2E8A4B"/>
<path d="M55.7642 54.4876C55.7514 54.4177 55.7309 54.3495 55.7031 54.2842C55.5981 54.1035 55.4461 53.9549 55.2634 53.8544C54.558 53.4688 53.7988 53.192 53.0113 53.0333C50.1156 52.4129 47.1748 52.0279 44.2174 51.8822C40.478 51.6366 36.0122 51.5291 31.0609 51.698C28.5832 51.7901 25.9871 51.9397 23.3069 52.2467C21.9725 52.4002 20.6304 52.592 19.2502 52.8721C18.5647 53.0058 17.8879 53.1813 17.2237 53.3978C16.8917 53.5042 16.5693 53.639 16.2602 53.8007C15.9696 53.9619 15.6408 54.1844 15.6217 54.4837C15.6026 54.783 15.9658 55.0094 16.2564 55.1706C16.5668 55.3324 16.8904 55.4672 17.2237 55.5735C17.8868 55.7895 18.5622 55.965 19.2464 56.0992C20.6075 56.3831 21.9687 56.5711 23.3069 56.7246C25.9833 57.0316 28.5832 57.1851 31.0609 57.2733C36.0314 57.4421 40.478 57.3347 44.2174 57.0891C47.1748 56.9434 50.1156 56.5584 53.0113 55.938C53.7988 55.7793 54.558 55.5025 55.2634 55.1169C55.4461 55.0163 55.5981 54.8678 55.7031 54.6871C55.7299 54.6228 55.7504 54.5559 55.7642 54.4876C55.7643 54.5592 55.7486 54.6299 55.7184 54.6948C55.6188 54.8841 55.4676 55.0412 55.2825 55.1475C54.5812 55.5503 53.8213 55.8404 53.0305 56.0071C50.9926 56.5289 47.972 56.951 44.2365 57.2196C39.8511 57.516 35.4537 57.5903 31.0609 57.4422C28.5832 57.3577 25.9795 57.2042 23.2954 56.9011C21.9534 56.7476 20.5884 56.5596 19.2196 56.2795C18.5266 56.1423 17.8423 55.9643 17.1702 55.7461C16.8268 55.6375 16.494 55.4975 16.1761 55.3279C16.0135 55.2399 15.8609 55.1344 15.7211 55.0132C15.6359 54.9543 15.5663 54.8755 15.5182 54.7836C15.4701 54.6917 15.445 54.5895 15.445 54.4856C15.445 54.3818 15.4701 54.2796 15.5182 54.1877C15.5663 54.0958 15.6359 54.017 15.7211 53.958C15.8602 53.8348 16.0128 53.7279 16.1761 53.6396C16.4949 53.4728 16.8275 53.3341 17.1702 53.2251C17.8423 53.007 18.5266 52.8289 19.2196 52.6918C20.5884 52.4117 21.9495 52.2237 23.2916 52.0702C25.968 51.767 28.5794 51.6174 31.057 51.5291C35.4486 51.3809 39.8448 51.4552 44.2289 51.7517C47.1884 51.9126 50.1297 52.3181 53.0228 52.9642C53.815 53.1303 54.5762 53.4204 55.2787 53.8237C55.4638 53.9301 55.615 54.0871 55.7145 54.2765C55.7466 54.3423 55.7635 54.4144 55.7642 54.4876V54.4876Z" fill="#263238"/>
<path d="M35.1328 54.6028C36.0366 54.6028 36.7693 54.4121 36.7693 54.1769C36.7693 53.9417 36.0366 53.751 35.1328 53.751C34.2291 53.751 33.4964 53.9417 33.4964 54.1769C33.4964 54.4121 34.2291 54.6028 35.1328 54.6028Z" fill="#455A64"/>
<path d="M34.0087 54.6064C34.0087 54.6563 31.7605 55.0822 28.9656 55.558C26.1706 56.0338 23.8995 56.3792 23.8919 56.3254C23.8842 56.2717 26.1401 55.8496 28.935 55.3738C31.73 54.898 34.0011 54.5565 34.0087 54.6064Z" fill="#263238"/>
<path d="M35.0028 54.1038C34.947 54.1104 34.8905 54.1104 34.8346 54.1038H34.3567L32.5902 54.1345C31.1029 54.1575 29.0421 54.1997 26.7709 54.2841C24.4998 54.3686 22.4466 54.4837 20.9593 54.5719L19.1967 54.6755H18.7149C18.6592 54.6846 18.6024 54.6846 18.5467 54.6755C18.6004 54.6551 18.6574 54.6447 18.7149 54.6448L19.189 54.5873C19.6058 54.5412 20.206 54.4875 20.9478 54.4261C22.4351 54.3072 24.4921 54.1729 26.7671 54.0885C29.0421 54.004 31.0991 53.981 32.5902 53.9887C33.3549 53.9887 33.9399 53.9887 34.3567 54.0194L34.8346 54.0386C34.8945 54.0487 34.9517 54.0709 35.0028 54.1038V54.1038Z" fill="#263238"/>
<path d="M29.9214 60.6611C29.0034 61.1903 28.0562 61.6669 27.0844 62.0885C26.1383 62.5642 25.1655 62.9844 24.1709 63.3471C25.0895 62.8189 26.0366 62.3424 27.0079 61.9197C27.9544 61.4448 28.9272 61.0246 29.9214 60.6611V60.6611Z" fill="#263238"/>
<path d="M29.2715 61.8545C28.7019 62.2018 28.1134 62.5169 27.5088 62.7984C26.931 63.1311 26.3363 63.4334 25.7271 63.704C26.2459 63.2779 26.8163 62.9195 27.4247 62.6373C28.0052 62.2997 28.6256 62.0367 29.2715 61.8545V61.8545Z" fill="#263238"/>
<path d="M41.5716 58.7656C41.5716 58.8155 39.3272 58.639 36.5743 58.3819C33.8214 58.1248 31.6038 57.8562 31.6038 57.8063C31.6038 57.7564 33.8443 57.9329 36.6011 58.19C39.3578 58.4471 41.5754 58.708 41.5716 58.7656Z" fill="#263238"/>
<path d="M137.101 104.853H0.304932V168.618H137.101V104.853Z" fill="#E0E0E0"/>
<path d="M137.097 104.853C137.097 105.424 137.128 129.261 137.17 168.618V168.691H137.097L0.312714 168.718H0.205658V168.618C0.205658 146.186 0.205658 124.614 0.205658 104.853V104.753H0.301245L137.093 104.849L0.301245 104.941L0.393007 104.849C0.393007 124.61 0.393007 146.182 0.393007 168.614L0.293597 168.515L137.078 168.541L137.005 168.614C137.063 129.261 137.097 105.424 137.097 104.853Z" fill="#263238"/>
<path d="M135.418 147.253H0.304932V168.614H135.418V147.253Z" fill="#2E8A4B"/>
<path d="M105.435 152.813H54.6823V164.428H105.435V152.813Z" fill="#455A64"/>
<path d="M100.847 152.898V164.371C100.851 164.391 100.862 164.409 100.877 164.421C100.893 164.434 100.913 164.441 100.933 164.441C100.953 164.441 100.973 164.434 100.989 164.421C101.004 164.409 101.015 164.391 101.019 164.371V152.898C101.015 152.878 101.004 152.861 100.989 152.848C100.973 152.835 100.953 152.828 100.933 152.828C100.913 152.828 100.893 152.835 100.877 152.848C100.862 152.861 100.851 152.878 100.847 152.898Z" fill="#E0E0E0"/>
<path d="M95.1729 152.898V164.371C95.1729 164.394 95.1821 164.417 95.1987 164.433C95.2153 164.45 95.2377 164.459 95.2611 164.459C95.2846 164.459 95.307 164.45 95.3236 164.433C95.3401 164.417 95.3494 164.394 95.3494 164.371V152.898C95.3494 152.874 95.3401 152.852 95.3236 152.835C95.307 152.819 95.2846 152.81 95.2611 152.81C95.2377 152.81 95.2153 152.819 95.1987 152.835C95.1821 152.852 95.1729 152.874 95.1729 152.898V152.898Z" fill="#E0E0E0"/>
<path d="M89.5026 152.898V164.371C89.5068 164.39 89.5176 164.408 89.5334 164.421C89.5491 164.434 89.5687 164.441 89.5889 164.441C89.6092 164.441 89.6288 164.434 89.6445 164.421C89.6602 164.408 89.6711 164.39 89.6753 164.371V152.898C89.678 152.885 89.6778 152.871 89.6748 152.859C89.6717 152.846 89.6658 152.834 89.6575 152.824C89.6492 152.813 89.6388 152.805 89.6269 152.8C89.6151 152.794 89.6021 152.791 89.5889 152.791C89.5758 152.791 89.5628 152.794 89.5509 152.8C89.5391 152.805 89.5286 152.813 89.5203 152.824C89.5121 152.834 89.5062 152.846 89.5031 152.859C89.5 152.871 89.4998 152.885 89.5026 152.898Z" fill="#E0E0E0"/>
<path d="M83.8286 152.898V164.371C83.8286 164.394 83.8379 164.417 83.8545 164.433C83.871 164.45 83.8935 164.459 83.9169 164.459C83.9403 164.459 83.9628 164.45 83.9793 164.433C83.9959 164.417 84.0052 164.394 84.0052 164.371V152.898C84.0052 152.874 83.9959 152.852 83.9793 152.835C83.9628 152.819 83.9403 152.81 83.9169 152.81C83.8935 152.81 83.871 152.819 83.8545 152.835C83.8379 152.852 83.8286 152.874 83.8286 152.898Z" fill="#E0E0E0"/>
<path d="M78.1584 152.898V164.371C78.1625 164.39 78.1734 164.408 78.1891 164.421C78.2049 164.434 78.2245 164.441 78.2447 164.441C78.2649 164.441 78.2846 164.434 78.3003 164.421C78.316 164.408 78.3269 164.39 78.3311 164.371V152.898C78.3338 152.885 78.3336 152.871 78.3306 152.859C78.3275 152.846 78.3216 152.834 78.3133 152.824C78.305 152.813 78.2946 152.805 78.2827 152.8C78.2708 152.794 78.2579 152.791 78.2447 152.791C78.2316 152.791 78.2186 152.794 78.2067 152.8C78.1949 152.805 78.1844 152.813 78.1761 152.824C78.1678 152.834 78.162 152.846 78.1589 152.859C78.1558 152.871 78.1556 152.885 78.1584 152.898V152.898Z" fill="#E0E0E0"/>
<path d="M72.4844 152.898V164.371C72.4844 164.394 72.4937 164.417 72.5102 164.433C72.5268 164.45 72.5492 164.459 72.5727 164.459C72.5961 164.459 72.6185 164.45 72.6351 164.433C72.6516 164.417 72.6609 164.394 72.6609 164.371V152.898C72.6609 152.874 72.6516 152.852 72.6351 152.835C72.6185 152.819 72.5961 152.81 72.5727 152.81C72.5492 152.81 72.5268 152.819 72.5102 152.835C72.4937 152.852 72.4844 152.874 72.4844 152.898Z" fill="#E0E0E0"/>
<path d="M66.8141 152.898V164.371C66.8183 164.39 66.8292 164.408 66.8449 164.421C66.8606 164.434 66.8802 164.441 66.9005 164.441C66.9207 164.441 66.9403 164.434 66.9561 164.421C66.9718 164.408 66.9826 164.39 66.9868 164.371V152.898C66.9896 152.885 66.9894 152.871 66.9863 152.859C66.9832 152.846 66.9773 152.834 66.9691 152.824C66.9608 152.813 66.9503 152.805 66.9385 152.8C66.9266 152.794 66.9136 152.791 66.9005 152.791C66.8873 152.791 66.8743 152.794 66.8625 152.8C66.8506 152.805 66.8402 152.813 66.8319 152.824C66.8236 152.834 66.8177 152.846 66.8146 152.859C66.8116 152.871 66.8114 152.885 66.8141 152.898V152.898Z" fill="#E0E0E0"/>
<path d="M61.14 152.898V164.371C61.14 164.394 61.1493 164.417 61.1659 164.433C61.1824 164.45 61.2049 164.459 61.2283 164.459C61.2517 164.459 61.2742 164.45 61.2907 164.433C61.3073 164.417 61.3166 164.394 61.3166 164.371V152.898C61.3166 152.874 61.3073 152.852 61.2907 152.835C61.2742 152.819 61.2517 152.81 61.2283 152.81C61.2049 152.81 61.1824 152.819 61.1659 152.835C61.1493 152.852 61.14 152.874 61.14 152.898Z" fill="#E0E0E0"/>
<g opacity="0.3">
<path d="M54.6785 154.306H104.582V164.444H105.443V152.825H54.6899L54.6785 154.306Z" fill="black"/>
</g>
<path d="M135.705 152.929H109.174V164.544H135.705V152.929Z" fill="#455A64"/>
<path d="M132.646 153.009V164.486C132.646 164.509 132.656 164.532 132.672 164.548C132.689 164.565 132.711 164.574 132.735 164.574C132.758 164.574 132.781 164.565 132.797 164.548C132.814 164.532 132.823 164.509 132.823 164.486V153.009C132.823 152.986 132.814 152.963 132.797 152.947C132.781 152.93 132.758 152.921 132.735 152.921C132.711 152.921 132.689 152.93 132.672 152.947C132.656 152.963 132.646 152.986 132.646 153.009Z" fill="#E0E0E0"/>
<path d="M126.976 153.009V164.486C126.98 164.506 126.991 164.524 127.007 164.537C127.023 164.549 127.042 164.556 127.063 164.556C127.083 164.556 127.103 164.549 127.118 164.537C127.134 164.524 127.145 164.506 127.149 164.486V153.009C127.145 152.99 127.134 152.972 127.118 152.959C127.103 152.946 127.083 152.939 127.063 152.939C127.042 152.939 127.023 152.946 127.007 152.959C126.991 152.972 126.98 152.99 126.976 153.009V153.009Z" fill="#E0E0E0"/>
<path d="M121.302 153.009V164.486C121.302 164.509 121.312 164.532 121.328 164.548C121.345 164.565 121.367 164.574 121.391 164.574C121.414 164.574 121.436 164.565 121.453 164.548C121.47 164.532 121.479 164.509 121.479 164.486V153.009C121.479 152.986 121.47 152.963 121.453 152.947C121.436 152.93 121.414 152.921 121.391 152.921C121.367 152.921 121.345 152.93 121.328 152.947C121.312 152.963 121.302 152.986 121.302 153.009Z" fill="#E0E0E0"/>
<path d="M115.628 153.009V164.486C115.628 164.509 115.638 164.532 115.654 164.548C115.671 164.565 115.693 164.574 115.717 164.574C115.74 164.574 115.762 164.565 115.779 164.548C115.796 164.532 115.805 164.509 115.805 164.486V153.009C115.805 152.986 115.796 152.963 115.779 152.947C115.762 152.93 115.74 152.921 115.717 152.921C115.693 152.921 115.671 152.93 115.654 152.947C115.638 152.963 115.628 152.986 115.628 153.009Z" fill="#E0E0E0"/>
<path d="M0.304962 152.89H51.0576V164.508H0.304962" fill="#455A64"/>
<g opacity="0.3">
<path d="M51.0576 153.542L14.9297 164.539L21.9649 164.447L51.0576 155.952V153.542Z" fill="white"/>
</g>
<g opacity="0.3">
<path d="M51.0576 157.03L26.8245 164.428V164.54L28.9006 164.455L51.0576 157.706V157.03Z" fill="white"/>
</g>
<path d="M46.4656 152.974V164.447C46.4656 164.47 46.4749 164.493 46.4914 164.509C46.508 164.526 46.5304 164.535 46.5539 164.535C46.5773 164.535 46.5997 164.526 46.6163 164.509C46.6328 164.493 46.6421 164.47 46.6421 164.447V152.974C46.6421 152.951 46.6328 152.928 46.6163 152.912C46.5997 152.895 46.5773 152.886 46.5539 152.886C46.5304 152.886 46.508 152.895 46.4914 152.912C46.4749 152.928 46.4656 152.951 46.4656 152.974V152.974Z" fill="#E0E0E0"/>
<path d="M40.7916 152.974V164.447C40.7916 164.47 40.8009 164.493 40.8175 164.509C40.834 164.526 40.8565 164.535 40.8799 164.535C40.9033 164.535 40.9258 164.526 40.9423 164.509C40.9589 164.493 40.9682 164.47 40.9682 164.447V152.974C40.9682 152.951 40.9589 152.928 40.9423 152.912C40.9258 152.895 40.9033 152.886 40.8799 152.886C40.8565 152.886 40.834 152.895 40.8175 152.912C40.8009 152.928 40.7916 152.951 40.7916 152.974Z" fill="#E0E0E0"/>
<path d="M35.1215 152.974V164.447C35.1257 164.467 35.1365 164.485 35.1522 164.497C35.168 164.51 35.1876 164.517 35.2078 164.517C35.2281 164.517 35.2477 164.51 35.2634 164.497C35.2791 164.485 35.29 164.467 35.2942 164.447V152.974C35.2942 152.951 35.2851 152.929 35.2689 152.913C35.2527 152.897 35.2307 152.888 35.2078 152.888C35.1849 152.888 35.163 152.897 35.1468 152.913C35.1306 152.929 35.1215 152.951 35.1215 152.974V152.974Z" fill="#E0E0E0"/>
<path d="M29.4474 152.974V164.447C29.4474 164.47 29.4567 164.493 29.4732 164.509C29.4898 164.526 29.5123 164.535 29.5357 164.535C29.5591 164.535 29.5815 164.526 29.5981 164.509C29.6147 164.493 29.624 164.47 29.624 164.447V152.974C29.624 152.951 29.6147 152.928 29.5981 152.912C29.5815 152.895 29.5591 152.886 29.5357 152.886C29.5123 152.886 29.4898 152.895 29.4732 152.912C29.4567 152.928 29.4474 152.951 29.4474 152.974V152.974Z" fill="#E0E0E0"/>
<path d="M23.7772 152.974V164.447C23.7814 164.467 23.7923 164.485 23.808 164.497C23.8237 164.51 23.8434 164.517 23.8636 164.517C23.8838 164.517 23.9034 164.51 23.9192 164.497C23.9349 164.485 23.9458 164.467 23.95 164.447V152.974C23.95 152.951 23.9409 152.929 23.9247 152.913C23.9085 152.897 23.8865 152.888 23.8636 152.888C23.8407 152.888 23.8187 152.897 23.8025 152.913C23.7863 152.929 23.7772 152.951 23.7772 152.974V152.974Z" fill="#E0E0E0"/>
<path d="M18.1031 152.974V164.447C18.1031 164.47 18.1124 164.493 18.129 164.509C18.1456 164.526 18.168 164.535 18.1914 164.535C18.2148 164.535 18.2373 164.526 18.2539 164.509C18.2704 164.493 18.2797 164.47 18.2797 164.447V152.974C18.2797 152.951 18.2704 152.928 18.2539 152.912C18.2373 152.895 18.2148 152.886 18.1914 152.886C18.168 152.886 18.1456 152.895 18.129 152.912C18.1124 152.928 18.1031 152.951 18.1031 152.974Z" fill="#E0E0E0"/>
<path d="M12.4177 152.974V164.447C12.4219 164.467 12.4328 164.485 12.4485 164.497C12.4642 164.51 12.4839 164.517 12.5041 164.517C12.5243 164.517 12.5439 164.51 12.5597 164.497C12.5754 164.485 12.5863 164.467 12.5905 164.447V152.974C12.5905 152.951 12.5814 152.929 12.5652 152.913C12.549 152.897 12.527 152.888 12.5041 152.888C12.4812 152.888 12.4592 152.897 12.443 152.913C12.4268 152.929 12.4177 152.951 12.4177 152.974V152.974Z" fill="#E0E0E0"/>
<path d="M6.75903 152.974V164.447C6.75903 164.47 6.76833 164.493 6.78489 164.509C6.80145 164.526 6.8239 164.535 6.84732 164.535C6.87073 164.535 6.89319 164.526 6.90974 164.509C6.9263 164.493 6.9356 164.47 6.9356 164.447V152.974C6.9356 152.951 6.9263 152.928 6.90974 152.912C6.89319 152.895 6.87073 152.886 6.84732 152.886C6.8239 152.886 6.80145 152.895 6.78489 152.912C6.76833 152.928 6.75903 152.951 6.75903 152.974V152.974Z" fill="#E0E0E0"/>
<g opacity="0.3">
<path d="M0.289642 154.371H50.1935V164.508H51.0576V152.89H0.304937L0.289642 154.371Z" fill="black"/>
</g>
<g opacity="0.3">
<path d="M49.0732 164.447H45.9762V166.32H49.0732V164.447Z" fill="white"/>
</g>
<g opacity="0.3">
<path d="M22.7143 149.061H19.6173V150.933H22.7143V149.061Z" fill="white"/>
</g>
<path d="M0.507568 164.612H50.9773C50.997 164.608 51.0147 164.597 51.0274 164.581C51.0401 164.566 51.047 164.546 51.047 164.526C51.047 164.506 51.0401 164.486 51.0274 164.47C51.0147 164.455 50.997 164.444 50.9773 164.439H0.507568C0.48785 164.444 0.470168 164.455 0.457479 164.47C0.44479 164.486 0.437866 164.506 0.437866 164.526C0.437866 164.546 0.44479 164.566 0.457479 164.581C0.470168 164.597 0.48785 164.608 0.507568 164.612V164.612Z" fill="#E0E0E0"/>
<path d="M54.8237 164.612H105.439C105.458 164.608 105.476 164.597 105.489 164.581C105.502 164.566 105.508 164.546 105.508 164.526C105.508 164.506 105.502 164.486 105.489 164.47C105.476 164.455 105.458 164.444 105.439 164.439H54.8237C54.804 164.444 54.7863 164.455 54.7736 164.47C54.761 164.486 54.754 164.506 54.754 164.526C54.754 164.546 54.761 164.566 54.7736 164.581C54.7863 164.597 54.804 164.608 54.8237 164.612V164.612Z" fill="#E0E0E0"/>
<path d="M51.0576 125.397H0.304932V138.359H51.0576V125.397Z" fill="#455A64"/>
<path d="M46.4656 125.474V138.279C46.4656 138.302 46.4749 138.324 46.4915 138.341C46.5081 138.357 46.5305 138.367 46.5539 138.367C46.5773 138.367 46.5998 138.357 46.6163 138.341C46.6329 138.324 46.6422 138.302 46.6422 138.279V125.474C46.6422 125.451 46.6329 125.428 46.6163 125.412C46.5998 125.395 46.5773 125.386 46.5539 125.386C46.5305 125.386 46.5081 125.395 46.4915 125.412C46.4749 125.428 46.4656 125.451 46.4656 125.474V125.474Z" fill="#E0E0E0"/>
<path d="M40.7916 125.474V138.279C40.7916 138.302 40.8009 138.324 40.8175 138.341C40.834 138.357 40.8565 138.367 40.8799 138.367C40.9033 138.367 40.9258 138.357 40.9423 138.341C40.9589 138.324 40.9682 138.302 40.9682 138.279V125.474C40.9682 125.451 40.9589 125.428 40.9423 125.412C40.9258 125.395 40.9033 125.386 40.8799 125.386C40.8565 125.386 40.834 125.395 40.8175 125.412C40.8009 125.428 40.7916 125.451 40.7916 125.474Z" fill="#E0E0E0"/>
<path d="M35.1214 125.474V138.279C35.1256 138.299 35.1365 138.316 35.1522 138.329C35.1679 138.342 35.1876 138.349 35.2078 138.349C35.228 138.349 35.2476 138.342 35.2634 138.329C35.2791 138.316 35.29 138.299 35.2942 138.279V125.474C35.29 125.454 35.2791 125.437 35.2634 125.424C35.2476 125.411 35.228 125.404 35.2078 125.404C35.1876 125.404 35.1679 125.411 35.1522 125.424C35.1365 125.437 35.1256 125.454 35.1214 125.474V125.474Z" fill="#E0E0E0"/>
<path d="M29.4474 125.474V138.279C29.4474 138.302 29.4567 138.324 29.4732 138.341C29.4898 138.357 29.5123 138.367 29.5357 138.367C29.5591 138.367 29.5815 138.357 29.5981 138.341C29.6147 138.324 29.624 138.302 29.624 138.279V125.474C29.624 125.451 29.6147 125.428 29.5981 125.412C29.5815 125.395 29.5591 125.386 29.5357 125.386C29.5123 125.386 29.4898 125.395 29.4732 125.412C29.4567 125.428 29.4474 125.451 29.4474 125.474V125.474Z" fill="#E0E0E0"/>
<path d="M23.7772 125.474V138.279C23.7814 138.299 23.7923 138.316 23.808 138.329C23.8237 138.342 23.8434 138.349 23.8636 138.349C23.8838 138.349 23.9034 138.342 23.9192 138.329C23.9349 138.316 23.9458 138.299 23.95 138.279V125.474C23.9458 125.454 23.9349 125.437 23.9192 125.424C23.9034 125.411 23.8838 125.404 23.8636 125.404C23.8434 125.404 23.8237 125.411 23.808 125.424C23.7923 125.437 23.7814 125.454 23.7772 125.474V125.474Z" fill="#E0E0E0"/>
<path d="M18.1032 125.474V138.279C18.1032 138.302 18.1125 138.324 18.1291 138.341C18.1456 138.357 18.1681 138.367 18.1915 138.367C18.2149 138.367 18.2374 138.357 18.2539 138.341C18.2705 138.324 18.2798 138.302 18.2798 138.279V125.474C18.2798 125.451 18.2705 125.428 18.2539 125.412C18.2374 125.395 18.2149 125.386 18.1915 125.386C18.1681 125.386 18.1456 125.395 18.1291 125.412C18.1125 125.428 18.1032 125.451 18.1032 125.474Z" fill="#E0E0E0"/>
<path d="M12.4177 125.474V138.279C12.4219 138.299 12.4328 138.316 12.4485 138.329C12.4642 138.342 12.4838 138.349 12.5041 138.349C12.5243 138.349 12.5439 138.342 12.5596 138.329C12.5754 138.316 12.5862 138.299 12.5904 138.279V125.474C12.5862 125.454 12.5754 125.437 12.5596 125.424C12.5439 125.411 12.5243 125.404 12.5041 125.404C12.4838 125.404 12.4642 125.411 12.4485 125.424C12.4328 125.437 12.4219 125.454 12.4177 125.474V125.474Z" fill="#E0E0E0"/>
<path d="M6.75897 125.474V138.279C6.75897 138.302 6.76827 138.324 6.78483 138.341C6.80139 138.357 6.82384 138.367 6.84726 138.367C6.87067 138.367 6.89312 138.357 6.90968 138.341C6.92624 138.324 6.93554 138.302 6.93554 138.279V125.474C6.93554 125.451 6.92624 125.428 6.90968 125.412C6.89312 125.395 6.87067 125.386 6.84726 125.386C6.82384 125.386 6.80139 125.395 6.78483 125.412C6.76827 125.428 6.75897 125.451 6.75897 125.474V125.474Z" fill="#E0E0E0"/>
<path d="M0.442676 138.52H51.0577C51.081 138.52 51.1034 138.511 51.1199 138.494C51.1363 138.478 51.1456 138.455 51.1456 138.432C51.1456 138.409 51.1363 138.386 51.1199 138.37C51.1034 138.353 51.081 138.344 51.0577 138.344H0.442676C0.419353 138.344 0.396984 138.353 0.380493 138.37C0.364001 138.386 0.354736 138.409 0.354736 138.432C0.354736 138.455 0.364001 138.478 0.380493 138.494C0.396984 138.511 0.419353 138.52 0.442676 138.52Z" fill="#E0E0E0"/>
<path d="M109.071 164.671H135.373C135.396 164.671 135.418 164.661 135.435 164.645C135.451 164.628 135.461 164.606 135.461 164.582C135.461 164.559 135.451 164.537 135.435 164.52C135.418 164.503 135.396 164.494 135.373 164.494H109.071C109.048 164.494 109.025 164.503 109.009 164.52C108.992 164.537 108.983 164.559 108.983 164.582C108.983 164.606 108.992 164.628 109.009 164.645C109.025 164.661 109.048 164.671 109.071 164.671V164.671Z" fill="#E0E0E0"/>
<g opacity="0.3">
<path d="M135.373 152.929H109.174V154.644H135.373V152.929Z" fill="black"/>
</g>
<path d="M0.339387 135.619H51.0538C51.0735 135.615 51.0912 135.604 51.1039 135.588C51.1166 135.572 51.1235 135.553 51.1235 135.533C51.1235 135.512 51.1166 135.493 51.1039 135.477C51.0912 135.461 51.0735 135.45 51.0538 135.446H0.339387C0.319669 135.45 0.301986 135.461 0.289297 135.477C0.276608 135.493 0.269684 135.512 0.269684 135.533C0.269684 135.553 0.276608 135.572 0.289297 135.588C0.301986 135.604 0.319669 135.615 0.339387 135.619Z" fill="#E0E0E0"/>
<g opacity="0.3">
<path d="M0.297363 126.879H50.2012V138.294H51.0615V125.397H0.308835L0.297363 126.879Z" fill="black"/>
</g>
<path d="M105.584 125.397H54.8314V138.359H105.584V125.397Z" fill="#455A64"/>
<path d="M100.992 125.474V138.279C100.992 138.302 101.001 138.324 101.018 138.341C101.034 138.357 101.057 138.367 101.08 138.367C101.104 138.367 101.126 138.357 101.143 138.341C101.159 138.324 101.169 138.302 101.169 138.279V125.474C101.169 125.451 101.159 125.428 101.143 125.412C101.126 125.395 101.104 125.386 101.08 125.386C101.057 125.386 101.034 125.395 101.018 125.412C101.001 125.428 100.992 125.451 100.992 125.474Z" fill="#E0E0E0"/>
<path d="M95.3218 125.474V138.279C95.326 138.299 95.3369 138.316 95.3526 138.329C95.3683 138.342 95.3879 138.349 95.4082 138.349C95.4284 138.349 95.448 138.342 95.4638 138.329C95.4795 138.316 95.4903 138.299 95.4945 138.279V125.474C95.4903 125.454 95.4795 125.437 95.4638 125.424C95.448 125.411 95.4284 125.404 95.4082 125.404C95.3879 125.404 95.3683 125.411 95.3526 125.424C95.3369 125.437 95.326 125.454 95.3218 125.474V125.474Z" fill="#E0E0E0"/>
<path d="M89.6516 125.474V138.279C89.6516 138.302 89.6609 138.324 89.6775 138.341C89.694 138.357 89.7165 138.367 89.7399 138.367C89.7633 138.367 89.7858 138.357 89.8023 138.341C89.8189 138.324 89.8282 138.302 89.8282 138.279V125.474C89.8282 125.451 89.8189 125.428 89.8023 125.412C89.7858 125.395 89.7633 125.386 89.7399 125.386C89.7165 125.386 89.694 125.395 89.6775 125.412C89.6609 125.428 89.6516 125.451 89.6516 125.474V125.474Z" fill="#E0E0E0"/>
<path d="M83.9776 125.474V138.279C83.9818 138.299 83.9927 138.316 84.0084 138.329C84.0241 138.342 84.0437 138.349 84.064 138.349C84.0842 138.349 84.1038 138.342 84.1195 138.329C84.1353 138.316 84.1461 138.299 84.1503 138.279V125.474C84.1461 125.454 84.1353 125.437 84.1195 125.424C84.1038 125.411 84.0842 125.404 84.064 125.404C84.0437 125.404 84.0241 125.411 84.0084 125.424C83.9927 125.437 83.9818 125.454 83.9776 125.474Z" fill="#E0E0E0"/>
<path d="M78.3036 125.474V138.279C78.3036 138.302 78.3129 138.324 78.3294 138.341C78.346 138.357 78.3685 138.367 78.3919 138.367C78.4153 138.367 78.4377 138.357 78.4543 138.341C78.4708 138.324 78.4802 138.302 78.4802 138.279V125.474C78.4802 125.451 78.4708 125.428 78.4543 125.412C78.4377 125.395 78.4153 125.386 78.3919 125.386C78.3685 125.386 78.346 125.395 78.3294 125.412C78.3129 125.428 78.3036 125.451 78.3036 125.474V125.474Z" fill="#E0E0E0"/>
<path d="M72.6296 125.474V138.279C72.6296 138.302 72.6389 138.324 72.6554 138.341C72.672 138.357 72.6945 138.367 72.7179 138.367C72.7413 138.367 72.7637 138.357 72.7803 138.341C72.7968 138.324 72.8061 138.302 72.8061 138.279V125.474C72.8061 125.451 72.7968 125.428 72.7803 125.412C72.7637 125.395 72.7413 125.386 72.7179 125.386C72.6945 125.386 72.672 125.395 72.6554 125.412C72.6389 125.428 72.6296 125.451 72.6296 125.474V125.474Z" fill="#E0E0E0"/>
<path d="M66.9594 125.474V138.279C66.9636 138.299 66.9744 138.316 66.9902 138.329C67.0059 138.342 67.0255 138.349 67.0457 138.349C67.066 138.349 67.0856 138.342 67.1013 138.329C67.117 138.316 67.1279 138.299 67.1321 138.279V125.474C67.1279 125.454 67.117 125.437 67.1013 125.424C67.0856 125.411 67.066 125.404 67.0457 125.404C67.0255 125.404 67.0059 125.411 66.9902 125.424C66.9744 125.437 66.9636 125.454 66.9594 125.474Z" fill="#E0E0E0"/>
<path d="M61.2854 125.474V138.279C61.2854 138.302 61.2947 138.324 61.3113 138.341C61.3278 138.357 61.3503 138.367 61.3737 138.367C61.3971 138.367 61.4196 138.357 61.4361 138.341C61.4527 138.324 61.462 138.302 61.462 138.279V125.474C61.462 125.451 61.4527 125.428 61.4361 125.412C61.4196 125.395 61.3971 125.386 61.3737 125.386C61.3503 125.386 61.3278 125.395 61.3113 125.412C61.2947 125.428 61.2854 125.451 61.2854 125.474V125.474Z" fill="#E0E0E0"/>
<path d="M51.0576 112.665H0.304993V117.408H51.0576V112.665Z" fill="#455A64"/>
<path d="M46.4657 112.7V117.381C46.4657 117.404 46.475 117.427 46.4916 117.443C46.5081 117.46 46.5306 117.469 46.554 117.469C46.5774 117.469 46.5998 117.46 46.6164 117.443C46.633 117.427 46.6423 117.404 46.6423 117.381V112.7C46.6423 112.676 46.633 112.654 46.6164 112.637C46.5998 112.621 46.5774 112.611 46.554 112.611C46.5306 112.611 46.5081 112.621 46.4916 112.637C46.475 112.654 46.4657 112.676 46.4657 112.7V112.7Z" fill="#E0E0E0"/>
<path d="M40.7916 112.7V117.381C40.7916 117.404 40.8009 117.427 40.8175 117.443C40.834 117.46 40.8565 117.469 40.8799 117.469C40.9033 117.469 40.9258 117.46 40.9423 117.443C40.9589 117.427 40.9682 117.404 40.9682 117.381V112.7C40.9682 112.676 40.9589 112.654 40.9423 112.637C40.9258 112.621 40.9033 112.611 40.8799 112.611C40.8565 112.611 40.834 112.621 40.8175 112.637C40.8009 112.654 40.7916 112.676 40.7916 112.7Z" fill="#E0E0E0"/>
<path d="M35.1214 112.7V117.381C35.1256 117.401 35.1365 117.418 35.1522 117.431C35.1679 117.444 35.1876 117.451 35.2078 117.451C35.228 117.451 35.2476 117.444 35.2634 117.431C35.2791 117.418 35.29 117.401 35.2942 117.381V112.7C35.2942 112.677 35.2851 112.655 35.2689 112.639C35.2527 112.622 35.2307 112.613 35.2078 112.613C35.1849 112.613 35.1629 112.622 35.1467 112.639C35.1305 112.655 35.1214 112.677 35.1214 112.7Z" fill="#E0E0E0"/>
<path d="M29.4474 112.7V117.381C29.4474 117.404 29.4567 117.427 29.4732 117.443C29.4898 117.46 29.5123 117.469 29.5357 117.469C29.5591 117.469 29.5815 117.46 29.5981 117.443C29.6147 117.427 29.624 117.404 29.624 117.381V112.7C29.624 112.676 29.6147 112.654 29.5981 112.637C29.5815 112.621 29.5591 112.611 29.5357 112.611C29.5123 112.611 29.4898 112.621 29.4732 112.637C29.4567 112.654 29.4474 112.676 29.4474 112.7V112.7Z" fill="#E0E0E0"/>
<path d="M23.7772 112.7V117.381C23.7814 117.401 23.7923 117.418 23.808 117.431C23.8237 117.444 23.8433 117.451 23.8636 117.451C23.8838 117.451 23.9034 117.444 23.9191 117.431C23.9349 117.418 23.9457 117.401 23.9499 117.381V112.7C23.9499 112.677 23.9408 112.655 23.9246 112.639C23.9084 112.622 23.8865 112.613 23.8636 112.613C23.8406 112.613 23.8187 112.622 23.8025 112.639C23.7863 112.655 23.7772 112.677 23.7772 112.7Z" fill="#E0E0E0"/>
<path d="M18.1031 112.7V117.381C18.1031 117.404 18.1124 117.427 18.129 117.443C18.1456 117.46 18.168 117.469 18.1914 117.469C18.2148 117.469 18.2373 117.46 18.2539 117.443C18.2704 117.427 18.2797 117.404 18.2797 117.381V112.7C18.2797 112.676 18.2704 112.654 18.2539 112.637C18.2373 112.621 18.2148 112.611 18.1914 112.611C18.168 112.611 18.1456 112.621 18.129 112.637C18.1124 112.654 18.1031 112.676 18.1031 112.7Z" fill="#E0E0E0"/>
<path d="M12.4177 112.7V117.381C12.4219 117.401 12.4328 117.418 12.4485 117.431C12.4642 117.444 12.4838 117.451 12.5041 117.451C12.5243 117.451 12.5439 117.444 12.5596 117.431C12.5754 117.418 12.5862 117.401 12.5904 117.381V112.7C12.5904 112.677 12.5813 112.655 12.5651 112.639C12.5489 112.622 12.527 112.613 12.5041 112.613C12.4812 112.613 12.4592 112.622 12.443 112.639C12.4268 112.655 12.4177 112.677 12.4177 112.7Z" fill="#E0E0E0"/>
<path d="M6.75903 112.7V117.381C6.75903 117.404 6.76833 117.427 6.78489 117.443C6.80145 117.46 6.8239 117.469 6.84732 117.469C6.87073 117.469 6.89319 117.46 6.90974 117.443C6.9263 117.427 6.9356 117.404 6.9356 117.381V112.7C6.9356 112.676 6.9263 112.654 6.90974 112.637C6.89319 112.621 6.87073 112.611 6.84732 112.611C6.8239 112.611 6.80145 112.621 6.78489 112.637C6.76833 112.654 6.75903 112.676 6.75903 112.7Z" fill="#E0E0E0"/>
<path d="M54.969 138.52H105.584C105.607 138.52 105.63 138.511 105.646 138.494C105.663 138.478 105.672 138.455 105.672 138.432C105.672 138.409 105.663 138.386 105.646 138.37C105.63 138.353 105.607 138.344 105.584 138.344H54.969C54.9457 138.344 54.9234 138.353 54.9069 138.37C54.8904 138.386 54.8811 138.409 54.8811 138.432C54.8811 138.455 54.8904 138.478 54.9069 138.494C54.9234 138.511 54.9457 138.52 54.969 138.52Z" fill="#E0E0E0"/>
<path d="M54.8581 135.619H105.58C105.6 135.615 105.618 135.604 105.63 135.588C105.643 135.572 105.65 135.553 105.65 135.533C105.65 135.512 105.643 135.493 105.63 135.477C105.618 135.461 105.6 135.45 105.58 135.446H54.8581C54.8384 135.45 54.8207 135.461 54.808 135.477C54.7953 135.493 54.7884 135.512 54.7884 135.533C54.7884 135.553 54.7953 135.572 54.808 135.588C54.8207 135.604 54.8384 135.615 54.8581 135.619Z" fill="#E0E0E0"/>
<g opacity="0.3">
<path d="M54.8237 126.879H104.728V138.294H105.592V125.397H54.8352L54.8237 126.879Z" fill="black"/>
</g>
<path d="M131.205 125.397H111.139V138.359H131.205V125.397Z" fill="#455A64"/>
<path d="M111.101 135.5H131.06C131.082 135.5 131.104 135.491 131.12 135.475C131.137 135.458 131.146 135.436 131.146 135.413C131.146 135.391 131.137 135.369 131.12 135.352C131.104 135.336 131.082 135.327 131.06 135.327H111.101C111.078 135.327 111.056 135.336 111.04 135.352C111.024 135.369 111.015 135.391 111.015 135.413C111.015 135.436 111.024 135.458 111.04 135.475C111.056 135.491 111.078 135.5 111.101 135.5Z" fill="#E0E0E0"/>
<path d="M121.084 125.447V138.409C121.089 138.429 121.099 138.446 121.115 138.459C121.131 138.472 121.15 138.479 121.171 138.479C121.191 138.479 121.211 138.472 121.226 138.459C121.242 138.446 121.253 138.429 121.257 138.409V125.447C121.253 125.427 121.242 125.409 121.226 125.397C121.211 125.384 121.191 125.377 121.171 125.377C121.15 125.377 121.131 125.384 121.115 125.397C121.099 125.409 121.089 125.427 121.084 125.447Z" fill="#E0E0E0"/>
<g opacity="0.3">
<path d="M111.139 125.397V126.886L129.821 126.913L129.848 138.359H131.201V125.397H111.139Z" fill="black"/>
</g>
<path d="M135.415 142.138H0.339355V143.419H135.415V142.138Z" fill="white"/>
<path d="M134.803 120.612C134.803 120.662 104.663 120.7 67.51 120.7C30.3574 120.7 0.182617 120.662 0.182617 120.612C0.182617 120.562 30.3153 120.52 67.5023 120.52C104.689 120.52 134.803 120.558 134.803 120.612Z" fill="#263238"/>
<g opacity="0.3">
<path d="M0.304993 112.665V114.073H49.6353V117.381H51.0576V112.665H0.304993Z" fill="black"/>
</g>
<path d="M105.584 112.665H54.8314V117.408H105.584V112.665Z" fill="#455A64"/>
<path d="M100.992 112.7V117.381C100.992 117.404 101.001 117.427 101.018 117.443C101.034 117.46 101.057 117.469 101.08 117.469C101.104 117.469 101.126 117.46 101.143 117.443C101.159 117.427 101.169 117.404 101.169 117.381V112.7C101.169 112.676 101.159 112.654 101.143 112.637C101.126 112.621 101.104 112.611 101.08 112.611C101.057 112.611 101.034 112.621 101.018 112.637C101.001 112.654 100.992 112.676 100.992 112.7Z" fill="#E0E0E0"/>
<path d="M95.3218 112.7V117.381C95.326 117.401 95.3369 117.418 95.3526 117.431C95.3683 117.444 95.3879 117.451 95.4082 117.451C95.4284 117.451 95.448 117.444 95.4638 117.431C95.4795 117.418 95.4903 117.401 95.4945 117.381V112.7C95.4945 112.677 95.4854 112.655 95.4693 112.639C95.4531 112.622 95.4311 112.613 95.4082 112.613C95.3853 112.613 95.3633 112.622 95.3471 112.639C95.3309 112.655 95.3218 112.677 95.3218 112.7V112.7Z" fill="#E0E0E0"/>
<path d="M89.6516 112.7V117.381C89.6516 117.404 89.6609 117.427 89.6775 117.443C89.694 117.46 89.7165 117.469 89.7399 117.469C89.7633 117.469 89.7858 117.46 89.8023 117.443C89.8189 117.427 89.8282 117.404 89.8282 117.381V112.7C89.8282 112.676 89.8189 112.654 89.8023 112.637C89.7858 112.621 89.7633 112.611 89.7399 112.611C89.7165 112.611 89.694 112.621 89.6775 112.637C89.6609 112.654 89.6516 112.676 89.6516 112.7V112.7Z" fill="#E0E0E0"/>
<path d="M83.9776 112.7V117.381C83.9818 117.401 83.9927 117.418 84.0084 117.431C84.0241 117.444 84.0438 117.451 84.064 117.451C84.0842 117.451 84.1038 117.444 84.1196 117.431C84.1353 117.418 84.1462 117.401 84.1504 117.381V112.7C84.1504 112.677 84.1413 112.655 84.1251 112.639C84.1089 112.622 84.0869 112.613 84.064 112.613C84.0411 112.613 84.0191 112.622 84.0029 112.639C83.9867 112.655 83.9776 112.677 83.9776 112.7Z" fill="#E0E0E0"/>
<path d="M78.3037 112.7V117.381C78.3037 117.404 78.313 117.427 78.3296 117.443C78.3461 117.46 78.3686 117.469 78.392 117.469C78.4154 117.469 78.4379 117.46 78.4544 117.443C78.471 117.427 78.4803 117.404 78.4803 117.381V112.7C78.4803 112.676 78.471 112.654 78.4544 112.637C78.4379 112.621 78.4154 112.611 78.392 112.611C78.3686 112.611 78.3461 112.621 78.3296 112.637C78.313 112.654 78.3037 112.676 78.3037 112.7V112.7Z" fill="#E0E0E0"/>
<path d="M72.6296 112.7V117.381C72.6296 117.404 72.6389 117.427 72.6555 117.443C72.6721 117.46 72.6945 117.469 72.7179 117.469C72.7413 117.469 72.7638 117.46 72.7803 117.443C72.7969 117.427 72.8062 117.404 72.8062 117.381V112.7C72.8062 112.676 72.7969 112.654 72.7803 112.637C72.7638 112.621 72.7413 112.611 72.7179 112.611C72.6945 112.611 72.6721 112.621 72.6555 112.637C72.6389 112.654 72.6296 112.676 72.6296 112.7V112.7Z" fill="#E0E0E0"/>
<path d="M66.9594 112.7V117.381C66.9636 117.401 66.9744 117.418 66.9902 117.431C67.0059 117.444 67.0255 117.451 67.0457 117.451C67.066 117.451 67.0856 117.444 67.1013 117.431C67.117 117.418 67.1279 117.401 67.1321 117.381V112.7C67.1321 112.677 67.123 112.655 67.1068 112.639C67.0906 112.622 67.0687 112.613 67.0457 112.613C67.0228 112.613 67.0009 112.622 66.9847 112.639C66.9685 112.655 66.9594 112.677 66.9594 112.7Z" fill="#E0E0E0"/>
<path d="M61.2854 112.7V117.381C61.2854 117.404 61.2947 117.427 61.3113 117.443C61.3278 117.46 61.3503 117.469 61.3737 117.469C61.3971 117.469 61.4196 117.46 61.4361 117.443C61.4527 117.427 61.462 117.404 61.462 117.381V112.7C61.462 112.676 61.4527 112.654 61.4361 112.637C61.4196 112.621 61.3971 112.611 61.3737 112.611C61.3503 112.611 61.3278 112.621 61.3113 112.637C61.2947 112.654 61.2854 112.676 61.2854 112.7V112.7Z" fill="#E0E0E0"/>
<g opacity="0.3">
<path d="M54.8314 112.665V114.073H104.162V117.381H105.584V112.665H54.8314Z" fill="black"/>
</g>
<path d="M120.392 112.78H115.946V117.247H120.392V112.78Z" fill="#455A64"/>
<path d="M127.707 112.799H123.26V117.265H127.707V112.799Z" fill="#455A64"/>
<g opacity="0.3">
<path d="M115.946 113.701H119.341V117.247H120.392V112.78H115.946V113.701Z" fill="black"/>
</g>
<g opacity="0.3">
<path d="M123.325 113.701H126.72V117.247H127.772V112.78H123.325V113.701Z" fill="black"/>
</g>
<g opacity="0.3">
<path d="M114.091 148.585H109.411V151.409H114.091V148.585Z" fill="white"/>
</g>
<g opacity="0.3">
<path d="M60.6927 165.016H56.0128V167.84H60.6927V165.016Z" fill="white"/>
</g>
<g opacity="0.3">
<path d="M58.9951 106.867H54.3152V109.691H58.9951V106.867Z" fill="white"/>
</g>
<g opacity="0.3">
<path d="M52.8126 106.867H48.1327V109.691H52.8126V106.867Z" fill="white"/>
</g>
<g opacity="0.3">
<path d="M102.38 149.061H99.283V150.933H102.38V149.061Z" fill="white"/>
</g>
<path d="M256.324 135.412H184.971V168.615H256.324V135.412Z" fill="#E0E0E0"/>
<path d="M256.324 168.619C256.324 168.619 256.324 168.416 256.324 168.024C256.324 167.633 256.324 167.053 256.324 166.297C256.324 164.782 256.324 162.552 256.324 159.682C256.324 153.946 256.301 145.654 256.286 135.412L256.358 135.485L185.009 135.512L185.108 135.412C185.108 147.093 185.108 158.324 185.108 168.619L185.013 168.523L236.247 168.569L251.044 168.596H254.997H255.972H256.324H255.972H254.963H251.029L236.255 168.623L184.959 168.665H184.867V168.573C184.867 158.278 184.867 147.047 184.867 135.366V135.267H184.971L256.32 135.293H256.393V135.366C256.393 145.627 256.362 153.934 256.355 159.682C256.355 162.545 256.355 164.77 256.355 166.282C256.355 167.03 256.355 167.606 256.355 167.993C256.355 168.381 256.324 168.619 256.324 168.619Z" fill="#263238"/>
<path d="M199.263 143.159V144.694H194.216V138.62H199.148V140.155H196.227V140.869H198.792V142.357H196.227V143.156L199.263 143.159Z" fill="white"/>
<path d="M205.472 144.71V141.932L204.153 144.161H203.254L201.935 142.027V144.713H200.069V138.62H201.752L203.728 141.862L205.64 138.62H207.323V144.71H205.472Z" fill="white"/>
<path d="M213.371 143.159V144.694H208.324V138.62H213.257V140.155H210.335V140.869H212.901V142.357H210.335V143.156L213.371 143.159Z" fill="white"/>
<path d="M216.759 143.179H216.208V144.713H214.163V138.62H217.084C218.774 138.62 219.852 139.506 219.852 140.922C219.868 141.32 219.768 141.713 219.564 142.054C219.361 142.395 219.062 142.668 218.705 142.841L219.982 144.721H217.795L216.759 143.179ZM216.95 140.201H216.185V141.628H216.95C217.516 141.628 217.783 141.36 217.783 140.915C217.783 140.47 217.516 140.201 216.95 140.201Z" fill="white"/>
<path d="M224.62 141.498H226.398V144.073C225.609 144.578 224.692 144.844 223.756 144.841C221.794 144.841 220.365 143.528 220.365 141.656C220.365 139.783 221.794 138.471 223.806 138.471C224.327 138.443 224.847 138.534 225.328 138.737C225.809 138.94 226.238 139.251 226.581 139.645L225.27 140.796C225.109 140.588 224.903 140.419 224.667 140.303C224.431 140.186 224.172 140.125 223.909 140.125C223.538 140.167 223.195 140.344 222.945 140.623C222.696 140.901 222.556 141.262 222.553 141.636C222.549 142.011 222.683 142.374 222.928 142.656C223.172 142.939 223.512 143.122 223.882 143.171C224.138 143.174 224.392 143.123 224.628 143.022L224.62 141.498Z" fill="white"/>
<path d="M232.332 143.159V144.694H227.296V138.62H232.232V140.155H229.307V140.869H231.884V142.357H229.315V143.156L232.332 143.159Z" fill="white"/>
<path d="M239.103 138.62V144.71H237.421L235.127 141.943V144.71H233.135V138.62H234.817L237.111 141.387V138.62H239.103Z" fill="white"/>
<path d="M239.849 141.664C239.849 139.795 241.282 138.479 243.232 138.479C243.75 138.453 244.266 138.549 244.739 138.761C245.212 138.974 245.629 139.295 245.955 139.699L244.662 140.85C244.514 140.634 244.316 140.456 244.085 140.332C243.855 140.207 243.597 140.14 243.336 140.136C242.965 140.182 242.624 140.362 242.377 140.643C242.13 140.924 241.993 141.285 241.993 141.66C241.993 142.034 242.13 142.396 242.377 142.677C242.624 142.957 242.965 143.137 243.336 143.183C243.597 143.179 243.855 143.112 244.085 142.988C244.316 142.864 244.514 142.686 244.662 142.469L245.955 143.621C245.629 144.024 245.212 144.345 244.739 144.556C244.266 144.768 243.75 144.864 243.232 144.837C241.282 144.848 239.849 143.536 239.849 141.664Z" fill="white"/>
<path d="M250.149 142.499V144.709H248.104V142.472L245.81 138.635H247.966L249.205 140.738L250.455 138.635H252.432L250.149 142.499Z" fill="white"/>
<g opacity="0.3">
<path d="M252.374 152.74H208.408V168.722H252.374V152.74Z" fill="black"/>
</g>
<path d="M218.617 151.451H215.256V168.749H218.617V151.451Z" fill="#E0E0E0"/>
<path d="M251.067 154.482H220.984V168.753H251.067V154.482Z" fill="#455A64"/>
<g opacity="0.3">
<path d="M251.067 154.482L220.984 165.959V168.611L251.067 156.827V154.482Z" fill="white"/>
</g>
<g opacity="0.3">
<path d="M223.301 168.749H225.148L251.067 158.489V157.813L223.301 168.749Z" fill="white"/>
</g>
<path d="M244.311 158.642H229.575V158.833H244.311V158.642Z" fill="#E0E0E0"/>
<path d="M235.838 162.426H235.364V164.195H235.838V162.426Z" fill="#E0E0E0"/>
<path d="M238.472 162.426H237.998V164.195H238.472V162.426Z" fill="#E0E0E0"/>
<path d="M229.656 168.748V154.482C229.656 154.458 229.647 154.436 229.63 154.419C229.614 154.403 229.591 154.394 229.568 154.394C229.544 154.394 229.522 154.403 229.505 154.419C229.489 154.436 229.479 154.458 229.479 154.482V168.748C229.479 168.772 229.489 168.794 229.505 168.811C229.522 168.827 229.544 168.837 229.568 168.837C229.591 168.837 229.614 168.827 229.63 168.811C229.647 168.794 229.656 168.772 229.656 168.748V168.748Z" fill="#E0E0E0"/>
<path d="M244.399 168.748V154.482C244.399 154.458 244.39 154.436 244.373 154.419C244.357 154.403 244.334 154.394 244.311 154.394C244.288 154.394 244.265 154.403 244.249 154.419C244.232 154.436 244.223 154.458 244.223 154.482V168.748C244.223 168.772 244.232 168.794 244.249 168.811C244.265 168.827 244.288 168.837 244.311 168.837C244.334 168.837 244.357 168.827 244.373 168.811C244.39 168.794 244.399 168.772 244.399 168.748V168.748Z" fill="#E0E0E0"/>
<path d="M236.855 158.857V168.676C236.855 168.699 236.864 168.722 236.881 168.738C236.897 168.755 236.92 168.764 236.943 168.764C236.967 168.764 236.989 168.755 237.006 168.738C237.022 168.722 237.032 168.699 237.032 168.676V158.857C237.032 158.833 237.022 158.811 237.006 158.794C236.989 158.778 236.967 158.769 236.943 158.769C236.92 158.769 236.897 158.778 236.881 158.794C236.864 158.811 236.855 158.833 236.855 158.857Z" fill="#E0E0E0"/>
<g opacity="0.3">
<path d="M221.871 168.749V155.423H251.067V154.482H220.984V168.749H221.871Z" fill="black"/>
</g>
<path d="M251.162 168.749H250.971V154.579H221.079V168.749H220.888V154.387H251.162V168.749Z" fill="#E0E0E0"/>
<path d="M256.324 146.835H189.387V147.875H256.324V146.835Z" fill="#2E8A4B"/>
<path d="M189.394 50.7725H135.415V168.618H189.394V50.7725Z" fill="#2E8A4B"/>
<g opacity="0.3">
<path d="M185.28 151.658H140.037V168.614H185.28V151.658Z" fill="black"/>
</g>
<path d="M189.394 63.6963H154.188V147.353H189.394V63.6963Z" fill="#455A64"/>
<path d="M189.394 148.504H135.415V151.658H189.394V148.504Z" fill="#2E8A4B"/>
<path d="M152.051 52.2881V57.6601H150.246V55.6763H148.575V57.6601H146.77V52.2881H148.575V54.2067H150.246V52.2881H152.051Z" fill="#FAFAFA"/>
<path d="M152.708 54.9786C152.708 53.3517 153.985 52.166 155.733 52.166C157.48 52.166 158.757 53.3517 158.757 54.9786C158.757 56.6056 157.476 57.7913 155.733 57.7913C153.989 57.7913 152.708 56.6056 152.708 54.9786ZM156.933 54.9786C156.908 54.7457 156.816 54.5251 156.669 54.3434C156.521 54.1618 156.325 54.0269 156.103 53.955C155.88 53.8831 155.642 53.8774 155.417 53.9385C155.191 53.9997 154.989 54.125 154.833 54.2994C154.677 54.4738 154.575 54.6897 154.538 54.9212C154.502 55.1526 154.534 55.3897 154.629 55.6036C154.724 55.8175 154.879 55.9991 155.075 56.1266C155.271 56.254 155.499 56.3218 155.733 56.3216C155.903 56.3214 156.071 56.2854 156.226 56.2162C156.381 56.1469 156.521 56.0457 156.635 55.9193C156.749 55.7928 156.835 55.6438 156.889 55.4818C156.942 55.3198 156.961 55.1484 156.945 54.9786H156.933Z" fill="#FAFAFA"/>
<path d="M159.074 57.2385L159.659 55.9147C160.197 56.2257 160.805 56.3946 161.426 56.4058C161.938 56.4058 162.122 56.2984 162.122 56.1142C162.122 55.4389 159.158 55.9837 159.158 53.9807C159.158 52.9831 159.996 52.1658 161.655 52.1658C162.357 52.1527 163.052 52.3135 163.678 52.6339L163.131 53.95C162.671 53.7061 162.16 53.5746 161.64 53.5663C161.112 53.5663 160.944 53.7198 160.944 53.904C160.944 54.5486 163.907 54.0114 163.907 55.9914C163.907 56.9737 163.07 57.8064 161.41 57.8064C160.596 57.8179 159.793 57.6225 159.074 57.2385V57.2385Z" fill="#FAFAFA"/>
<path d="M169.463 54.3181C169.463 55.5614 168.514 56.3441 167.019 56.3441H166.255V57.6679H164.45V52.296H167.027C168.514 52.2883 169.463 53.0749 169.463 54.3181ZM167.639 54.3181C167.639 53.9344 167.402 53.6888 166.905 53.6888H166.247V54.9474H166.905C167.402 54.9474 167.65 54.7095 167.65 54.3181H167.639Z" fill="#FAFAFA"/>
<path d="M170.051 52.2881H171.856V57.6601H170.051V52.2881Z" fill="#FAFAFA"/>
<path d="M173.894 53.6963H172.323V52.2881H177.266V53.6963H175.699V57.6677H173.894V53.6963Z" fill="#FAFAFA"/>
<path d="M181.116 56.7278H179.082L178.723 57.6679H176.884L179.228 52.2959H181.002L183.346 57.6679H181.476L181.116 56.7278ZM180.619 55.4232L180.099 54.0725L179.579 55.4232H180.619Z" fill="#FAFAFA"/>
<path d="M183.636 52.2881H185.441V56.2595H187.861V57.6677H183.636V52.2881Z" fill="#FAFAFA"/>
<path d="M148.915 68.7266H143.792V73.8645H148.915V68.7266Z" fill="#455A64"/>
<path d="M148.915 85.7979H143.792V90.9396H148.915V85.7979Z" fill="#455A64"/>
<path d="M148.915 103.721H143.792V108.862H148.915V103.721Z" fill="#455A64"/>
<path d="M148.915 121.645H143.792V126.786H148.915V121.645Z" fill="#455A64"/>
<path d="M148.915 139.567H143.792V144.705H148.915V139.567Z" fill="#455A64"/>
<path d="M147.722 155.453H139.441V167.068H147.722V155.453Z" fill="#455A64"/>
<path d="M147.914 167.264H139.25V155.262H147.914V167.264ZM139.632 166.881H147.531V155.645H139.632V166.881Z" fill="#E0E0E0"/>
<g opacity="0.3">
<path d="M147.722 156.105L139.441 159.486V162.137L147.722 158.515V156.105Z" fill="white"/>
</g>
<g opacity="0.3">
<path d="M147.722 159.594L139.441 163.312V164.041L147.722 160.273V159.594Z" fill="white"/>
</g>
<path d="M152.1 151.658H147.309V168.614H152.1V151.658Z" fill="#2E8A4B"/>
<path d="M170.006 156.235H155.274V168.618H170.006V156.235Z" fill="#455A64"/>
<g opacity="0.3">
<path d="M169.872 157.272L155.388 163.312V165.96L169.872 159.678V157.272Z" fill="white"/>
</g>
<g opacity="0.3">
<path d="M169.818 160.81L155.331 166.849V167.582L169.818 161.489V160.81Z" fill="white"/>
</g>
<g opacity="0.3">
<path d="M155.453 167.317L155.916 156.941L169.872 156.439L155.274 156.235L155.453 167.317Z" fill="black"/>
</g>
<path d="M170.2 168.618H169.818V156.428H155.465V168.618H155.083V156.044H170.2V168.618Z" fill="#E0E0E0"/>
<path d="M162.848 156.313H162.466V168.619H162.848V156.313Z" fill="#E0E0E0"/>
<path d="M170.029 158.642H155.293V158.833H170.029V158.642Z" fill="#E0E0E0"/>
<path d="M161.552 162.426H161.078V164.195H161.552V162.426Z" fill="#E0E0E0"/>
<path d="M164.186 162.426H163.712V164.195H164.186V162.426Z" fill="#E0E0E0"/>
<path d="M185.276 155.453H176.995V167.068H185.276V155.453Z" fill="#455A64"/>
<path d="M185.471 167.264H176.804V155.262H185.471V167.264ZM177.186 166.881H185.089V155.645H177.186V166.881Z" fill="#E0E0E0"/>
<g opacity="0.3">
<path d="M185.28 156.105L176.995 159.486V162.137L185.28 158.515V156.105Z" fill="white"/>
</g>
<g opacity="0.3">
<path d="M185.28 159.594L176.995 163.312V164.041L185.28 160.273V159.594Z" fill="white"/>
</g>
<path d="M177.354 151.658H172.563V168.614H177.354V151.658Z" fill="#2E8A4B"/>
<path d="M189.433 151.658H184.971V168.614H189.433V151.658Z" fill="#2E8A4B"/>
<g opacity="0.3">
<path d="M140.095 77.752H135.415V80.5761H140.095V77.752Z" fill="white"/>
</g>
<g opacity="0.3">
<path d="M140.094 62.2832H135.415V65.1073H140.094V62.2832Z" fill="white"/>
</g>
<g opacity="0.3">
<path d="M177.928 57.9551H173.248V60.7792H177.928V57.9551Z" fill="white"/>
</g>
<g opacity="0.3">
<path d="M171.738 56.3789H167.058V59.203H171.738V56.3789Z" fill="white"/>
</g>
<g opacity="0.3">
<path d="M140.094 96.752H135.415V99.5761H140.094V96.752Z" fill="white"/>
</g>
<g opacity="0.3">
<path d="M140.094 115.75H135.415V118.574H140.094V115.75Z" fill="white"/>
</g>
<g opacity="0.3">
<path d="M140.095 134.41H135.415V137.234H140.095V134.41Z" fill="white"/>
</g>
<path d="M189.394 147.741H153.806V63.3125H189.394V64.0799H154.57V146.973H189.394V147.741Z" fill="#E0E0E0"/>
<path d="M189.394 82.3291H154.188V83.7412H189.394V82.3291Z" fill="#E0E0E0"/>
<path d="M189.394 104.146H154.188V105.559H189.394V104.146Z" fill="#E0E0E0"/>
<path d="M189.394 125.964H154.188V127.376H189.394V125.964Z" fill="#E0E0E0"/>
<path d="M166.729 63.9652V147.254C166.729 147.277 166.738 147.3 166.755 147.316C166.771 147.333 166.794 147.342 166.817 147.342C166.84 147.342 166.863 147.333 166.879 147.316C166.896 147.3 166.905 147.277 166.905 147.254V63.9652C166.905 63.9418 166.896 63.9194 166.879 63.9028C166.863 63.8863 166.84 63.877 166.817 63.877C166.794 63.877 166.771 63.8863 166.755 63.9028C166.738 63.9194 166.729 63.9418 166.729 63.9652Z" fill="#E0E0E0"/>
<path d="M179.534 63.6957V147.345C179.534 147.369 179.543 147.391 179.559 147.408C179.576 147.424 179.598 147.433 179.622 147.433C179.645 147.433 179.668 147.424 179.684 147.408C179.701 147.391 179.71 147.369 179.71 147.345V63.6957C179.71 63.6723 179.701 63.6498 179.684 63.6333C179.668 63.6167 179.645 63.6074 179.622 63.6074C179.598 63.6074 179.576 63.6167 179.559 63.6333C179.543 63.6498 179.534 63.6723 179.534 63.6957Z" fill="#E0E0E0"/>
<path d="M154.387 137.327H189.18C189.204 137.327 189.226 137.318 189.242 137.301C189.259 137.285 189.268 137.262 189.268 137.239C189.268 137.215 189.259 137.193 189.242 137.176C189.226 137.16 189.204 137.15 189.18 137.15H154.387C154.363 137.15 154.341 137.16 154.325 137.176C154.308 137.193 154.299 137.215 154.299 137.239C154.299 137.262 154.308 137.285 154.325 137.301C154.341 137.318 154.363 137.327 154.387 137.327V137.327Z" fill="#E0E0E0"/>
<path d="M154.387 115.85H189.18C189.204 115.85 189.226 115.841 189.242 115.824C189.259 115.808 189.268 115.785 189.268 115.762C189.268 115.739 189.259 115.716 189.242 115.7C189.226 115.683 189.204 115.674 189.18 115.674H154.387C154.363 115.674 154.341 115.683 154.325 115.7C154.308 115.716 154.299 115.739 154.299 115.762C154.299 115.785 154.308 115.808 154.325 115.824C154.341 115.841 154.363 115.85 154.387 115.85V115.85Z" fill="#E0E0E0"/>
<path d="M154.387 94.3933H189.18C189.204 94.3933 189.226 94.384 189.242 94.3675C189.259 94.3509 189.268 94.3285 189.268 94.3051C189.268 94.2816 189.259 94.2592 189.242 94.2426C189.226 94.2261 189.204 94.2168 189.18 94.2168H154.387C154.363 94.2168 154.341 94.2261 154.325 94.2426C154.308 94.2592 154.299 94.2816 154.299 94.3051C154.299 94.3285 154.308 94.3509 154.325 94.3675C154.341 94.384 154.363 94.3933 154.387 94.3933V94.3933Z" fill="#E0E0E0"/>
<path d="M154.387 73.1316H189.18C189.204 73.1316 189.226 73.1223 189.242 73.1057C189.259 73.0892 189.268 73.0667 189.268 73.0433C189.268 73.0199 189.259 72.9975 189.242 72.9809C189.226 72.9644 189.204 72.9551 189.18 72.9551H154.387C154.363 72.9551 154.341 72.9644 154.325 72.9809C154.308 72.9975 154.299 73.0199 154.299 73.0433C154.299 73.0667 154.308 73.0892 154.325 73.1057C154.341 73.1223 154.363 73.1316 154.387 73.1316V73.1316Z" fill="#E0E0E0"/>
<g opacity="0.3">
<path d="M189.433 70.0273L154.387 92.2213V98.7905L189.394 77.6325L189.433 70.0273Z" fill="white"/>
</g>
<g opacity="0.3">
<path d="M189.433 111.015L154.387 133.209V139.782L189.394 118.62L189.433 111.015Z" fill="white"/>
</g>
<g opacity="0.3">
<path d="M189.433 87.4795L154.387 109.673V112.279L189.394 90.9368L189.433 87.4795Z" fill="white"/>
</g>
<g opacity="0.3">
<path d="M144.717 126.786V122.377H148.912V121.645H143.792V126.786H144.717Z" fill="black"/>
</g>
<g opacity="0.3">
<path d="M144.717 144.709V140.3H148.911V139.567H143.792V144.709H144.717Z" fill="black"/>
</g>
<g opacity="0.3">
<path d="M144.717 90.9358V86.5269H148.911V85.7979H143.792V90.9358H144.717Z" fill="black"/>
</g>
<g opacity="0.3">
<path d="M144.717 108.859V104.45H148.912V103.721H143.792V108.859H144.717Z" fill="black"/>
</g>
<g opacity="0.3">
<path d="M144.717 73.8674V69.4586H148.912V68.7295H143.792V73.8674H144.717Z" fill="black"/>
</g>
<path d="M140.205 151.658H135.415V168.614H140.205V151.658Z" fill="#2E8A4B"/>
<path d="M142.844 54.3411H141.406V52.8945H140.018V54.3411H138.58V55.7302H140.018V57.1729H141.406V55.7302H142.844V54.3411Z" fill="#FAFAFA"/>
<path d="M157.113 152.603H156.241V155.296H157.113V152.603Z" fill="white"/>
<path d="M155.339 153.507V154.382H158.023V153.507H155.339Z" fill="white"/>
<path d="M169.818 153.319H158.814V154.574H169.818V153.319Z" fill="white"/>
<path d="M135.415 168.722C135.365 168.722 135.327 143.27 135.327 111.878C135.327 80.4869 135.365 55.0352 135.415 55.0352C135.465 55.0352 135.507 80.4792 135.507 111.878C135.507 143.278 135.465 168.722 135.415 168.722Z" fill="#263238"/>
<path d="M230.179 47.1004C230.179 47.1004 229.95 47.0198 229.525 46.9278C228.929 46.7951 228.314 46.7704 227.709 46.8548C226.81 46.9749 225.962 47.3428 225.258 47.9177C224.396 48.6213 223.788 49.5891 223.526 50.6728V50.7035L223.477 50.903L223.4 50.715C222.98 49.686 222.257 48.8104 221.328 48.2055C220.572 47.7103 219.701 47.4183 218.801 47.3575C218.193 47.3142 217.582 47.37 216.992 47.5225C216.575 47.6338 216.353 47.7297 216.35 47.7182C216.399 47.6862 216.451 47.6604 216.506 47.6415C216.66 47.5754 216.817 47.519 216.977 47.4726C217.57 47.3 218.188 47.2299 218.804 47.2654C219.726 47.3129 220.62 47.6012 221.397 48.1019C222.35 48.7175 223.092 49.6123 223.522 50.6651H223.396V50.6306C223.665 49.5193 224.291 48.528 225.178 47.8103C225.901 47.2274 226.773 46.8605 227.694 46.7512C228.31 46.6735 228.935 46.7112 229.537 46.8625C229.701 46.9031 229.861 46.9544 230.019 47.016C230.075 47.0384 230.129 47.0667 230.179 47.1004V47.1004Z" fill="#263238"/>
<path d="M248.367 37.086C248.367 37.086 248.237 37.0476 247.985 37.0016C247.658 36.9318 247.321 36.9214 246.991 36.9709C246.501 37.0379 246.039 37.2398 245.656 37.5541C245.189 37.9401 244.859 38.4679 244.716 39.0583V39.0583L244.666 39.254L244.59 39.0698C244.361 38.5099 243.969 38.0324 243.466 37.6999C243.053 37.429 242.578 37.2679 242.085 37.2318C241.753 37.2081 241.419 37.2352 241.095 37.3124C240.866 37.37 240.743 37.4198 240.74 37.4083C240.765 37.3889 240.793 37.3734 240.824 37.3623C240.908 37.3244 240.995 37.2911 241.084 37.2625C241.41 37.1611 241.752 37.1195 242.093 37.1397C242.61 37.1623 243.111 37.3226 243.546 37.604C244.077 37.944 244.49 38.4415 244.727 39.0276H244.605C244.753 38.4089 245.101 37.8569 245.595 37.4582C245.998 37.1364 246.483 36.9355 246.995 36.8788C247.335 36.8375 247.681 36.8622 248.012 36.9517C248.102 36.9734 248.19 37.0029 248.276 37.04C248.325 37.063 248.367 37.0783 248.367 37.086Z" fill="#263238"/>
<path d="M236.473 32.9991C236.473 32.9991 236.346 33.141 236.121 33.3828C235.805 33.7421 235.52 34.1272 235.268 34.5339C234.431 35.8843 233.991 37.4445 233.999 39.0349V39.0924H233.869C233.739 38.2381 233.461 37.4133 233.047 36.6559C232.712 36.0361 232.293 35.4665 231.8 34.9637C231.474 34.6287 231.118 34.3243 230.737 34.0543C230.458 33.8663 230.301 33.7665 230.305 33.7588C230.349 33.7716 230.39 33.791 230.428 33.8164C230.504 33.8624 230.626 33.9161 230.764 34.0121C231.168 34.2738 231.544 34.5773 231.884 34.9176C233.026 36.0432 233.774 37.509 234.018 39.0963H233.888V39.0387C233.875 37.4239 234.334 35.8406 235.207 34.484C235.469 34.0732 235.768 33.6879 236.102 33.3329C236.216 33.2063 236.32 33.118 236.385 33.0566C236.45 32.9952 236.473 32.9991 236.473 32.9991Z" fill="#263238"/>
</g>
<defs>
<clipPath id="clip0_108_8079">
<rect width="256" height="169" fill="white"/>
</clipPath>
</defs>
</svg>
